0, 0, Header, 0, 1, 480
1, 0, Start_track
1, 0, Title_t, "Suite bergamasque"
1, 0, Title_t, "Prelude"
1, 0, Copyright_t, "Copyright © 1998 von Bernd Krüger. http://www.piano-midi.de"
1, 0, Text_t, "Claude Debussy"
1, 0, Text_t, "Moderato tempo rubato"
1, 0, Text_t, "Fertiggestellt am 14.6.98\012"
1, 0, Text_t, "Korrekturen am 20.8.98\012"
1, 0, Text_t, "Beide Tracks auf Kanal 1 am 9.11.98\012"
1, 0, Text_t, "Update am 21.4.99\012"
1, 0, Text_t, "Normierung: 23.12.2002\012"
1, 0, Text_t, "Update am 4.8.2011\012"
1, 0, Text_t, "Dauer: 3:57 Minuten\012"
1, 0, Time_signature, 4, 2, 24, 8
1, 0, Key_signature, -1, "major"
1, 0, Tempo, 655738
1, 0, Marker_t, "Moderato"
1, 0, Program_c, 0, 0
1, 0, Control_c, 0, 7, 100
1, 0, Control_c, 0, 10, 64
1, 0, Control_c, 0, 91, 127
1, 0, Text_t, "bdca426d104a26ac9dcb070447587523"
1, 0, Program_c, 0, 0
1, 0, Control_c, 0, 7, 100
1, 0, Control_c, 0, 10, 64
1, 0, Control_c, 0, 64, 127
1, 0, Control_c, 0, 91, 127
1, 1, Note_on_c, 0, 29, 87
1, 240, Note_on_c, 0, 41, 78
1, 241, Note_on_c, 0, 29, 0
1, 480, Tempo, 621762
1, 480, Note_on_c, 0, 41, 0
1, 480, Note_on_c, 0, 48, 81
1, 700, Note_on_c, 0, 48, 0
1, 720, Tempo, 764331
1, 720, Note_on_c, 0, 48, 81
1, 960, Tempo, 839161
1, 960, Note_on_c, 0, 67, 70
1, 960, Note_on_c, 0, 70, 70
1, 960, Note_on_c, 0, 74, 70
1, 960, Note_on_c, 0, 79, 83
1, 960, Note_on_c, 0, 62, 70
1, 960, Note_on_c, 0, 58, 58
1, 960, Note_on_c, 0, 55, 58
1, 968, Control_c, 0, 64, 0
1, 1158, Control_c, 0, 64, 127
1, 1920, Tempo, 606061
1, 1920, Control_c, 0, 64, 0
1, 2040, Note_on_c, 0, 79, 0
1, 2040, Note_on_c, 0, 81, 53
1, 2160, Note_on_c, 0, 81, 0
1, 2160, Note_on_c, 0, 82, 53
1, 2280, Tempo, 579710
1, 2280, Note_on_c, 0, 82, 0
1, 2280, Note_on_c, 0, 81, 53
1, 2400, Tempo, 558140
1, 2400, Note_on_c, 0, 81, 0
1, 2400, Note_on_c, 0, 48, 0
1, 2400, Note_on_c, 0, 62, 0
1, 2400, Note_on_c, 0, 67, 0
1, 2400, Note_on_c, 0, 70, 0
1, 2400, Note_on_c, 0, 74, 0
1, 2400, Note_on_c, 0, 58, 0
1, 2400, Note_on_c, 0, 55, 0
1, 2400, Note_on_c, 0, 79, 56
1, 2520, Tempo, 540541
1, 2520, Note_on_c, 0, 79, 0
1, 2520, Note_on_c, 0, 81, 54
1, 2640, Note_on_c, 0, 81, 0
1, 2640, Note_on_c, 0, 79, 54
1, 2760, Note_on_c, 0, 79, 0
1, 2760, Note_on_c, 0, 77, 54
1, 2880, Tempo, 550459
1, 2880, Note_on_c, 0, 77, 0
1, 2880, Note_on_c, 0, 74, 57
1, 3000, Tempo, 538117
1, 3000, Note_on_c, 0, 74, 0
1, 3000, Note_on_c, 0, 77, 54
1, 3120, Note_on_c, 0, 77, 0
1, 3120, Note_on_c, 0, 74, 54
1, 3240, Note_on_c, 0, 74, 0
1, 3240, Note_on_c, 0, 72, 54
1, 3360, Tempo, 550459
1, 3360, Note_on_c, 0, 72, 0
1, 3360, Note_on_c, 0, 70, 58
1, 3480, Tempo, 538117
1, 3480, Note_on_c, 0, 70, 0
1, 3480, Note_on_c, 0, 67, 54
1, 3600, Note_on_c, 0, 67, 0
1, 3600, Note_on_c, 0, 62, 53
1, 3720, Note_on_c, 0, 62, 0
1, 3720, Note_on_c, 0, 64, 53
1, 3840, Tempo, 568720
1, 3840, Note_on_c, 0, 64, 0
1, 3840, Note_on_c, 0, 67, 52
1, 3840, Note_on_c, 0, 60, 44
1, 3840, Note_on_c, 0, 41, 36
1, 3840, Note_on_c, 0, 48, 36
1, 3840, Note_on_c, 0, 57, 44
1, 3960, Tempo, 576923
1, 3960, Note_on_c, 0, 67, 0
1, 3960, Note_on_c, 0, 65, 48
1, 4080, Tempo, 571429
1, 4080, Note_on_c, 0, 65, 0
1, 4080, Note_on_c, 0, 67, 48
1, 4200, Tempo, 566038
1, 4200, Note_on_c, 0, 67, 0
1, 4200, Note_on_c, 0, 69, 47
1, 4320, Tempo, 576923
1, 4320, Note_on_c, 0, 69, 0
1, 4320, Note_on_c, 0, 67, 47
1, 4800, Note_on_c, 0, 60, 0
1, 4800, Note_on_c, 0, 48, 0
1, 4800, Note_on_c, 0, 41, 0
1, 4800, Note_on_c, 0, 62, 44
1, 4800, Note_on_c, 0, 53, 37
1, 4800, Note_on_c, 0, 46, 37
1, 4920, Tempo, 568720
1, 4920, Note_on_c, 0, 67, 0
1, 4920, Note_on_c, 0, 65, 48
1, 5040, Tempo, 574163
1, 5040, Note_on_c, 0, 65, 0
1, 5040, Note_on_c, 0, 67, 49
1, 5160, Tempo, 560748
1, 5160, Note_on_c, 0, 67, 0
1, 5160, Note_on_c, 0, 69, 52
1, 5280, Tempo, 574163
1, 5280, Note_on_c, 0, 69, 0
1, 5280, Note_on_c, 0, 72, 53
1, 5400, Tempo, 566038
1, 5400, Note_on_c, 0, 72, 0
1, 5400, Note_on_c, 0, 69, 53
1, 5520, Tempo, 566038
1, 5520, Note_on_c, 0, 69, 0
1, 5520, Note_on_c, 0, 67, 53
1, 5640, Tempo, 555556
1, 5640, Note_on_c, 0, 67, 0
1, 5640, Note_on_c, 0, 65, 53
1, 5760, Tempo, 585366
1, 5760, Note_on_c, 0, 65, 0
1, 5760, Note_on_c, 0, 46, 0
1, 5760, Note_on_c, 0, 57, 0
1, 5760, Note_on_c, 0, 62, 0
1, 5760, Note_on_c, 0, 53, 0
1, 5760, Note_on_c, 0, 64, 45
1, 5760, Note_on_c, 0, 67, 54
1, 5760, Note_on_c, 0, 57, 37
1, 5760, Note_on_c, 0, 48, 37
1, 5880, Tempo, 594059
1, 5880, Note_on_c, 0, 67, 0
1, 5880, Note_on_c, 0, 65, 49
1, 6000, Tempo, 585366
1, 6000, Note_on_c, 0, 65, 0
1, 6000, Note_on_c, 0, 67, 51
1, 6120, Tempo, 571429
1, 6120, Note_on_c, 0, 67, 0
1, 6120, Note_on_c, 0, 69, 49
1, 6240, Tempo, 594059
1, 6240, Note_on_c, 0, 69, 0
1, 6240, Note_on_c, 0, 67, 48
1, 6720, Note_on_c, 0, 48, 0
1, 6720, Note_on_c, 0, 64, 0
1, 6720, Note_on_c, 0, 62, 45
1, 6720, Note_on_c, 0, 50, 45
1, 6840, Tempo, 585366
1, 6840, Note_on_c, 0, 67, 0
1, 6840, Note_on_c, 0, 65, 49
1, 6960, Note_on_c, 0, 65, 0
1, 6960, Note_on_c, 0, 67, 51
1, 7080, Tempo, 571429
1, 7080, Note_on_c, 0, 67, 0
1, 7080, Note_on_c, 0, 69, 52
1, 7200, Tempo, 609137
1, 7200, Note_on_c, 0, 69, 0
1, 7200, Note_on_c, 0, 74, 56
1, 7320, Tempo, 597015
1, 7320, Note_on_c, 0, 74, 0
1, 7320, Note_on_c, 0, 69, 54
1, 7440, Note_on_c, 0, 69, 0
1, 7440, Note_on_c, 0, 67, 54
1, 7560, Note_on_c, 0, 67, 0
1, 7560, Note_on_c, 0, 65, 54
1, 7680, Tempo, 638298
1, 7680, Note_on_c, 0, 57, 0
1, 7680, Note_on_c, 0, 50, 0
1, 7680, Note_on_c, 0, 62, 0
1, 7680, Note_on_c, 0, 62, 49
1, 7680, Note_on_c, 0, 46, 41
1, 7680, Note_on_c, 0, 53, 41
1, 7680, Note_on_c, 0, 58, 41
1, 7700, Tempo, 590784
1, 7744, Control_c, 0, 64, 127
1, 7800, Tempo, 624025
1, 7800, Note_on_c, 0, 65, 0
1, 7800, Note_on_c, 0, 70, 52
1, 7920, Tempo, 606919
1, 7920, Note_on_c, 0, 70, 0
1, 7920, Note_on_c, 0, 74, 54
1, 8040, Tempo, 661157
1, 8040, Note_on_c, 0, 74, 0
1, 8040, Note_on_c, 0, 77, 57
1, 8160, Tempo, 648649
1, 8160, Note_on_c, 0, 77, 0
1, 8160, Note_on_c, 0, 58, 0
1, 8160, Note_on_c, 0, 62, 0
1, 8160, Note_on_c, 0, 46, 0
1, 8160, Note_on_c, 0, 53, 0
1, 8160, Note_on_c, 0, 74, 47
1, 8160, Note_on_c, 0, 81, 60
1, 8160, Note_on_c, 0, 58, 42
1, 8160, Note_on_c, 0, 65, 47
1, 8400, Tempo, 612245
1, 8640, Tempo, 652174
1, 8640, Note_on_c, 0, 65, 0
1, 8640, Note_on_c, 0, 74, 0
1, 8640, Note_on_c, 0, 72, 52
1, 8640, Note_on_c, 0, 64, 47
1, 8648, Control_c, 0, 64, 0
1, 8880, Tempo, 638298
1, 8880, Note_on_c, 0, 81, 0
1, 8880, Note_on_c, 0, 79, 54
1, 9120, Tempo, 625000
1, 9120, Note_on_c, 0, 79, 0
1, 9120, Note_on_c, 0, 64, 0
1, 9120, Note_on_c, 0, 77, 52
1, 9120, Note_on_c, 0, 62, 51
1, 9360, Note_on_c, 0, 62, 0
1, 9360, Note_on_c, 0, 77, 0
1, 9360, Note_on_c, 0, 79, 54
1, 9360, Note_on_c, 0, 64, 53
1, 9600, Tempo, 638366
1, 9600, Note_on_c, 0, 58, 0
1, 9600, Note_on_c, 0, 57, 53
1, 9641, Tempo, 689655
1, 9720, Tempo, 648649
1, 9720, Note_on_c, 0, 64, 0
1, 9720, Note_on_c, 0, 79, 0
1, 9720, Note_on_c, 0, 77, 49
1, 9720, Note_on_c, 0, 65, 45
1, 9840, Tempo, 631579
1, 9840, Note_on_c, 0, 65, 0
1, 9840, Note_on_c, 0, 77, 0
1, 9840, Note_on_c, 0, 76, 51
1, 9840, Note_on_c, 0, 67, 45
1, 9960, Note_on_c, 0, 67, 0
1, 9960, Note_on_c, 0, 76, 0
1, 9960, Note_on_c, 0, 79, 51
1, 9960, Note_on_c, 0, 69, 45
1, 10080, Tempo, 685714
1, 10080, Note_on_c, 0, 69, 0
1, 10080, Note_on_c, 0, 79, 0
1, 10080, Note_on_c, 0, 77, 54
1, 10080, Note_on_c, 0, 62, 45
1, 10320, Tempo, 645161
1, 10320, Note_on_c, 0, 72, 0
1, 10320, Note_on_c, 0, 70, 49
1, 10440, Tempo, 634921
1, 10440, Note_on_c, 0, 70, 0
1, 10440, Note_on_c, 0, 69, 49
1, 10560, Tempo, 652174
1, 10560, Note_on_c, 0, 69, 0
1, 10560, Note_on_c, 0, 57, 0
1, 10560, Note_on_c, 0, 70, 51
1, 10560, Note_on_c, 0, 55, 46
1, 10800, Tempo, 677966
1, 10800, Note_on_c, 0, 77, 0
1, 10800, Note_on_c, 0, 62, 0
1, 10800, Note_on_c, 0, 76, 46
1, 10800, Note_on_c, 0, 64, 45
1, 11040, Tempo, 693642
1, 11040, Note_on_c, 0, 64, 0
1, 11040, Note_on_c, 0, 76, 0
1, 11040, Note_on_c, 0, 55, 0
1, 11040, Note_on_c, 0, 74, 45
1, 11040, Note_on_c, 0, 65, 37
1, 11040, Note_on_c, 0, 48, 41
1, 11280, Note_on_c, 0, 65, 0
1, 11280, Note_on_c, 0, 74, 0
1, 11280, Note_on_c, 0, 72, 43
1, 11280, Note_on_c, 0, 64, 36
1, 11520, Tempo, 655738
1, 11520, Note_on_c, 0, 64, 0
1, 11520, Note_on_c, 0, 48, 0
1, 11520, Note_on_c, 0, 70, 0
1, 11520, Note_on_c, 0, 72, 0
1, 11520, Control_c, 0, 91, 127
1, 11520, Control_c, 0, 91, 127
1, 11521, Note_on_c, 0, 29, 89
1, 11619, Control_c, 0, 64, 127
1, 11760, Note_on_c, 0, 41, 77
1, 11761, Note_on_c, 0, 29, 0
1, 12000, Tempo, 621762
1, 12000, Note_on_c, 0, 41, 0
1, 12000, Note_on_c, 0, 48, 81
1, 12220, Note_on_c, 0, 48, 0
1, 12240, Tempo, 764331
1, 12240, Note_on_c, 0, 48, 81
1, 12480, Tempo, 839161
1, 12480, Note_on_c, 0, 74, 70
1, 12480, Note_on_c, 0, 70, 70
1, 12480, Note_on_c, 0, 79, 83
1, 12480, Note_on_c, 0, 67, 70
1, 12480, Note_on_c, 0, 62, 71
1, 12480, Note_on_c, 0, 58, 60
1, 12480, Note_on_c, 0, 55, 60
1, 12495, Control_c, 0, 64, 0
1, 12777, Control_c, 0, 64, 127
1, 13440, Tempo, 606061
1, 13440, Control_c, 0, 64, 0
1, 13560, Note_on_c, 0, 79, 0
1, 13560, Note_on_c, 0, 81, 53
1, 13680, Note_on_c, 0, 81, 0
1, 13680, Note_on_c, 0, 82, 53
1, 13800, Tempo, 579710
1, 13800, Note_on_c, 0, 82, 0
1, 13800, Note_on_c, 0, 81, 53
1, 13920, Tempo, 558140
1, 13920, Note_on_c, 0, 81, 0
1, 13920, Note_on_c, 0, 48, 0
1, 13920, Note_on_c, 0, 62, 0
1, 13920, Note_on_c, 0, 74, 0
1, 13920, Note_on_c, 0, 70, 0
1, 13920, Note_on_c, 0, 67, 0
1, 13920, Note_on_c, 0, 58, 0
1, 13920, Note_on_c, 0, 55, 0
1, 13920, Note_on_c, 0, 79, 56
1, 14040, Tempo, 540541
1, 14040, Note_on_c, 0, 79, 0
1, 14040, Note_on_c, 0, 81, 54
1, 14160, Note_on_c, 0, 81, 0
1, 14160, Note_on_c, 0, 79, 54
1, 14280, Note_on_c, 0, 79, 0
1, 14280, Note_on_c, 0, 77, 54
1, 14400, Tempo, 550459
1, 14400, Note_on_c, 0, 77, 0
1, 14400, Note_on_c, 0, 74, 57
1, 14520, Tempo, 538117
1, 14520, Note_on_c, 0, 74, 0
1, 14520, Note_on_c, 0, 77, 54
1, 14640, Note_on_c, 0, 77, 0
1, 14640, Note_on_c, 0, 74, 54
1, 14760, Note_on_c, 0, 74, 0
1, 14760, Note_on_c, 0, 72, 54
1, 14880, Tempo, 550459
1, 14880, Note_on_c, 0, 72, 0
1, 14880, Note_on_c, 0, 70, 58
1, 15000, Tempo, 538117
1, 15000, Note_on_c, 0, 70, 0
1, 15000, Note_on_c, 0, 67, 54
1, 15120, Note_on_c, 0, 67, 0
1, 15120, Note_on_c, 0, 62, 53
1, 15240, Note_on_c, 0, 62, 0
1, 15240, Note_on_c, 0, 64, 53
1, 15360, Tempo, 585366
1, 15360, Note_on_c, 0, 64, 0
1, 15360, Note_on_c, 0, 67, 51
1, 15360, Note_on_c, 0, 63, 36
1, 15360, Note_on_c, 0, 58, 43
1, 15367, Note_on_c, 0, 60, 36
1, 15480, Tempo, 579710
1, 15480, Note_on_c, 0, 67, 0
1, 15480, Note_on_c, 0, 65, 47
1, 15600, Tempo, 576923
1, 15600, Note_on_c, 0, 65, 0
1, 15600, Note_on_c, 0, 67, 48
1, 15720, Tempo, 571429
1, 15720, Note_on_c, 0, 67, 0
1, 15720, Note_on_c, 0, 69, 47
1, 15840, Tempo, 576923
1, 15840, Note_on_c, 0, 69, 0
1, 15840, Note_on_c, 0, 67, 46
1, 16320, Note_on_c, 0, 58, 0
1, 16320, Note_on_c, 0, 57, 38
1, 16440, Tempo, 566038
1, 16440, Note_on_c, 0, 67, 0
1, 16440, Note_on_c, 0, 65, 48
1, 16560, Tempo, 574163
1, 16560, Note_on_c, 0, 65, 0
1, 16560, Note_on_c, 0, 67, 49
1, 16680, Tempo, 566038
1, 16680, Note_on_c, 0, 67, 0
1, 16680, Note_on_c, 0, 69, 52
1, 16800, Tempo, 576923
1, 16800, Note_on_c, 0, 69, 0
1, 16800, Note_on_c, 0, 72, 53
1, 16920, Tempo, 568720
1, 16920, Note_on_c, 0, 72, 0
1, 16920, Note_on_c, 0, 69, 53
1, 17040, Tempo, 568720
1, 17040, Note_on_c, 0, 69, 0
1, 17040, Note_on_c, 0, 67, 53
1, 17160, Tempo, 560748
1, 17160, Note_on_c, 0, 67, 0
1, 17160, Note_on_c, 0, 65, 53
1, 17280, Tempo, 585366
1, 17280, Note_on_c, 0, 65, 0
1, 17280, Note_on_c, 0, 57, 0
1, 17280, Note_on_c, 0, 63, 0
1, 17280, Note_on_c, 0, 67, 52
1, 17280, Note_on_c, 0, 62, 41
1, 17280, Note_on_c, 0, 58, 35
1, 17280, Note_on_c, 0, 51, 35
1, 17287, Note_on_c, 0, 60, 0
1, 17400, Tempo, 594059
1, 17400, Note_on_c, 0, 67, 0
1, 17400, Note_on_c, 0, 65, 49
1, 17520, Tempo, 585366
1, 17520, Note_on_c, 0, 65, 0
1, 17520, Note_on_c, 0, 67, 51
1, 17640, Tempo, 579710
1, 17640, Note_on_c, 0, 67, 0
1, 17640, Note_on_c, 0, 69, 49
1, 17760, Tempo, 594059
1, 17760, Note_on_c, 0, 69, 0
1, 17760, Note_on_c, 0, 67, 48
1, 18240, Note_on_c, 0, 51, 0
1, 18240, Note_on_c, 0, 58, 0
1, 18240, Note_on_c, 0, 62, 0
1, 18240, Note_on_c, 0, 63, 45
1, 18240, Note_on_c, 0, 41, 32
1, 18240, Note_on_c, 0, 48, 32
1, 18240, Note_on_c, 0, 57, 38
1, 18360, Tempo, 585366
1, 18360, Note_on_c, 0, 67, 0
1, 18360, Note_on_c, 0, 65, 49
1, 18480, Note_on_c, 0, 65, 0
1, 18480, Note_on_c, 0, 67, 51
1, 18600, Tempo, 571429
1, 18600, Note_on_c, 0, 67, 0
1, 18600, Note_on_c, 0, 69, 52
1, 18720, Tempo, 609137
1, 18720, Note_on_c, 0, 69, 0
1, 18720, Note_on_c, 0, 74, 56
1, 18840, Tempo, 597015
1, 18840, Note_on_c, 0, 74, 0
1, 18840, Note_on_c, 0, 69, 54
1, 18960, Note_on_c, 0, 69, 0
1, 18960, Note_on_c, 0, 67, 54
1, 19080, Note_on_c, 0, 67, 0
1, 19080, Note_on_c, 0, 65, 54
1, 19200, Tempo, 681818
1, 19200, Note_on_c, 0, 65, 0
1, 19200, Note_on_c, 0, 57, 0
1, 19200, Note_on_c, 0, 63, 0
1, 19200, Note_on_c, 0, 41, 0
1, 19200, Note_on_c, 0, 48, 0
1, 19200, Control_c, 0, 64, 127
1, 19200, Note_on_c, 0, 34, 72
1, 19200, Note_on_c, 0, 46, 72
1, 19440, Tempo, 727273
1, 19440, Note_on_c, 0, 46, 0
1, 19440, Note_on_c, 0, 34, 0
1, 19440, Note_on_c, 0, 53, 72
1, 19680, Note_on_c, 0, 53, 0
1, 19680, Note_on_c, 0, 74, 53
1, 19680, Note_on_c, 0, 77, 63
1, 19680, Note_on_c, 0, 62, 42
1, 19680, Note_on_c, 0, 65, 50
1, 20160, Tempo, 600000
1, 20400, Tempo, 588235
1, 20400, Note_on_c, 0, 65, 0
1, 20400, Note_on_c, 0, 74, 0
1, 20400, Note_on_c, 0, 77, 0
1, 20400, Note_on_c, 0, 62, 0
1, 20400, Note_on_c, 0, 72, 51
1, 20400, Note_on_c, 0, 76, 60
1, 20400, Note_on_c, 0, 64, 37
1, 20400, Note_on_c, 0, 67, 44
1, 20421, Control_c, 0, 64, 0
1, 20520, Note_on_c, 0, 67, 0
1, 20520, Note_on_c, 0, 72, 0
1, 20520, Note_on_c, 0, 76, 0
1, 20520, Note_on_c, 0, 64, 0
1, 20520, Note_on_c, 0, 74, 50
1, 20520, Note_on_c, 0, 77, 59
1, 20520, Note_on_c, 0, 65, 36
1, 20520, Note_on_c, 0, 69, 43
1, 20640, Tempo, 600000
1, 20640, Note_on_c, 0, 69, 0
1, 20640, Note_on_c, 0, 74, 0
1, 20640, Note_on_c, 0, 77, 0
1, 20640, Note_on_c, 0, 65, 0
1, 20640, Note_on_c, 0, 72, 54
1, 20640, Note_on_c, 0, 76, 64
1, 20640, Note_on_c, 0, 64, 41
1, 20640, Note_on_c, 0, 67, 49
1, 20880, Tempo, 588235
1, 20880, Note_on_c, 0, 67, 0
1, 20880, Note_on_c, 0, 72, 0
1, 20880, Note_on_c, 0, 76, 0
1, 20880, Note_on_c, 0, 64, 0
1, 20880, Note_on_c, 0, 74, 55
1, 20880, Note_on_c, 0, 70, 46
1, 20880, Note_on_c, 0, 62, 35
1, 20880, Note_on_c, 0, 65, 42
1, 21000, Note_on_c, 0, 65, 0
1, 21000, Note_on_c, 0, 74, 0
1, 21000, Note_on_c, 0, 70, 0
1, 21000, Note_on_c, 0, 62, 0
1, 21000, Note_on_c, 0, 76, 54
1, 21000, Note_on_c, 0, 72, 46
1, 21000, Note_on_c, 0, 64, 35
1, 21000, Note_on_c, 0, 67, 42
1, 21120, Note_on_c, 0, 67, 0
1, 21120, Note_on_c, 0, 76, 0
1, 21120, Note_on_c, 0, 72, 0
1, 21120, Note_on_c, 0, 64, 0
1, 21120, Note_on_c, 0, 74, 62
1, 21120, Note_on_c, 0, 70, 52
1, 21120, Note_on_c, 0, 62, 40
1, 21120, Note_on_c, 0, 65, 47
1, 21355, Note_on_c, 0, 65, 0
1, 21355, Note_on_c, 0, 74, 0
1, 21355, Note_on_c, 0, 70, 0
1, 21355, Note_on_c, 0, 62, 0
1, 21360, Tempo, 597015
1, 21360, Note_on_c, 0, 72, 56
1, 21360, Note_on_c, 0, 67, 47
1, 21360, Note_on_c, 0, 60, 37
1, 21360, Note_on_c, 0, 64, 44
1, 21576, Note_on_c, 0, 64, 0
1, 21576, Note_on_c, 0, 72, 0
1, 21576, Note_on_c, 0, 67, 0
1, 21576, Note_on_c, 0, 60, 0
1, 21600, Note_on_c, 0, 72, 57
1, 21600, Note_on_c, 0, 67, 47
1, 21600, Note_on_c, 0, 60, 38
1, 21600, Note_on_c, 0, 64, 45
1, 21820, Note_on_c, 0, 64, 0
1, 21820, Note_on_c, 0, 72, 0
1, 21820, Note_on_c, 0, 67, 0
1, 21820, Note_on_c, 0, 60, 0
1, 21840, Tempo, 612245
1, 21840, Note_on_c, 0, 74, 58
1, 21840, Note_on_c, 0, 70, 49
1, 21840, Note_on_c, 0, 58, 38
1, 21840, Note_on_c, 0, 65, 45
1, 22080, Note_on_c, 0, 65, 0
1, 22080, Note_on_c, 0, 74, 0
1, 22080, Note_on_c, 0, 70, 0
1, 22080, Note_on_c, 0, 58, 0
1, 22080, Note_on_c, 0, 72, 48
1, 22080, Note_on_c, 0, 69, 48
1, 22080, Note_on_c, 0, 76, 58
1, 22080, Note_on_c, 0, 64, 44
1, 22080, Note_on_c, 0, 60, 37
1, 22080, Note_on_c, 0, 57, 37
1, 22310, Note_on_c, 0, 57, 0
1, 22310, Note_on_c, 0, 69, 0
1, 22310, Note_on_c, 0, 76, 0
1, 22310, Note_on_c, 0, 72, 0
1, 22310, Note_on_c, 0, 60, 0
1, 22310, Note_on_c, 0, 64, 0
1, 22320, Tempo, 625000
1, 22320, Note_on_c, 0, 74, 52
1, 22320, Note_on_c, 0, 79, 62
1, 22320, Note_on_c, 0, 70, 52
1, 22320, Note_on_c, 0, 55, 39
1, 22320, Note_on_c, 0, 58, 39
1, 22320, Note_on_c, 0, 62, 46
1, 22536, Note_on_c, 0, 62, 0
1, 22536, Note_on_c, 0, 79, 0
1, 22536, Note_on_c, 0, 70, 0
1, 22536, Note_on_c, 0, 74, 0
1, 22536, Note_on_c, 0, 58, 0
1, 22536, Note_on_c, 0, 55, 0
1, 22560, Tempo, 634921
1, 22560, Note_on_c, 0, 74, 55
1, 22560, Note_on_c, 0, 79, 65
1, 22560, Note_on_c, 0, 70, 55
1, 22560, Note_on_c, 0, 55, 43
1, 22560, Note_on_c, 0, 58, 43
1, 22560, Note_on_c, 0, 62, 50
1, 22800, Tempo, 645161
1, 22800, Note_on_c, 0, 62, 0
1, 22800, Note_on_c, 0, 79, 0
1, 22800, Note_on_c, 0, 70, 0
1, 22800, Note_on_c, 0, 74, 0
1, 22800, Note_on_c, 0, 58, 0
1, 22800, Note_on_c, 0, 55, 0
1, 22800, Note_on_c, 0, 69, 54
1, 22800, Note_on_c, 0, 73, 54
1, 22800, Note_on_c, 0, 81, 64
1, 22800, Note_on_c, 0, 53, 40
1, 22800, Note_on_c, 0, 57, 40
1, 22800, Note_on_c, 0, 61, 48
1, 23040, Tempo, 701754
1, 23040, Note_on_c, 0, 61, 0
1, 23040, Note_on_c, 0, 73, 0
1, 23040, Note_on_c, 0, 81, 0
1, 23040, Note_on_c, 0, 69, 0
1, 23040, Note_on_c, 0, 57, 0
1, 23040, Note_on_c, 0, 53, 0
1, 23040, Note_on_c, 0, 34, 61
1, 23040, Note_on_c, 0, 46, 72
1, 23104, Control_c, 0, 64, 127
1, 23280, Tempo, 727273
1, 23280, Note_on_c, 0, 46, 0
1, 23280, Note_on_c, 0, 34, 0
1, 23280, Note_on_c, 0, 53, 72
1, 23520, Note_on_c, 0, 53, 0
1, 23520, Note_on_c, 0, 74, 53
1, 23520, Note_on_c, 0, 77, 63
1, 23520, Note_on_c, 0, 62, 45
1, 23520, Note_on_c, 0, 65, 53
1, 24000, Tempo, 600000
1, 24226, Control_c, 0, 64, 0
1, 24240, Tempo, 588235
1, 24240, Note_on_c, 0, 65, 0
1, 24240, Note_on_c, 0, 74, 0
1, 24240, Note_on_c, 0, 77, 0
1, 24240, Note_on_c, 0, 62, 0
1, 24240, Note_on_c, 0, 72, 51
1, 24240, Note_on_c, 0, 76, 60
1, 24240, Note_on_c, 0, 64, 40
1, 24240, Note_on_c, 0, 67, 47
1, 24360, Note_on_c, 0, 67, 0
1, 24360, Note_on_c, 0, 72, 0
1, 24360, Note_on_c, 0, 76, 0
1, 24360, Note_on_c, 0, 64, 0
1, 24360, Note_on_c, 0, 74, 50
1, 24360, Note_on_c, 0, 77, 59
1, 24360, Note_on_c, 0, 65, 39
1, 24360, Note_on_c, 0, 69, 46
1, 24480, Tempo, 600000
1, 24480, Note_on_c, 0, 69, 0
1, 24480, Note_on_c, 0, 74, 0
1, 24480, Note_on_c, 0, 77, 0
1, 24480, Note_on_c, 0, 65, 0
1, 24480, Note_on_c, 0, 72, 54
1, 24480, Note_on_c, 0, 76, 64
1, 24480, Note_on_c, 0, 64, 43
1, 24480, Note_on_c, 0, 67, 51
1, 24720, Tempo, 588235
1, 24720, Note_on_c, 0, 67, 0
1, 24720, Note_on_c, 0, 72, 0
1, 24720, Note_on_c, 0, 76, 0
1, 24720, Note_on_c, 0, 64, 0
1, 24720, Note_on_c, 0, 70, 46
1, 24720, Note_on_c, 0, 74, 55
1, 24720, Note_on_c, 0, 62, 39
1, 24720, Note_on_c, 0, 65, 46
1, 24840, Note_on_c, 0, 65, 0
1, 24840, Note_on_c, 0, 70, 0
1, 24840, Note_on_c, 0, 74, 0
1, 24840, Note_on_c, 0, 62, 0
1, 24840, Note_on_c, 0, 72, 46
1, 24840, Note_on_c, 0, 76, 56
1, 24840, Note_on_c, 0, 64, 39
1, 24840, Note_on_c, 0, 67, 46
1, 24960, Note_on_c, 0, 67, 0
1, 24960, Note_on_c, 0, 72, 0
1, 24960, Note_on_c, 0, 76, 0
1, 24960, Note_on_c, 0, 64, 0
1, 24960, Note_on_c, 0, 74, 62
1, 24960, Note_on_c, 0, 70, 52
1, 24960, Note_on_c, 0, 62, 42
1, 24960, Note_on_c, 0, 65, 51
1, 25195, Note_on_c, 0, 65, 0
1, 25195, Note_on_c, 0, 74, 0
1, 25195, Note_on_c, 0, 70, 0
1, 25195, Note_on_c, 0, 62, 0
1, 25200, Tempo, 606061
1, 25200, Note_on_c, 0, 72, 56
1, 25200, Note_on_c, 0, 67, 47
1, 25200, Note_on_c, 0, 60, 40
1, 25200, Note_on_c, 0, 64, 47
1, 25416, Note_on_c, 0, 64, 0
1, 25416, Note_on_c, 0, 72, 0
1, 25416, Note_on_c, 0, 67, 0
1, 25416, Note_on_c, 0, 60, 0
1, 25440, Note_on_c, 0, 72, 57
1, 25440, Note_on_c, 0, 67, 47
1, 25440, Note_on_c, 0, 60, 40
1, 25440, Note_on_c, 0, 64, 47
1, 25660, Note_on_c, 0, 64, 0
1, 25660, Note_on_c, 0, 72, 0
1, 25660, Note_on_c, 0, 67, 0
1, 25660, Note_on_c, 0, 60, 0
1, 25680, Tempo, 625000
1, 25680, Note_on_c, 0, 74, 61
1, 25680, Note_on_c, 0, 70, 51
1, 25680, Note_on_c, 0, 58, 40
1, 25680, Note_on_c, 0, 65, 48
1, 25920, Note_on_c, 0, 65, 0
1, 25920, Note_on_c, 0, 74, 0
1, 25920, Note_on_c, 0, 70, 0
1, 25920, Note_on_c, 0, 58, 0
1, 25920, Note_on_c, 0, 72, 52
1, 25920, Note_on_c, 0, 69, 52
1, 25920, Note_on_c, 0, 76, 61
1, 25920, Note_on_c, 0, 64, 48
1, 25920, Note_on_c, 0, 60, 41
1, 25920, Note_on_c, 0, 57, 41
1, 26150, Note_on_c, 0, 57, 0
1, 26150, Note_on_c, 0, 69, 0
1, 26150, Note_on_c, 0, 76, 0
1, 26150, Note_on_c, 0, 72, 0
1, 26150, Note_on_c, 0, 60, 0
1, 26150, Note_on_c, 0, 64, 0
1, 26160, Tempo, 655738
1, 26160, Note_on_c, 0, 79, 63
1, 26160, Note_on_c, 0, 70, 53
1, 26160, Note_on_c, 0, 74, 53
1, 26160, Note_on_c, 0, 55, 41
1, 26160, Note_on_c, 0, 58, 41
1, 26160, Note_on_c, 0, 62, 48
1, 26376, Note_on_c, 0, 62, 0
1, 26376, Note_on_c, 0, 70, 0
1, 26376, Note_on_c, 0, 74, 0
1, 26376, Note_on_c, 0, 79, 0
1, 26376, Note_on_c, 0, 58, 0
1, 26376, Note_on_c, 0, 55, 0
1, 26400, Tempo, 674157
1, 26400, Note_on_c, 0, 79, 66
1, 26400, Note_on_c, 0, 74, 55
1, 26400, Note_on_c, 0, 70, 55
1, 26400, Note_on_c, 0, 55, 45
1, 26400, Note_on_c, 0, 58, 45
1, 26400, Note_on_c, 0, 62, 55
1, 26640, Tempo, 784314
1, 26640, Note_on_c, 0, 62, 0
1, 26640, Note_on_c, 0, 74, 0
1, 26640, Note_on_c, 0, 70, 0
1, 26640, Note_on_c, 0, 79, 0
1, 26640, Note_on_c, 0, 58, 0
1, 26640, Note_on_c, 0, 55, 0
1, 26640, Note_on_c, 0, 69, 53
1, 26640, Note_on_c, 0, 73, 53
1, 26640, Note_on_c, 0, 81, 63
1, 26640, Note_on_c, 0, 53, 44
1, 26640, Note_on_c, 0, 57, 44
1, 26640, Note_on_c, 0, 61, 53
1, 26880, Tempo, 810811
1, 26880, Note_on_c, 0, 61, 0
1, 26880, Note_on_c, 0, 73, 0
1, 26880, Note_on_c, 0, 81, 0
1, 26880, Note_on_c, 0, 69, 0
1, 26880, Note_on_c, 0, 57, 0
1, 26880, Note_on_c, 0, 53, 0
1, 26880, Note_on_c, 0, 31, 53
1, 26880, Note_on_c, 0, 43, 58
1, 26929, Control_c, 0, 64, 127
1, 27080, Note_on_c, 0, 43, 0
1, 27080, Note_on_c, 0, 31, 0
1, 27120, Tempo, 662983
1, 27120, Note_on_c, 0, 74, 45
1, 27120, Note_on_c, 0, 84, 62
1, 27120, Note_on_c, 0, 77, 45
1, 27120, Note_on_c, 0, 53, 37
1, 27360, Tempo, 631579
1, 27360, Note_on_c, 0, 53, 0
1, 27360, Note_on_c, 0, 84, 0
1, 27360, Note_on_c, 0, 82, 57
1, 27360, Note_on_c, 0, 55, 37
1, 27374, Control_c, 0, 64, 0
1, 27480, Note_on_c, 0, 82, 0
1, 27480, Note_on_c, 0, 81, 54
1, 27600, Tempo, 648649
1, 27600, Note_on_c, 0, 81, 0
1, 27600, Note_on_c, 0, 55, 0
1, 27600, Note_on_c, 0, 79, 57
1, 27600, Note_on_c, 0, 58, 37
1, 27840, Tempo, 641711
1, 27840, Note_on_c, 0, 58, 0
1, 27840, Note_on_c, 0, 74, 0
1, 27840, Note_on_c, 0, 77, 0
1, 27840, Note_on_c, 0, 62, 39
1, 27960, Tempo, 631579
1, 27960, Note_on_c, 0, 79, 0
1, 27960, Note_on_c, 0, 77, 54
1, 28080, Tempo, 618557
1, 28080, Note_on_c, 0, 77, 0
1, 28080, Note_on_c, 0, 62, 0
1, 28080, Note_on_c, 0, 79, 52
1, 28080, Note_on_c, 0, 65, 36
1, 28200, Note_on_c, 0, 79, 0
1, 28200, Note_on_c, 0, 81, 52
1, 28320, Tempo, 645161
1, 28320, Note_on_c, 0, 81, 0
1, 28320, Note_on_c, 0, 65, 0
1, 28320, Note_on_c, 0, 76, 57
1, 28320, Note_on_c, 0, 70, 45
1, 28320, Note_on_c, 0, 67, 36
1, 28560, Tempo, 659341
1, 28560, Note_on_c, 0, 67, 0
1, 28560, Note_on_c, 0, 76, 0
1, 28560, Note_on_c, 0, 74, 54
1, 28560, Note_on_c, 0, 65, 36
1, 28798, Note_on_c, 0, 65, 0
1, 28800, Tempo, 685714
1, 28800, Note_on_c, 0, 74, 0
1, 28800, Note_on_c, 0, 70, 0
1, 28800, Note_on_c, 0, 65, 56
1, 28839, Control_c, 0, 64, 127
1, 29040, Tempo, 652174
1, 29040, Note_on_c, 0, 72, 53
1, 29040, Note_on_c, 0, 64, 48
1, 29280, Tempo, 631579
1, 29280, Note_on_c, 0, 64, 0
1, 29280, Note_on_c, 0, 72, 0
1, 29280, Note_on_c, 0, 70, 52
1, 29280, Note_on_c, 0, 62, 46
1, 29288, Control_c, 0, 64, 0
1, 29400, Note_on_c, 0, 62, 0
1, 29400, Note_on_c, 0, 70, 0
1, 29400, Note_on_c, 0, 69, 52
1, 29400, Note_on_c, 0, 60, 46
1, 29520, Note_on_c, 0, 60, 0
1, 29520, Note_on_c, 0, 69, 0
1, 29520, Note_on_c, 0, 65, 0
1, 29520, Note_on_c, 0, 67, 54
1, 29520, Note_on_c, 0, 62, 54
1, 29520, Note_on_c, 0, 58, 48
1, 29640, Note_on_c, 0, 67, 0
1, 29640, Note_on_c, 0, 65, 52
1, 29760, Tempo, 615385
1, 29760, Note_on_c, 0, 65, 0
1, 29760, Note_on_c, 0, 58, 0
1, 29760, Note_on_c, 0, 67, 53
1, 29760, Note_on_c, 0, 57, 49
1, 29880, Tempo, 681818
1, 29880, Note_on_c, 0, 67, 0
1, 29880, Note_on_c, 0, 69, 53
1, 29980, Note_on_c, 0, 69, 0
1, 29980, Note_on_c, 0, 57, 0
1, 30000, Tempo, 641711
1, 30000, Note_on_c, 0, 62, 0
1, 30000, Note_on_c, 0, 58, 56
1, 30000, Note_on_c, 0, 64, 66
1, 30000, Note_on_c, 0, 55, 58
1, 30220, Note_on_c, 0, 55, 0
1, 30220, Note_on_c, 0, 64, 0
1, 30240, Tempo, 652174
1, 30240, Note_on_c, 0, 62, 63
1, 30240, Note_on_c, 0, 53, 56
1, 30261, Control_c, 0, 64, 127
1, 30460, Note_on_c, 0, 53, 0
1, 30460, Note_on_c, 0, 62, 0
1, 30480, Note_on_c, 0, 65, 68
1, 30480, Note_on_c, 0, 50, 58
1, 30660, Control_c, 0, 64, 0
1, 30680, Note_on_c, 0, 50, 0
1, 30680, Note_on_c, 0, 65, 0
1, 30720, Note_on_c, 0, 58, 0
1, 30960, Tempo, 693642
1, 30960, Note_on_c, 0, 60, 61
1, 30960, Note_on_c, 0, 52, 51
1, 30960, Note_on_c, 0, 57, 51
1, 30960, Note_on_c, 0, 33, 48
1, 30960, Note_on_c, 0, 45, 57
1, 31080, Note_on_c, 0, 45, 0
1, 31080, Note_on_c, 0, 57, 0
1, 31080, Note_on_c, 0, 60, 0
1, 31080, Note_on_c, 0, 52, 0
1, 31080, Note_on_c, 0, 33, 0
1, 31200, Note_on_c, 0, 57, 59
1, 31200, Note_on_c, 0, 50, 50
1, 31200, Note_on_c, 0, 53, 50
1, 31200, Note_on_c, 0, 34, 47
1, 31200, Note_on_c, 0, 46, 56
1, 31320, Note_on_c, 0, 46, 0
1, 31320, Note_on_c, 0, 53, 0
1, 31320, Note_on_c, 0, 57, 0
1, 31320, Note_on_c, 0, 50, 0
1, 31320, Note_on_c, 0, 34, 0
1, 31440, Note_on_c, 0, 55, 51
1, 31440, Note_on_c, 0, 60, 61
1, 31440, Note_on_c, 0, 52, 51
1, 31440, Note_on_c, 0, 36, 48
1, 31440, Note_on_c, 0, 48, 57
1, 31560, Note_on_c, 0, 48, 0
1, 31560, Note_on_c, 0, 52, 0
1, 31560, Note_on_c, 0, 55, 0
1, 31560, Note_on_c, 0, 60, 0
1, 31560, Note_on_c, 0, 36, 0
1, 31680, Tempo, 638298
1, 31920, Note_on_c, 0, 57, 53
1, 31920, Note_on_c, 0, 60, 63
1, 31920, Note_on_c, 0, 52, 63
1, 31920, Note_on_c, 0, 45, 53
1, 31966, Control_c, 0, 64, 127
1, 32000, Note_on_c, 0, 60, 0
1, 32000, Note_on_c, 0, 62, 63
1, 32080, Note_on_c, 0, 62, 0
1, 32080, Note_on_c, 0, 60, 63
1, 32160, Tempo, 628272
1, 32160, Note_on_c, 0, 60, 0
1, 32160, Note_on_c, 0, 57, 0
1, 32160, Note_on_c, 0, 52, 0
1, 32160, Note_on_c, 0, 45, 0
1, 32160, Note_on_c, 0, 53, 55
1, 32160, Note_on_c, 0, 57, 66
1, 32160, Note_on_c, 0, 50, 63
1, 32178, Control_c, 0, 64, 0
1, 32400, Note_on_c, 0, 50, 0
1, 32400, Note_on_c, 0, 57, 0
1, 32400, Note_on_c, 0, 53, 0
1, 32400, Note_on_c, 0, 55, 55
1, 32400, Note_on_c, 0, 60, 66
1, 32400, Note_on_c, 0, 48, 53
1, 32400, Note_on_c, 0, 52, 63
1, 32640, Tempo, 677966
1, 32640, Note_on_c, 0, 52, 0
1, 32640, Note_on_c, 0, 55, 0
1, 32640, Note_on_c, 0, 60, 0
1, 32640, Note_on_c, 0, 48, 0
1, 32640, Note_on_c, 0, 62, 59
1, 32640, Note_on_c, 0, 58, 50
1, 32640, Note_on_c, 0, 46, 47
1, 32640, Note_on_c, 0, 53, 56
1, 32880, Tempo, 701754
1, 32880, Note_on_c, 0, 53, 0
1, 32880, Note_on_c, 0, 62, 0
1, 32880, Note_on_c, 0, 58, 0
1, 32880, Note_on_c, 0, 46, 0
1, 32880, Note_on_c, 0, 65, 57
1, 32880, Note_on_c, 0, 60, 48
1, 32880, Note_on_c, 0, 45, 45
1, 32880, Note_on_c, 0, 57, 53
1, 33120, Note_on_c, 0, 57, 0
1, 33120, Note_on_c, 0, 65, 0
1, 33120, Note_on_c, 0, 60, 0
1, 33120, Note_on_c, 0, 45, 0
1, 33120, Note_on_c, 0, 67, 54
1, 33120, Note_on_c, 0, 62, 45
1, 33120, Note_on_c, 0, 43, 43
1, 33120, Note_on_c, 0, 50, 43
1, 33120, Note_on_c, 0, 58, 51
1, 33251, Control_c, 0, 64, 127
1, 33840, Tempo, 727273
1, 33840, Note_on_c, 0, 67, 0
1, 33840, Note_on_c, 0, 67, 49
1, 33920, Note_on_c, 0, 67, 0
1, 33920, Note_on_c, 0, 69, 49
1, 34000, Note_on_c, 0, 69, 0
1, 34000, Note_on_c, 0, 67, 49
1, 34080, Tempo, 774194
1, 34080, Note_on_c, 0, 67, 0
1, 34080, Note_on_c, 0, 58, 0
1, 34080, Note_on_c, 0, 62, 0
1, 34080, Note_on_c, 0, 43, 0
1, 34080, Note_on_c, 0, 50, 0
1, 34080, Note_on_c, 0, 62, 45
1, 34080, Note_on_c, 0, 65, 54
1, 34080, Note_on_c, 0, 48, 40
1, 34080, Note_on_c, 0, 58, 46
1, 34105, Control_c, 0, 64, 0
1, 34320, Tempo, 833333
1, 34320, Note_on_c, 0, 65, 0
1, 34320, Note_on_c, 0, 64, 51
1, 34560, Tempo, 816327
1, 34560, Note_on_c, 0, 64, 0
1, 34560, Note_on_c, 0, 58, 0
1, 34560, Note_on_c, 0, 48, 0
1, 34560, Note_on_c, 0, 62, 0
1, 34560, Note_on_c, 0, 58, 43
1, 34560, Note_on_c, 0, 65, 51
1, 34560, Note_on_c, 0, 62, 43
1, 34560, Note_on_c, 0, 41, 51
1, 34560, Note_on_c, 0, 29, 40
1, 34606, Control_c, 0, 64, 127
1, 34800, Note_on_c, 0, 41, 0
1, 34800, Note_on_c, 0, 48, 46
1, 35040, Tempo, 800000
1, 35040, Note_on_c, 0, 62, 0
1, 35040, Note_on_c, 0, 58, 0
1, 35040, Note_on_c, 0, 60, 39
1, 35040, Note_on_c, 0, 57, 33
1, 35280, Tempo, 895522
1, 35280, Note_on_c, 0, 57, 0
1, 35280, Note_on_c, 0, 48, 0
1, 35280, Note_on_c, 0, 60, 0
1, 35280, Note_on_c, 0, 58, 36
1, 35280, Note_on_c, 0, 55, 30
1, 35280, Note_on_c, 0, 53, 42
1, 35520, Tempo, 851064
1, 35520, Note_on_c, 0, 55, 0
1, 35520, Note_on_c, 0, 58, 0
1, 35520, Note_on_c, 0, 60, 33
1, 35520, Note_on_c, 0, 57, 27
1, 35545, Control_c, 0, 64, 0
1, 35605, Control_c, 0, 64, 127
1, 35758, Note_on_c, 0, 60, 0
1, 35760, Note_on_c, 0, 53, 0
1, 35760, Note_on_c, 0, 60, 33
1, 36000, Tempo, 944882
1, 36000, Note_on_c, 0, 65, 0
1, 36240, Tempo, 1081081
1, 36240, Note_on_c, 0, 60, 0
1, 36240, Note_on_c, 0, 65, 30
1, 36266, Control_c, 0, 64, 0
1, 36400, Note_on_c, 0, 65, 0
1, 36420, Control_c, 0, 64, 127
1, 36420, Note_on_c, 0, 57, 28
1, 36450, Note_on_c, 0, 64, 28
1, 36480, Tempo, 895522
1, 36480, Note_on_c, 0, 29, 0
1, 36480, Note_on_c, 0, 57, 0
1, 36480, Note_on_c, 0, 88, 48
1, 36480, Note_on_c, 0, 76, 33
1, 36480, Note_on_c, 0, 72, 33
1, 36720, Note_on_c, 0, 88, 0
1, 36720, Note_on_c, 0, 83, 43
1, 37200, Tempo, 740741
1, 37200, Note_on_c, 0, 83, 0
1, 37200, Note_on_c, 0, 81, 45
1, 37680, Note_on_c, 0, 81, 0
1, 37680, Note_on_c, 0, 76, 42
1, 37920, Tempo, 727273
1, 37920, Note_on_c, 0, 76, 0
1, 37920, Note_on_c, 0, 72, 0
1, 37920, Note_on_c, 0, 64, 0
1, 37920, Note_on_c, 0, 57, 0
1, 37920, Note_on_c, 0, 76, 0
1, 37920, Note_on_c, 0, 65, 32
1, 37920, Note_on_c, 0, 71, 39
1, 37920, Note_on_c, 0, 57, 33
1, 37920, Note_on_c, 0, 50, 31
1, 37929, Control_c, 0, 64, 0
1, 37966, Control_c, 0, 64, 127
1, 37980, Note_on_c, 0, 71, 0
1, 37980, Note_on_c, 0, 69, 39
1, 38040, Note_on_c, 0, 69, 0
1, 38040, Note_on_c, 0, 71, 39
1, 38100, Note_on_c, 0, 71, 0
1, 38100, Note_on_c, 0, 74, 39
1, 38160, Note_on_c, 0, 74, 0
1, 38160, Note_on_c, 0, 50, 0
1, 38160, Note_on_c, 0, 57, 0
1, 38160, Note_on_c, 0, 65, 0
1, 38160, Note_on_c, 0, 83, 37
1, 38160, Note_on_c, 0, 81, 37
1, 38160, Note_on_c, 0, 77, 37
1, 38400, Tempo, 895522
1, 38400, Note_on_c, 0, 77, 0
1, 38400, Note_on_c, 0, 81, 0
1, 38400, Note_on_c, 0, 83, 0
1, 38400, Note_on_c, 0, 88, 48
1, 38400, Note_on_c, 0, 76, 33
1, 38400, Control_c, 0, 64, 0
1, 38400, Note_on_c, 0, 57, 27
1, 38400, Note_on_c, 0, 64, 27
1, 38400, Note_on_c, 0, 72, 33
1, 38583, Control_c, 0, 64, 127
1, 38640, Tempo, 810811
1, 38640, Note_on_c, 0, 88, 0
1, 38640, Note_on_c, 0, 83, 43
1, 39120, Tempo, 740741
1, 39120, Note_on_c, 0, 83, 0
1, 39120, Note_on_c, 0, 81, 45
1, 39600, Note_on_c, 0, 81, 0
1, 39600, Note_on_c, 0, 76, 42
1, 39840, Tempo, 727273
1, 39840, Note_on_c, 0, 76, 0
1, 39840, Note_on_c, 0, 72, 0
1, 39840, Note_on_c, 0, 76, 0
1, 39840, Note_on_c, 0, 57, 0
1, 39840, Note_on_c, 0, 64, 0
1, 39840, Note_on_c, 0, 65, 39
1, 39840, Note_on_c, 0, 71, 39
1, 39840, Note_on_c, 0, 60, 33
1, 39840, Note_on_c, 0, 50, 27
1, 39852, Control_c, 0, 64, 0
1, 40080, Note_on_c, 0, 71, 0
1, 40080, Note_on_c, 0, 69, 39
1, 40320, Tempo, 722892
1, 40320, Note_on_c, 0, 65, 0
1, 40320, Note_on_c, 0, 50, 0
1, 40320, Note_on_c, 0, 60, 0
1, 40320, Note_on_c, 0, 43, 29
1, 40320, Note_on_c, 0, 50, 29
1, 40320, Note_on_c, 0, 59, 35
1, 40360, Tempo, 727273
1, 40360, Control_c, 0, 64, 127
1, 40380, Tempo, 731707
1, 40380, Note_on_c, 0, 69, 0
1, 40380, Note_on_c, 0, 71, 35
1, 40420, Tempo, 736196
1, 40440, Tempo, 740741
1, 40440, Note_on_c, 0, 71, 0
1, 40440, Note_on_c, 0, 69, 37
1, 40480, Tempo, 745342
1, 40500, Tempo, 750000
1, 40500, Note_on_c, 0, 69, 0
1, 40500, Note_on_c, 0, 67, 39
1, 40540, Tempo, 754717
1, 40560, Tempo, 759494
1, 40560, Note_on_c, 0, 67, 0
1, 40560, Note_on_c, 0, 59, 0
1, 40560, Note_on_c, 0, 50, 0
1, 40560, Note_on_c, 0, 43, 0
1, 40560, Note_on_c, 0, 60, 30
1, 40560, Note_on_c, 0, 64, 36
1, 40560, Note_on_c, 0, 48, 35
1, 40560, Note_on_c, 0, 55, 41
1, 40566, Control_c, 0, 64, 0
1, 40800, Tempo, 819896
1, 41040, Note_on_c, 0, 55, 0
1, 41040, Note_on_c, 0, 60, 0
1, 41040, Note_on_c, 0, 64, 0
1, 41040, Note_on_c, 0, 48, 0
1, 41040, Note_on_c, 0, 57, 32
1, 41040, Note_on_c, 0, 62, 38
1, 41040, Note_on_c, 0, 41, 31
1, 41040, Note_on_c, 0, 48, 37
1, 41280, Tempo, 794702
1, 41520, Tempo, 745342
1, 41520, Note_on_c, 0, 41, 0
1, 41520, Note_on_c, 0, 62, 0
1, 41520, Note_on_c, 0, 64, 41
1, 41520, Note_on_c, 0, 40, 35
1, 41760, Tempo, 722892
1, 41760, Note_on_c, 0, 40, 0
1, 41760, Note_on_c, 0, 64, 0
1, 41760, Note_on_c, 0, 65, 45
1, 41760, Note_on_c, 0, 38, 35
1, 41789, Control_c, 0, 64, 127
1, 42000, Tempo, 769231
1, 42000, Note_on_c, 0, 65, 0
1, 42000, Note_on_c, 0, 69, 41
1, 42220, Note_on_c, 0, 69, 0
1, 42240, Tempo, 781657
1, 42240, Note_on_c, 0, 38, 0
1, 42240, Note_on_c, 0, 57, 0
1, 42240, Note_on_c, 0, 48, 0
1, 42240, Note_on_c, 0, 64, 38
1, 42240, Note_on_c, 0, 59, 32
1, 42240, Control_c, 0, 64, 0
1, 42240, Note_on_c, 0, 43, 31
1, 42240, Note_on_c, 0, 53, 37
1, 42480, Tempo, 722892
1, 42480, Note_on_c, 0, 64, 0
1, 42480, Note_on_c, 0, 62, 36
1, 42600, Tempo, 701754
1, 42600, Note_on_c, 0, 62, 0
1, 42600, Note_on_c, 0, 64, 34
1, 42720, Tempo, 808625
1, 42720, Note_on_c, 0, 64, 0
1, 42720, Note_on_c, 0, 62, 37
1, 42920, Note_on_c, 0, 62, 0
1, 42960, Tempo, 781657
1, 42960, Note_on_c, 0, 64, 38
1, 43200, Note_on_c, 0, 59, 0
1, 43200, Note_on_c, 0, 57, 28
1, 43440, Tempo, 827586
1, 43440, Note_on_c, 0, 64, 0
1, 43440, Note_on_c, 0, 62, 32
1, 43560, Tempo, 851064
1, 43560, Note_on_c, 0, 62, 0
1, 43560, Note_on_c, 0, 64, 30
1, 43680, Tempo, 968992
1, 43680, Note_on_c, 0, 64, 0
1, 43680, Note_on_c, 0, 62, 31
1, 43880, Note_on_c, 0, 62, 0
1, 43920, Tempo, 1106195
1, 43920, Note_on_c, 0, 57, 0
1, 43920, Note_on_c, 0, 43, 0
1, 43920, Note_on_c, 0, 53, 0
1, 43920, Note_on_c, 0, 59, 24
1, 43920, Note_on_c, 0, 64, 24
1, 43920, Note_on_c, 0, 55, 19
1, 43920, Note_on_c, 0, 40, 20
1, 43920, Note_on_c, 0, 47, 20
1, 43920, Note_on_c, 0, 52, 25
1, 44121, Tempo, 1132075
1, 44160, Tempo, 895522
1, 44160, Note_on_c, 0, 52, 0
1, 44160, Note_on_c, 0, 64, 0
1, 44160, Note_on_c, 0, 55, 0
1, 44160, Note_on_c, 0, 59, 0
1, 44160, Note_on_c, 0, 47, 0
1, 44160, Note_on_c, 0, 40, 0
1, 44160, Note_on_c, 0, 88, 45
1, 44160, Note_on_c, 0, 76, 30
1, 44160, Note_on_c, 0, 57, 30
1, 44160, Note_on_c, 0, 64, 30
1, 44160, Note_on_c, 0, 72, 30
1, 44206, Control_c, 0, 64, 127
1, 44400, Note_on_c, 0, 88, 0
1, 44400, Note_on_c, 0, 83, 43
1, 44880, Tempo, 740741
1, 44880, Note_on_c, 0, 83, 0
1, 44880, Note_on_c, 0, 81, 45
1, 45360, Note_on_c, 0, 81, 0
1, 45360, Note_on_c, 0, 76, 42
1, 45600, Tempo, 727273
1, 45600, Note_on_c, 0, 76, 0
1, 45600, Note_on_c, 0, 72, 0
1, 45600, Note_on_c, 0, 76, 0
1, 45600, Note_on_c, 0, 57, 0
1, 45600, Note_on_c, 0, 64, 0
1, 45600, Note_on_c, 0, 65, 32
1, 45600, Note_on_c, 0, 71, 39
1, 45600, Note_on_c, 0, 57, 33
1, 45600, Note_on_c, 0, 50, 27
1, 45608, Control_c, 0, 64, 0
1, 45637, Control_c, 0, 64, 127
1, 45660, Note_on_c, 0, 71, 0
1, 45660, Note_on_c, 0, 69, 39
1, 45720, Note_on_c, 0, 69, 0
1, 45720, Note_on_c, 0, 71, 39
1, 45780, Note_on_c, 0, 71, 0
1, 45780, Note_on_c, 0, 74, 39
1, 45840, Tempo, 816327
1, 45840, Note_on_c, 0, 74, 0
1, 45840, Note_on_c, 0, 50, 0
1, 45840, Note_on_c, 0, 57, 0
1, 45840, Note_on_c, 0, 65, 0
1, 45840, Note_on_c, 0, 83, 37
1, 45840, Note_on_c, 0, 81, 37
1, 45840, Note_on_c, 0, 77, 37
1, 46080, Tempo, 895522
1, 46080, Note_on_c, 0, 77, 0
1, 46080, Note_on_c, 0, 81, 0
1, 46080, Note_on_c, 0, 83, 0
1, 46080, Note_on_c, 0, 88, 48
1, 46080, Note_on_c, 0, 76, 33
1, 46080, Control_c, 0, 64, 0
1, 46080, Note_on_c, 0, 57, 27
1, 46080, Note_on_c, 0, 64, 27
1, 46080, Note_on_c, 0, 72, 33
1, 46264, Control_c, 0, 64, 127
1, 46320, Tempo, 810811
1, 46320, Note_on_c, 0, 88, 0
1, 46320, Note_on_c, 0, 83, 43
1, 46800, Note_on_c, 0, 83, 0
1, 46800, Note_on_c, 0, 81, 43
1, 47040, Tempo, 895522
1, 47040, Note_on_c, 0, 81, 0
1, 47040, Note_on_c, 0, 64, 0
1, 47040, Note_on_c, 0, 76, 0
1, 47040, Note_on_c, 0, 57, 0
1, 47040, Note_on_c, 0, 72, 0
1, 47040, Note_on_c, 0, 93, 53
1, 47040, Note_on_c, 0, 81, 36
1, 47040, Note_on_c, 0, 62, 33
1, 47040, Note_on_c, 0, 69, 33
1, 47040, Note_on_c, 0, 77, 39
1, 47057, Control_c, 0, 64, 0
1, 47280, Tempo, 810811
1, 47280, Note_on_c, 0, 93, 0
1, 47280, Note_on_c, 0, 88, 46
1, 47351, Control_c, 0, 64, 127
1, 47760, Note_on_c, 0, 88, 0
1, 47760, Note_on_c, 0, 86, 46
1, 48000, Tempo, 805369
1, 48000, Note_on_c, 0, 86, 0
1, 48000, Note_on_c, 0, 69, 0
1, 48000, Note_on_c, 0, 81, 0
1, 48000, Note_on_c, 0, 62, 0
1, 48000, Note_on_c, 0, 77, 0
1, 48000, Note_on_c, 0, 74, 35
1, 48000, Note_on_c, 0, 71, 29
1, 48000, Control_c, 0, 64, 0
1, 48000, Note_on_c, 0, 55, 27
1, 48000, Note_on_c, 0, 65, 32
1, 48040, Tempo, 810811
1, 48057, Control_c, 0, 64, 127
1, 48060, Note_on_c, 0, 76, 36
1, 48080, Tempo, 816327
1, 48080, Note_on_c, 0, 74, 0
1, 48100, Tempo, 821918
1, 48120, Note_on_c, 0, 79, 38
1, 48140, Tempo, 827586
1, 48140, Note_on_c, 0, 76, 0
1, 48160, Tempo, 833333
1, 48180, Note_on_c, 0, 81, 39
1, 48200, Tempo, 839161
1, 48200, Note_on_c, 0, 79, 0
1, 48220, Tempo, 845070
1, 48240, Tempo, 750000
1, 48240, Note_on_c, 0, 71, 0
1, 48240, Note_on_c, 0, 86, 46
1, 48260, Note_on_c, 0, 81, 0
1, 48720, Tempo, 769231
1, 48720, Note_on_c, 0, 86, 0
1, 48720, Note_on_c, 0, 88, 43
1, 48738, Control_c, 0, 64, 0
1, 48960, Tempo, 816327
1, 48960, Note_on_c, 0, 88, 0
1, 48960, Note_on_c, 0, 55, 0
1, 48960, Note_on_c, 0, 65, 0
1, 48960, Note_on_c, 0, 67, 21
1, 48960, Note_on_c, 0, 69, 36
1, 48960, Note_on_c, 0, 48, 21
1, 48960, Note_on_c, 0, 64, 26
1, 48960, Note_on_c, 0, 55, 21
1, 49000, Tempo, 821918
1, 49002, Control_c, 0, 64, 127
1, 49020, Note_on_c, 0, 72, 36
1, 49040, Tempo, 827586
1, 49040, Note_on_c, 0, 69, 0
1, 49060, Tempo, 833333
1, 49080, Note_on_c, 0, 74, 37
1, 49100, Tempo, 839161
1, 49100, Note_on_c, 0, 72, 0
1, 49120, Tempo, 845070
1, 49140, Note_on_c, 0, 76, 38
1, 49160, Tempo, 851064
1, 49160, Note_on_c, 0, 74, 0
1, 49180, Tempo, 857143
1, 49200, Tempo, 759494
1, 49200, Note_on_c, 0, 67, 0
1, 49200, Note_on_c, 0, 81, 45
1, 49220, Note_on_c, 0, 76, 0
1, 49560, Tempo, 774194
1, 49560, Note_on_c, 0, 81, 0
1, 49560, Note_on_c, 0, 79, 39
1, 49564, Control_c, 0, 64, 0
1, 49680, Note_on_c, 0, 79, 0
1, 49680, Note_on_c, 0, 81, 44
1, 49737, Control_c, 0, 64, 127
1, 49800, Note_on_c, 0, 81, 0
1, 49800, Note_on_c, 0, 84, 42
1, 49920, Tempo, 816327
1, 49920, Note_on_c, 0, 84, 0
1, 49920, Note_on_c, 0, 48, 0
1, 49920, Note_on_c, 0, 55, 0
1, 49920, Note_on_c, 0, 64, 0
1, 49920, Note_on_c, 0, 71, 29
1, 49920, Note_on_c, 0, 74, 35
1, 49920, Control_c, 0, 64, 0
1, 49920, Note_on_c, 0, 65, 32
1, 49920, Note_on_c, 0, 55, 27
1, 49960, Tempo, 821918
1, 49962, Control_c, 0, 64, 127
1, 49980, Note_on_c, 0, 76, 36
1, 50000, Tempo, 827586
1, 50000, Note_on_c, 0, 74, 0
1, 50020, Tempo, 833333
1, 50040, Note_on_c, 0, 77, 38
1, 50060, Tempo, 839161
1, 50060, Note_on_c, 0, 76, 0
1, 50080, Tempo, 845070
1, 50100, Note_on_c, 0, 81, 39
1, 50120, Tempo, 851064
1, 50120, Note_on_c, 0, 77, 0
1, 50140, Tempo, 857143
1, 50160, Tempo, 750000
1, 50160, Note_on_c, 0, 71, 0
1, 50160, Note_on_c, 0, 86, 46
1, 50180, Note_on_c, 0, 81, 0
1, 50640, Tempo, 784314
1, 50640, Note_on_c, 0, 86, 0
1, 50640, Note_on_c, 0, 88, 43
1, 50880, Tempo, 816327
1, 50880, Note_on_c, 0, 88, 0
1, 50880, Note_on_c, 0, 65, 0
1, 50880, Note_on_c, 0, 55, 0
1, 50880, Note_on_c, 0, 69, 36
1, 50880, Note_on_c, 0, 67, 21
1, 50880, Control_c, 0, 64, 0
1, 50880, Note_on_c, 0, 64, 28
1, 50880, Note_on_c, 0, 55, 24
1, 50880, Note_on_c, 0, 48, 24
1, 50920, Tempo, 821918
1, 50933, Control_c, 0, 64, 127
1, 50940, Note_on_c, 0, 72, 36
1, 50960, Tempo, 827586
1, 50960, Note_on_c, 0, 69, 0
1, 50980, Tempo, 833333
1, 51000, Note_on_c, 0, 74, 37
1, 51020, Tempo, 839161
1, 51020, Note_on_c, 0, 72, 0
1, 51040, Tempo, 845070
1, 51060, Note_on_c, 0, 76, 38
1, 51080, Tempo, 851064
1, 51080, Note_on_c, 0, 74, 0
1, 51100, Tempo, 857143
1, 51120, Tempo, 759494
1, 51120, Note_on_c, 0, 67, 0
1, 51120, Note_on_c, 0, 81, 45
1, 51140, Note_on_c, 0, 76, 0
1, 51480, Tempo, 784314
1, 51480, Note_on_c, 0, 81, 0
1, 51480, Note_on_c, 0, 83, 44
1, 51491, Control_c, 0, 64, 0
1, 51600, Note_on_c, 0, 83, 0
1, 51600, Note_on_c, 0, 81, 44
1, 51720, Note_on_c, 0, 81, 0
1, 51720, Note_on_c, 0, 79, 43
1, 51840, Tempo, 759494
1, 51840, Note_on_c, 0, 79, 0
1, 51840, Note_on_c, 0, 64, 0
1, 51840, Note_on_c, 0, 48, 0
1, 51840, Note_on_c, 0, 55, 0
1, 51840, Note_on_c, 0, 61, 28
1, 51840, Note_on_c, 0, 59, 24
1, 51840, Note_on_c, 0, 42, 23
1, 51840, Note_on_c, 0, 47, 23
1, 51840, Note_on_c, 0, 57, 27
1, 51880, Tempo, 764331
1, 51880, Control_c, 0, 64, 127
1, 51900, Note_on_c, 0, 63, 30
1, 51920, Tempo, 769231
1, 51920, Note_on_c, 0, 61, 0
1, 51940, Tempo, 774194
1, 51960, Note_on_c, 0, 66, 32
1, 51980, Tempo, 779221
1, 51980, Note_on_c, 0, 63, 0
1, 52000, Tempo, 784314
1, 52020, Note_on_c, 0, 69, 33
1, 52040, Tempo, 789474
1, 52040, Note_on_c, 0, 66, 0
1, 52060, Tempo, 794702
1, 52080, Tempo, 745342
1, 52080, Note_on_c, 0, 59, 0
1, 52080, Note_on_c, 0, 73, 38
1, 52100, Note_on_c, 0, 69, 0
1, 52560, Tempo, 784314
1, 52560, Note_on_c, 0, 73, 0
1, 52560, Note_on_c, 0, 75, 34
1, 52603, Control_c, 0, 64, 0
1, 52800, Tempo, 754717
1, 52800, Note_on_c, 0, 75, 0
1, 52800, Note_on_c, 0, 42, 0
1, 52800, Note_on_c, 0, 57, 0
1, 52800, Note_on_c, 0, 47, 0
1, 52800, Note_on_c, 0, 59, 18
1, 52800, Note_on_c, 0, 61, 30
1, 52800, Note_on_c, 0, 40, 23
1, 52800, Note_on_c, 0, 47, 23
1, 52800, Note_on_c, 0, 56, 27
1, 52840, Tempo, 759494
1, 52855, Control_c, 0, 64, 127
1, 52860, Note_on_c, 0, 63, 30
1, 52880, Tempo, 764331
1, 52880, Note_on_c, 0, 61, 0
1, 52900, Tempo, 769231
1, 52920, Note_on_c, 0, 64, 31
1, 52940, Tempo, 774194
1, 52940, Note_on_c, 0, 63, 0
1, 52960, Tempo, 779221
1, 52980, Note_on_c, 0, 66, 32
1, 53000, Tempo, 784314
1, 53000, Note_on_c, 0, 64, 0
1, 53020, Tempo, 789474
1, 53040, Tempo, 769231
1, 53040, Note_on_c, 0, 59, 0
1, 53040, Note_on_c, 0, 68, 38
1, 53060, Note_on_c, 0, 66, 0
1, 53400, Tempo, 750000
1, 53400, Note_on_c, 0, 68, 0
1, 53400, Note_on_c, 0, 71, 33
1, 53410, Control_c, 0, 64, 0
1, 53443, Control_c, 0, 64, 127
1, 53520, Note_on_c, 0, 71, 0
1, 53520, Note_on_c, 0, 68, 36
1, 53640, Note_on_c, 0, 68, 0
1, 53640, Note_on_c, 0, 71, 34
1, 53760, Tempo, 759494
1, 53760, Note_on_c, 0, 71, 0
1, 53760, Note_on_c, 0, 40, 0
1, 53760, Note_on_c, 0, 56, 0
1, 53760, Note_on_c, 0, 47, 0
1, 53760, Note_on_c, 0, 61, 28
1, 53760, Note_on_c, 0, 59, 24
1, 53760, Control_c, 0, 64, 0
1, 53760, Note_on_c, 0, 42, 28
1, 53760, Note_on_c, 0, 47, 28
1, 53760, Note_on_c, 0, 57, 34
1, 53800, Tempo, 764331
1, 53800, Control_c, 0, 64, 127
1, 53820, Note_on_c, 0, 63, 30
1, 53840, Tempo, 769231
1, 53840, Note_on_c, 0, 61, 0
1, 53860, Tempo, 774194
1, 53880, Note_on_c, 0, 66, 32
1, 53900, Tempo, 779221
1, 53900, Note_on_c, 0, 63, 0
1, 53920, Tempo, 784314
1, 53940, Note_on_c, 0, 69, 33
1, 53960, Tempo, 789474
1, 53960, Note_on_c, 0, 66, 0
1, 53980, Tempo, 794702
1, 54000, Tempo, 769231
1, 54000, Note_on_c, 0, 59, 0
1, 54000, Note_on_c, 0, 73, 38
1, 54020, Note_on_c, 0, 69, 0
1, 54360, Tempo, 764331
1, 54360, Note_on_c, 0, 73, 0
1, 54360, Note_on_c, 0, 75, 35
1, 54375, Control_c, 0, 64, 0
1, 54480, Note_on_c, 0, 75, 0
1, 54480, Note_on_c, 0, 73, 38
1, 54600, Note_on_c, 0, 73, 0
1, 54600, Note_on_c, 0, 75, 36
1, 54720, Tempo, 754717
1, 54720, Note_on_c, 0, 75, 0
1, 54720, Note_on_c, 0, 42, 0
1, 54720, Note_on_c, 0, 57, 0
1, 54720, Note_on_c, 0, 47, 0
1, 54720, Note_on_c, 0, 71, 27
1, 54720, Note_on_c, 0, 73, 37
1, 54720, Note_on_c, 0, 68, 42
1, 54720, Note_on_c, 0, 59, 35
1, 54720, Note_on_c, 0, 52, 35
1, 54743, Control_c, 0, 64, 127
1, 54760, Tempo, 759494
1, 54780, Note_on_c, 0, 75, 37
1, 54800, Tempo, 764331
1, 54800, Note_on_c, 0, 73, 0
1, 54820, Tempo, 769231
1, 54840, Note_on_c, 0, 76, 38
1, 54860, Tempo, 774194
1, 54860, Note_on_c, 0, 75, 0
1, 54880, Tempo, 779221
1, 54900, Note_on_c, 0, 78, 39
1, 54920, Tempo, 784314
1, 54920, Note_on_c, 0, 76, 0
1, 54940, Tempo, 789474
1, 54960, Tempo, 774194
1, 54960, Note_on_c, 0, 71, 0
1, 54960, Note_on_c, 0, 80, 47
1, 54980, Note_on_c, 0, 78, 0
1, 55200, Tempo, 784314
1, 55320, Tempo, 821918
1, 55320, Note_on_c, 0, 80, 0
1, 55320, Note_on_c, 0, 83, 47
1, 55332, Control_c, 0, 64, 0
1, 55377, Control_c, 0, 64, 127
1, 55440, Tempo, 863309
1, 55440, Note_on_c, 0, 83, 0
1, 55440, Note_on_c, 0, 80, 54
1, 55560, Tempo, 960000
1, 55560, Note_on_c, 0, 80, 0
1, 55560, Note_on_c, 0, 83, 53
1, 55680, Tempo, 882353
1, 55680, Note_on_c, 0, 83, 0
1, 55680, Note_on_c, 0, 68, 0
1, 55680, Note_on_c, 0, 52, 0
1, 55680, Note_on_c, 0, 59, 0
1, 55680, Note_on_c, 0, 86, 53
1, 55680, Note_on_c, 0, 77, 45
1, 55680, Note_on_c, 0, 62, 38
1, 55680, Note_on_c, 0, 69, 45
1, 55683, Control_c, 0, 64, 0
1, 55920, Tempo, 857143
1, 55920, Note_on_c, 0, 86, 0
1, 55920, Note_on_c, 0, 84, 52
1, 56020, Tempo, 805369
1, 56040, Note_on_c, 0, 84, 0
1, 56040, Note_on_c, 0, 83, 52
1, 56160, Tempo, 745342
1, 56160, Note_on_c, 0, 83, 0
1, 56160, Note_on_c, 0, 77, 0
1, 56160, Note_on_c, 0, 62, 0
1, 56160, Note_on_c, 0, 69, 0
1, 56160, Note_on_c, 0, 74, 42
1, 56160, Note_on_c, 0, 81, 53
1, 56160, Note_on_c, 0, 65, 35
1, 56160, Note_on_c, 0, 71, 42
1, 56280, Note_on_c, 0, 81, 0
1, 56280, Note_on_c, 0, 79, 51
1, 56400, Tempo, 722892
1, 56400, Note_on_c, 0, 79, 0
1, 56400, Note_on_c, 0, 81, 51
1, 56520, Tempo, 693642
1, 56520, Note_on_c, 0, 81, 0
1, 56520, Note_on_c, 0, 83, 51
1, 56620, Note_on_c, 0, 83, 0
1, 56640, Tempo, 731707
1, 56640, Note_on_c, 0, 71, 0
1, 56640, Note_on_c, 0, 65, 0
1, 56640, Note_on_c, 0, 74, 0
1, 56640, Note_on_c, 0, 76, 53
1, 56640, Note_on_c, 0, 71, 42
1, 56640, Note_on_c, 0, 67, 42
1, 56640, Note_on_c, 0, 60, 35
1, 56760, Note_on_c, 0, 76, 0
1, 56760, Note_on_c, 0, 77, 51
1, 56880, Tempo, 705882
1, 56880, Note_on_c, 0, 77, 0
1, 56880, Note_on_c, 0, 71, 0
1, 56880, Note_on_c, 0, 67, 0
1, 56880, Note_on_c, 0, 69, 39
1, 56880, Note_on_c, 0, 79, 51
1, 56880, Note_on_c, 0, 65, 39
1, 57000, Tempo, 677966
1, 57000, Note_on_c, 0, 79, 0
1, 57000, Note_on_c, 0, 81, 51
1, 57100, Note_on_c, 0, 81, 0
1, 57120, Tempo, 718563
1, 57120, Note_on_c, 0, 60, 0
1, 57120, Note_on_c, 0, 74, 53
1, 57120, Note_on_c, 0, 59, 42
1, 57240, Note_on_c, 0, 74, 0
1, 57240, Note_on_c, 0, 76, 49
1, 57360, Tempo, 693642
1, 57360, Note_on_c, 0, 76, 0
1, 57360, Note_on_c, 0, 65, 0
1, 57360, Note_on_c, 0, 69, 0
1, 57360, Note_on_c, 0, 77, 49
1, 57360, Note_on_c, 0, 67, 39
1, 57360, Note_on_c, 0, 64, 39
1, 57480, Tempo, 674157
1, 57480, Note_on_c, 0, 77, 0
1, 57480, Note_on_c, 0, 79, 49
1, 57580, Note_on_c, 0, 79, 0
1, 57600, Tempo, 727273
1, 57600, Note_on_c, 0, 59, 0
1, 57600, Note_on_c, 0, 72, 53
1, 57600, Note_on_c, 0, 57, 42
1, 57720, Note_on_c, 0, 72, 0
1, 57720, Note_on_c, 0, 74, 52
1, 57840, Tempo, 685714
1, 57840, Note_on_c, 0, 74, 0
1, 57840, Note_on_c, 0, 64, 0
1, 57840, Note_on_c, 0, 67, 0
1, 57840, Note_on_c, 0, 76, 52
1, 57840, Note_on_c, 0, 65, 39
1, 57840, Note_on_c, 0, 62, 39
1, 57960, Tempo, 674157
1, 57960, Note_on_c, 0, 76, 0
1, 57960, Note_on_c, 0, 77, 52
1, 58080, Tempo, 731707
1, 58080, Note_on_c, 0, 77, 0
1, 58080, Note_on_c, 0, 57, 0
1, 58080, Note_on_c, 0, 71, 56
1, 58080, Note_on_c, 0, 57, 42
1, 58320, Tempo, 745342
1, 58320, Note_on_c, 0, 57, 0
1, 58320, Note_on_c, 0, 65, 0
1, 58320, Note_on_c, 0, 67, 45
1, 58320, Note_on_c, 0, 55, 44
1, 58560, Tempo, 731707
1, 58560, Note_on_c, 0, 55, 0
1, 58560, Note_on_c, 0, 67, 0
1, 58560, Note_on_c, 0, 62, 0
1, 58560, Note_on_c, 0, 69, 41
1, 58560, Note_on_c, 0, 53, 33
1, 58560, Note_on_c, 0, 62, 39
1, 58660, Note_on_c, 0, 71, 0
1, 58680, Note_on_c, 0, 72, 51
1, 58800, Tempo, 701754
1, 58800, Note_on_c, 0, 72, 0
1, 58800, Note_on_c, 0, 62, 0
1, 58800, Note_on_c, 0, 53, 0
1, 58800, Note_on_c, 0, 69, 0
1, 58800, Note_on_c, 0, 67, 33
1, 58800, Note_on_c, 0, 74, 48
1, 58800, Note_on_c, 0, 52, 27
1, 58800, Note_on_c, 0, 59, 33
1, 58920, Note_on_c, 0, 74, 0
1, 58920, Note_on_c, 0, 76, 46
1, 59040, Tempo, 875912
1, 59040, Note_on_c, 0, 76, 0
1, 59040, Note_on_c, 0, 59, 0
1, 59040, Note_on_c, 0, 52, 0
1, 59040, Note_on_c, 0, 67, 0
1, 59040, Note_on_c, 0, 65, 45
1, 59040, Note_on_c, 0, 69, 45
1, 59040, Note_on_c, 0, 50, 32
1, 59040, Note_on_c, 0, 60, 38
1, 59280, Tempo, 975610
1, 59280, Note_on_c, 0, 60, 0
1, 59280, Note_on_c, 0, 50, 0
1, 59280, Note_on_c, 0, 65, 0
1, 59280, Note_on_c, 0, 64, 38
1, 59280, Note_on_c, 0, 48, 30
1, 59280, Note_on_c, 0, 52, 36
1, 59520, Tempo, 937500
1, 59520, Note_on_c, 0, 52, 0
1, 59520, Note_on_c, 0, 48, 0
1, 59520, Note_on_c, 0, 64, 0
1, 59520, Note_on_c, 0, 63, 35
1, 59520, Note_on_c, 0, 47, 30
1, 59520, Note_on_c, 0, 54, 36
1, 59760, Tempo, 736196
1, 59760, Note_on_c, 0, 69, 0
1, 59760, Note_on_c, 0, 71, 43
1, 59880, Note_on_c, 0, 71, 0
1, 59880, Note_on_c, 0, 69, 43
1, 60000, Note_on_c, 0, 69, 0
1, 60000, Note_on_c, 0, 68, 45
1, 60120, Note_on_c, 0, 68, 0
1, 60120, Note_on_c, 0, 69, 43
1, 60240, Tempo, 705882
1, 60240, Note_on_c, 0, 69, 0
1, 60240, Note_on_c, 0, 66, 45
1, 60360, Note_on_c, 0, 66, 0
1, 60360, Note_on_c, 0, 68, 43
1, 60480, Tempo, 750000
1, 60480, Note_on_c, 0, 68, 0
1, 60480, Note_on_c, 0, 69, 45
1, 60700, Note_on_c, 0, 69, 0
1, 60720, Tempo, 731707
1, 60720, Note_on_c, 0, 71, 43
1, 60840, Note_on_c, 0, 71, 0
1, 60840, Note_on_c, 0, 69, 43
1, 60960, Tempo, 769231
1, 60960, Note_on_c, 0, 69, 0
1, 60960, Note_on_c, 0, 66, 45
1, 61052, Control_c, 0, 64, 127
1, 61200, Tempo, 800000
1, 61200, Note_on_c, 0, 66, 0
1, 61200, Note_on_c, 0, 68, 43
1, 61440, Tempo, 745342
1, 61440, Note_on_c, 0, 68, 0
1, 61440, Note_on_c, 0, 54, 0
1, 61440, Note_on_c, 0, 47, 0
1, 61440, Note_on_c, 0, 63, 0
1, 61440, Note_on_c, 0, 69, 27
1, 61440, Note_on_c, 0, 57, 22
1, 61440, Note_on_c, 0, 64, 43
1, 61440, Note_on_c, 0, 48, 22
1, 61440, Note_on_c, 0, 54, 27
1, 61469, Control_c, 0, 64, 0
1, 61660, Note_on_c, 0, 64, 0
1, 61680, Tempo, 710059
1, 61680, Note_on_c, 0, 66, 38
1, 61800, Note_on_c, 0, 66, 0
1, 61800, Note_on_c, 0, 64, 38
1, 61920, Note_on_c, 0, 64, 0
1, 61920, Note_on_c, 0, 60, 38
1, 62040, Tempo, 693642
1, 62040, Note_on_c, 0, 60, 0
1, 62040, Note_on_c, 0, 62, 37
1, 62160, Tempo, 745342
1, 62160, Note_on_c, 0, 62, 0
1, 62160, Note_on_c, 0, 64, 36
1, 62620, Note_on_c, 0, 64, 0
1, 62640, Tempo, 710059
1, 62640, Note_on_c, 0, 66, 38
1, 62760, Note_on_c, 0, 66, 0
1, 62760, Note_on_c, 0, 64, 38
1, 62880, Note_on_c, 0, 64, 0
1, 62880, Note_on_c, 0, 60, 38
1, 63000, Tempo, 693642
1, 63000, Note_on_c, 0, 60, 0
1, 63000, Note_on_c, 0, 62, 37
1, 63120, Tempo, 745342
1, 63120, Note_on_c, 0, 62, 0
1, 63120, Note_on_c, 0, 64, 36
1, 63360, Tempo, 779221
1, 63360, Note_on_c, 0, 69, 0
1, 63360, Note_on_c, 0, 57, 0
1, 63360, Note_on_c, 0, 58, 25
1, 63590, Note_on_c, 0, 64, 0
1, 63600, Tempo, 731707
1, 63600, Note_on_c, 0, 66, 37
1, 63720, Note_on_c, 0, 66, 0
1, 63720, Note_on_c, 0, 64, 37
1, 63840, Note_on_c, 0, 64, 0
1, 63840, Note_on_c, 0, 60, 37
1, 63960, Tempo, 714286
1, 63960, Note_on_c, 0, 60, 0
1, 63960, Note_on_c, 0, 62, 35
1, 64080, Tempo, 745342
1, 64080, Note_on_c, 0, 62, 0
1, 64080, Note_on_c, 0, 64, 34
1, 64540, Note_on_c, 0, 64, 0
1, 64560, Tempo, 769231
1, 64560, Note_on_c, 0, 66, 35
1, 64680, Note_on_c, 0, 66, 0
1, 64680, Note_on_c, 0, 64, 35
1, 64800, Tempo, 863309
1, 64800, Note_on_c, 0, 64, 0
1, 64800, Note_on_c, 0, 60, 34
1, 64920, Tempo, 923077
1, 64920, Note_on_c, 0, 60, 0
1, 64920, Note_on_c, 0, 62, 31
1, 65040, Tempo, 952381
1, 65040, Note_on_c, 0, 62, 0
1, 65040, Note_on_c, 0, 64, 28
1, 65280, Tempo, 745342
1, 65280, Note_on_c, 0, 58, 0
1, 65280, Note_on_c, 0, 48, 0
1, 65280, Note_on_c, 0, 54, 0
1, 65280, Note_on_c, 0, 62, 38
1, 65280, Note_on_c, 0, 47, 29
1, 65280, Note_on_c, 0, 56, 35
1, 65460, Note_on_c, 0, 56, 0
1, 65460, Note_on_c, 0, 47, 0
1, 65460, Note_on_c, 0, 62, 0
1, 65520, Tempo, 677966
1, 65520, Note_on_c, 0, 64, 0
1, 65520, Note_on_c, 0, 64, 41
1, 65520, Note_on_c, 0, 40, 38
1, 65640, Note_on_c, 0, 64, 0
1, 65640, Note_on_c, 0, 66, 41
1, 65700, Note_on_c, 0, 66, 0
1, 65700, Note_on_c, 0, 40, 0
1, 65760, Tempo, 674157
1, 65760, Note_on_c, 0, 68, 41
1, 65820, Note_on_c, 0, 68, 0
1, 65880, Note_on_c, 0, 69, 41
1, 65940, Note_on_c, 0, 69, 0
1, 66000, Tempo, 670391
1, 66000, Note_on_c, 0, 71, 41
1, 66060, Note_on_c, 0, 71, 0
1, 66120, Note_on_c, 0, 72, 41
1, 66180, Note_on_c, 0, 72, 0
1, 66240, Tempo, 666667
1, 66240, Note_on_c, 0, 74, 39
1, 66300, Note_on_c, 0, 74, 0
1, 66360, Note_on_c, 0, 76, 39
1, 66420, Note_on_c, 0, 76, 0
1, 66480, Tempo, 662983
1, 66480, Note_on_c, 0, 78, 38
1, 66540, Note_on_c, 0, 78, 0
1, 66600, Note_on_c, 0, 80, 37
1, 66660, Note_on_c, 0, 80, 0
1, 66720, Tempo, 662983
1, 66720, Note_on_c, 0, 81, 37
1, 66740, Tempo, 666667
1, 66760, Tempo, 674157
1, 66780, Tempo, 677966
1, 66780, Note_on_c, 0, 81, 0
1, 66800, Tempo, 685714
1, 66820, Tempo, 689655
1, 66840, Tempo, 697674
1, 66840, Note_on_c, 0, 83, 36
1, 66860, Tempo, 701754
1, 66880, Tempo, 710059
1, 66900, Tempo, 714286
1, 66900, Note_on_c, 0, 83, 0
1, 66920, Tempo, 722892
1, 66940, Tempo, 727273
1, 66960, Tempo, 736196
1, 66960, Note_on_c, 0, 84, 35
1, 66980, Tempo, 745342
1, 67000, Tempo, 750000
1, 67020, Tempo, 759494
1, 67020, Note_on_c, 0, 84, 0
1, 67040, Tempo, 764331
1, 67060, Tempo, 774194
1, 67080, Tempo, 833333
1, 67080, Note_on_c, 0, 86, 35
1, 67140, Note_on_c, 0, 86, 0
1, 67180, Tempo, 821918
1, 67200, Tempo, 895522
1, 67200, Note_on_c, 0, 88, 45
1, 67200, Note_on_c, 0, 76, 30
1, 67200, Note_on_c, 0, 57, 25
1, 67200, Note_on_c, 0, 64, 25
1, 67200, Note_on_c, 0, 72, 30
1, 67246, Control_c, 0, 64, 127
1, 67440, Note_on_c, 0, 88, 0
1, 67440, Note_on_c, 0, 83, 41
1, 67920, Tempo, 740741
1, 67920, Note_on_c, 0, 83, 0
1, 67920, Note_on_c, 0, 81, 45
1, 68400, Note_on_c, 0, 81, 0
1, 68400, Note_on_c, 0, 76, 42
1, 68640, Tempo, 727273
1, 68640, Note_on_c, 0, 76, 0
1, 68640, Note_on_c, 0, 72, 0
1, 68640, Note_on_c, 0, 76, 0
1, 68640, Note_on_c, 0, 57, 0
1, 68640, Note_on_c, 0, 64, 0
1, 68640, Note_on_c, 0, 71, 39
1, 68640, Note_on_c, 0, 65, 39
1, 68640, Note_on_c, 0, 57, 33
1, 68640, Note_on_c, 0, 50, 27
1, 68650, Control_c, 0, 64, 0
1, 68689, Control_c, 0, 64, 127
1, 68700, Note_on_c, 0, 71, 0
1, 68700, Note_on_c, 0, 69, 39
1, 68760, Note_on_c, 0, 69, 0
1, 68760, Note_on_c, 0, 71, 39
1, 68820, Note_on_c, 0, 71, 0
1, 68820, Note_on_c, 0, 74, 39
1, 68880, Note_on_c, 0, 74, 0
1, 68880, Note_on_c, 0, 50, 0
1, 68880, Note_on_c, 0, 57, 0
1, 68880, Note_on_c, 0, 65, 0
1, 68880, Note_on_c, 0, 83, 37
1, 68880, Note_on_c, 0, 81, 37
1, 68880, Note_on_c, 0, 77, 37
1, 69120, Tempo, 895522
1, 69120, Note_on_c, 0, 77, 0
1, 69120, Note_on_c, 0, 81, 0
1, 69120, Note_on_c, 0, 83, 0
1, 69120, Note_on_c, 0, 76, 33
1, 69120, Note_on_c, 0, 88, 48
1, 69120, Control_c, 0, 64, 0
1, 69120, Note_on_c, 0, 57, 27
1, 69120, Note_on_c, 0, 64, 27
1, 69120, Note_on_c, 0, 72, 33
1, 69234, Control_c, 0, 64, 127
1, 69360, Tempo, 810811
1, 69360, Note_on_c, 0, 88, 0
1, 69360, Note_on_c, 0, 83, 43
1, 69840, Tempo, 740741
1, 69840, Note_on_c, 0, 83, 0
1, 69840, Note_on_c, 0, 81, 45
1, 70320, Note_on_c, 0, 81, 0
1, 70320, Note_on_c, 0, 76, 42
1, 70560, Tempo, 727273
1, 70560, Note_on_c, 0, 76, 0
1, 70560, Note_on_c, 0, 72, 0
1, 70560, Note_on_c, 0, 76, 0
1, 70560, Note_on_c, 0, 57, 0
1, 70560, Note_on_c, 0, 64, 0
1, 70560, Note_on_c, 0, 71, 39
1, 70560, Note_on_c, 0, 66, 33
1, 70560, Note_on_c, 0, 60, 33
1, 70560, Note_on_c, 0, 50, 27
1, 70581, Control_c, 0, 64, 0
1, 70800, Note_on_c, 0, 66, 0
1, 70800, Note_on_c, 0, 71, 0
1, 70800, Note_on_c, 0, 69, 39
1, 71040, Tempo, 722892
1, 71040, Note_on_c, 0, 60, 0
1, 71040, Note_on_c, 0, 50, 0
1, 71040, Note_on_c, 0, 65, 39
1, 71040, Note_on_c, 0, 43, 29
1, 71040, Note_on_c, 0, 50, 29
1, 71040, Note_on_c, 0, 59, 35
1, 71072, Control_c, 0, 64, 127
1, 71080, Tempo, 727273
1, 71100, Tempo, 731707
1, 71100, Note_on_c, 0, 69, 0
1, 71100, Note_on_c, 0, 71, 35
1, 71140, Tempo, 736196
1, 71160, Tempo, 740741
1, 71160, Note_on_c, 0, 71, 0
1, 71160, Note_on_c, 0, 69, 37
1, 71200, Tempo, 745342
1, 71220, Tempo, 750000
1, 71220, Note_on_c, 0, 69, 0
1, 71220, Note_on_c, 0, 67, 39
1, 71260, Tempo, 754717
1, 71280, Tempo, 759494
1, 71280, Note_on_c, 0, 67, 0
1, 71280, Note_on_c, 0, 59, 0
1, 71280, Note_on_c, 0, 65, 0
1, 71280, Note_on_c, 0, 43, 0
1, 71280, Note_on_c, 0, 50, 0
1, 71280, Note_on_c, 0, 60, 30
1, 71280, Note_on_c, 0, 64, 36
1, 71280, Note_on_c, 0, 48, 35
1, 71280, Note_on_c, 0, 55, 41
1, 71293, Control_c, 0, 64, 0
1, 71520, Tempo, 819896
1, 71760, Note_on_c, 0, 55, 0
1, 71760, Note_on_c, 0, 60, 0
1, 71760, Note_on_c, 0, 64, 0
1, 71760, Note_on_c, 0, 48, 0
1, 71760, Note_on_c, 0, 57, 32
1, 71760, Note_on_c, 0, 62, 38
1, 71760, Note_on_c, 0, 41, 31
1, 71760, Note_on_c, 0, 48, 37
1, 72000, Tempo, 794702
1, 72240, Tempo, 745342
1, 72240, Note_on_c, 0, 41, 0
1, 72240, Note_on_c, 0, 62, 0
1, 72240, Note_on_c, 0, 64, 41
1, 72240, Note_on_c, 0, 40, 35
1, 72480, Tempo, 722892
1, 72480, Note_on_c, 0, 40, 0
1, 72480, Note_on_c, 0, 64, 0
1, 72480, Note_on_c, 0, 65, 45
1, 72480, Note_on_c, 0, 38, 35
1, 72520, Control_c, 0, 64, 127
1, 72720, Tempo, 769231
1, 72720, Note_on_c, 0, 65, 0
1, 72720, Note_on_c, 0, 69, 41
1, 72940, Note_on_c, 0, 69, 0
1, 72960, Tempo, 781657
1, 72960, Note_on_c, 0, 38, 0
1, 72960, Note_on_c, 0, 57, 0
1, 72960, Note_on_c, 0, 48, 0
1, 72960, Note_on_c, 0, 64, 38
1, 72960, Note_on_c, 0, 59, 32
1, 72960, Note_on_c, 0, 43, 31
1, 72960, Note_on_c, 0, 53, 37
1, 72969, Control_c, 0, 64, 0
1, 73200, Tempo, 740741
1, 73200, Note_on_c, 0, 64, 0
1, 73200, Note_on_c, 0, 62, 36
1, 73320, Tempo, 722892
1, 73320, Note_on_c, 0, 62, 0
1, 73320, Note_on_c, 0, 64, 34
1, 73440, Tempo, 808625
1, 73440, Note_on_c, 0, 64, 0
1, 73440, Note_on_c, 0, 62, 37
1, 73640, Note_on_c, 0, 62, 0
1, 73680, Tempo, 781657
1, 73680, Note_on_c, 0, 64, 38
1, 73920, Note_on_c, 0, 59, 0
1, 74160, Tempo, 827586
1, 74160, Note_on_c, 0, 64, 0
1, 74160, Note_on_c, 0, 62, 32
1, 74280, Tempo, 851064
1, 74280, Note_on_c, 0, 62, 0
1, 74280, Note_on_c, 0, 64, 30
1, 74400, Tempo, 968992
1, 74400, Note_on_c, 0, 64, 0
1, 74400, Note_on_c, 0, 43, 0
1, 74400, Note_on_c, 0, 53, 0
1, 74400, Note_on_c, 0, 62, 31
1, 74400, Note_on_c, 0, 57, 26
1, 74400, Note_on_c, 0, 47, 31
1, 74400, Note_on_c, 0, 41, 26
1, 74600, Note_on_c, 0, 41, 0
1, 74600, Note_on_c, 0, 62, 0
1, 74600, Note_on_c, 0, 57, 0
1, 74640, Tempo, 1106195
1, 74640, Note_on_c, 0, 59, 19
1, 74640, Note_on_c, 0, 55, 19
1, 74640, Note_on_c, 0, 64, 24
1, 74640, Note_on_c, 0, 40, 25
1, 74841, Tempo, 1132075
1, 74880, Tempo, 895522
1, 74880, Note_on_c, 0, 40, 0
1, 74880, Note_on_c, 0, 55, 0
1, 74880, Note_on_c, 0, 47, 0
1, 74880, Note_on_c, 0, 59, 0
1, 74880, Note_on_c, 0, 64, 0
1, 74880, Note_on_c, 0, 88, 45
1, 74880, Note_on_c, 0, 76, 30
1, 74880, Note_on_c, 0, 57, 25
1, 74880, Note_on_c, 0, 64, 25
1, 74880, Note_on_c, 0, 72, 30
1, 74931, Control_c, 0, 64, 127
1, 75120, Note_on_c, 0, 88, 0
1, 75120, Note_on_c, 0, 83, 43
1, 75600, Tempo, 740741
1, 75600, Note_on_c, 0, 83, 0
1, 75600, Note_on_c, 0, 81, 45
1, 76080, Note_on_c, 0, 81, 0
1, 76080, Note_on_c, 0, 76, 42
1, 76320, Tempo, 727273
1, 76320, Note_on_c, 0, 76, 0
1, 76320, Note_on_c, 0, 72, 0
1, 76320, Note_on_c, 0, 76, 0
1, 76320, Note_on_c, 0, 57, 0
1, 76320, Note_on_c, 0, 64, 0
1, 76320, Note_on_c, 0, 65, 33
1, 76320, Note_on_c, 0, 71, 39
1, 76320, Note_on_c, 0, 57, 33
1, 76320, Note_on_c, 0, 50, 27
1, 76328, Control_c, 0, 64, 0
1, 76369, Control_c, 0, 64, 127
1, 76380, Note_on_c, 0, 71, 0
1, 76380, Note_on_c, 0, 69, 39
1, 76440, Note_on_c, 0, 69, 0
1, 76440, Note_on_c, 0, 71, 39
1, 76500, Note_on_c, 0, 71, 0
1, 76500, Note_on_c, 0, 74, 39
1, 76560, Tempo, 816327
1, 76560, Note_on_c, 0, 74, 0
1, 76560, Note_on_c, 0, 50, 0
1, 76560, Note_on_c, 0, 57, 0
1, 76560, Note_on_c, 0, 65, 0
1, 76560, Note_on_c, 0, 83, 37
1, 76560, Note_on_c, 0, 81, 37
1, 76560, Note_on_c, 0, 77, 37
1, 76800, Tempo, 895522
1, 76800, Note_on_c, 0, 77, 0
1, 76800, Note_on_c, 0, 81, 0
1, 76800, Note_on_c, 0, 83, 0
1, 76800, Note_on_c, 0, 88, 48
1, 76800, Note_on_c, 0, 76, 33
1, 76800, Control_c, 0, 64, 0
1, 76800, Note_on_c, 0, 57, 27
1, 76800, Note_on_c, 0, 64, 27
1, 76800, Note_on_c, 0, 72, 33
1, 76956, Control_c, 0, 64, 127
1, 77040, Tempo, 810811
1, 77040, Note_on_c, 0, 88, 0
1, 77040, Note_on_c, 0, 83, 43
1, 77520, Tempo, 863309
1, 77520, Note_on_c, 0, 83, 0
1, 77520, Note_on_c, 0, 81, 43
1, 77760, Tempo, 895522
1, 77760, Note_on_c, 0, 81, 0
1, 77760, Note_on_c, 0, 64, 0
1, 77760, Note_on_c, 0, 76, 0
1, 77760, Note_on_c, 0, 57, 0
1, 77760, Note_on_c, 0, 72, 0
1, 77760, Note_on_c, 0, 64, 31
1, 77760, Note_on_c, 0, 76, 42
1, 77760, Note_on_c, 0, 45, 27
1, 77760, Note_on_c, 0, 52, 27
1, 77760, Note_on_c, 0, 61, 33
1, 77772, Control_c, 0, 64, 0
1, 77986, Control_c, 0, 64, 127
1, 78000, Tempo, 810811
1, 78000, Note_on_c, 0, 76, 0
1, 78000, Note_on_c, 0, 71, 37
1, 78480, Note_on_c, 0, 71, 0
1, 78480, Note_on_c, 0, 69, 36
1, 78565, Control_c, 0, 64, 0
1, 78720, Tempo, 833333
1, 78720, Note_on_c, 0, 61, 0
1, 78720, Note_on_c, 0, 52, 0
1, 78720, Note_on_c, 0, 64, 0
1, 78720, Note_on_c, 0, 45, 0
1, 78720, Note_on_c, 0, 57, 37
1, 78720, Note_on_c, 0, 41, 19
1, 78720, Note_on_c, 0, 48, 27
1, 78960, Tempo, 800000
1, 78960, Note_on_c, 0, 48, 0
1, 78960, Note_on_c, 0, 69, 0
1, 78960, Note_on_c, 0, 57, 0
1, 78960, Note_on_c, 0, 41, 0
1, 78960, Note_on_c, 0, 64, 36
1, 78960, Note_on_c, 0, 59, 25
1, 78960, Note_on_c, 0, 43, 22
1, 78960, Note_on_c, 0, 53, 32
1, 79003, Control_c, 0, 64, 127
1, 79440, Note_on_c, 0, 64, 0
1, 79440, Note_on_c, 0, 62, 35
1, 79459, Control_c, 0, 64, 0
1, 79680, Tempo, 764331
1, 79680, Note_on_c, 0, 59, 0
1, 79680, Note_on_c, 0, 53, 0
1, 79680, Note_on_c, 0, 43, 0
1, 79680, Note_on_c, 0, 57, 32
1, 79680, Note_on_c, 0, 45, 23
1, 79680, Note_on_c, 0, 52, 33
1, 79726, Control_c, 0, 64, 127
1, 79740, Note_on_c, 0, 62, 0
1, 79740, Note_on_c, 0, 60, 32
1, 79800, Note_on_c, 0, 60, 0
1, 79800, Note_on_c, 0, 62, 32
1, 79860, Note_on_c, 0, 62, 0
1, 79860, Note_on_c, 0, 64, 32
1, 79920, Tempo, 789474
1, 79920, Note_on_c, 0, 64, 0
1, 79920, Note_on_c, 0, 52, 0
1, 79920, Note_on_c, 0, 45, 0
1, 79920, Note_on_c, 0, 57, 0
1, 79920, Note_on_c, 0, 53, 24
1, 79920, Note_on_c, 0, 57, 34
1, 79920, Note_on_c, 0, 50, 33
1, 79931, Control_c, 0, 64, 0
1, 80400, Note_on_c, 0, 50, 0
1, 80400, Note_on_c, 0, 57, 0
1, 80400, Note_on_c, 0, 53, 0
1, 80400, Note_on_c, 0, 59, 32
1, 80400, Note_on_c, 0, 52, 22
1, 80400, Note_on_c, 0, 55, 31
1, 80640, Tempo, 810811
1, 80640, Note_on_c, 0, 55, 0
1, 80640, Note_on_c, 0, 52, 0
1, 80640, Note_on_c, 0, 59, 0
1, 80880, Note_on_c, 0, 52, 22
1, 80880, Note_on_c, 0, 57, 27
1, 80880, Note_on_c, 0, 45, 19
1, 80880, Note_on_c, 0, 48, 24
1, 80970, Note_on_c, 0, 48, 0
1, 80970, Note_on_c, 0, 52, 0
1, 80970, Note_on_c, 0, 57, 0
1, 80970, Note_on_c, 0, 45, 0
1, 81120, Tempo, 851064
1, 81360, Tempo, 833333
1, 81360, Note_on_c, 0, 50, 20
1, 81360, Note_on_c, 0, 53, 25
1, 81360, Note_on_c, 0, 43, 17
1, 81360, Note_on_c, 0, 47, 21
1, 81420, Note_on_c, 0, 47, 0
1, 81420, Note_on_c, 0, 50, 0
1, 81420, Note_on_c, 0, 53, 0
1, 81420, Note_on_c, 0, 43, 0
1, 81600, Tempo, 800000
1, 81600, Note_on_c, 0, 52, 22
1, 81600, Note_on_c, 0, 57, 27
1, 81600, Note_on_c, 0, 45, 19
1, 81600, Note_on_c, 0, 48, 24
1, 81660, Note_on_c, 0, 48, 0
1, 81660, Note_on_c, 0, 52, 0
1, 81660, Note_on_c, 0, 57, 0
1, 81660, Note_on_c, 0, 45, 0
1, 81840, Note_on_c, 0, 52, 22
1, 81840, Note_on_c, 0, 57, 27
1, 81840, Note_on_c, 0, 45, 19
1, 81840, Note_on_c, 0, 48, 24
1, 81900, Note_on_c, 0, 48, 0
1, 81900, Note_on_c, 0, 52, 0
1, 81900, Note_on_c, 0, 57, 0
1, 81900, Note_on_c, 0, 45, 0
1, 82080, Tempo, 745342
1, 82560, Tempo, 731707
1, 82560, Note_on_c, 0, 34, 25
1, 82560, Note_on_c, 0, 46, 30
1, 82800, Tempo, 705882
1, 82800, Note_on_c, 0, 48, 36
1, 82920, Note_on_c, 0, 48, 0
1, 82920, Note_on_c, 0, 50, 36
1, 83040, Tempo, 731707
1, 83040, Note_on_c, 0, 50, 0
1, 83040, Note_on_c, 0, 46, 0
1, 83040, Note_on_c, 0, 34, 0
1, 83040, Note_on_c, 0, 48, 32
1, 83040, Note_on_c, 0, 52, 38
1, 83040, Note_on_c, 0, 33, 28
1, 83040, Note_on_c, 0, 45, 34
1, 83520, Note_on_c, 0, 45, 0
1, 83520, Note_on_c, 0, 33, 0
1, 83520, Note_on_c, 0, 31, 30
1, 83520, Note_on_c, 0, 43, 36
1, 83760, Tempo, 697674
1, 83760, Note_on_c, 0, 52, 0
1, 83760, Note_on_c, 0, 50, 32
1, 83760, Note_on_c, 0, 53, 38
1, 84000, Tempo, 718563
1, 84000, Note_on_c, 0, 53, 0
1, 84000, Note_on_c, 0, 43, 0
1, 84000, Note_on_c, 0, 50, 0
1, 84000, Note_on_c, 0, 31, 0
1, 84000, Note_on_c, 0, 52, 32
1, 84000, Note_on_c, 0, 55, 38
1, 84000, Note_on_c, 0, 29, 28
1, 84000, Note_on_c, 0, 41, 34
1, 84240, Tempo, 685714
1, 84240, Note_on_c, 0, 55, 0
1, 84240, Note_on_c, 0, 52, 0
1, 84240, Note_on_c, 0, 57, 32
1, 84240, Note_on_c, 0, 53, 38
1, 84480, Tempo, 705882
1, 84480, Note_on_c, 0, 53, 0
1, 84480, Note_on_c, 0, 48, 0
1, 84480, Note_on_c, 0, 41, 0
1, 84480, Note_on_c, 0, 29, 0
1, 84480, Note_on_c, 0, 57, 0
1, 84480, Note_on_c, 0, 55, 36
1, 84480, Note_on_c, 0, 48, 36
1, 84480, Note_on_c, 0, 58, 36
1, 84480, Note_on_c, 0, 28, 26
1, 84480, Note_on_c, 0, 40, 31
1, 84720, Tempo, 685714
1, 84720, Note_on_c, 0, 58, 0
1, 84720, Note_on_c, 0, 55, 0
1, 84720, Note_on_c, 0, 57, 37
1, 84720, Note_on_c, 0, 60, 37
1, 84960, Tempo, 705882
1, 84960, Note_on_c, 0, 60, 0
1, 84960, Note_on_c, 0, 48, 0
1, 84960, Note_on_c, 0, 40, 0
1, 84960, Note_on_c, 0, 28, 0
1, 84960, Note_on_c, 0, 57, 0
1, 84960, Note_on_c, 0, 62, 38
1, 84960, Note_on_c, 0, 53, 32
1, 84960, Note_on_c, 0, 58, 32
1, 84960, Note_on_c, 0, 26, 29
1, 84960, Note_on_c, 0, 38, 35
1, 85200, Tempo, 689655
1, 85200, Note_on_c, 0, 58, 0
1, 85200, Note_on_c, 0, 62, 0
1, 85200, Note_on_c, 0, 53, 0
1, 85200, Note_on_c, 0, 65, 41
1, 85200, Note_on_c, 0, 57, 35
1, 85200, Note_on_c, 0, 60, 35
1, 85440, Tempo, 727273
1, 85440, Note_on_c, 0, 60, 0
1, 85440, Note_on_c, 0, 65, 0
1, 85440, Note_on_c, 0, 38, 0
1, 85440, Note_on_c, 0, 26, 0
1, 85440, Note_on_c, 0, 57, 0
1, 85440, Note_on_c, 0, 67, 42
1, 85440, Note_on_c, 0, 58, 35
1, 85440, Note_on_c, 0, 62, 35
1, 85440, Note_on_c, 0, 24, 32
1, 85440, Note_on_c, 0, 36, 38
1, 85670, Note_on_c, 0, 62, 0
1, 85670, Note_on_c, 0, 67, 0
1, 85670, Note_on_c, 0, 58, 0
1, 85680, Tempo, 705882
1, 85680, Note_on_c, 0, 65, 38
1, 85680, Note_on_c, 0, 57, 32
1, 85680, Note_on_c, 0, 60, 32
1, 85920, Note_on_c, 0, 24, 0
1, 85920, Note_on_c, 0, 36, 0
1, 85920, Note_on_c, 0, 26, 28
1, 85920, Note_on_c, 0, 38, 34
1, 86160, Note_on_c, 0, 57, 0
1, 86160, Note_on_c, 0, 60, 0
1, 86160, Note_on_c, 0, 65, 0
1, 86160, Note_on_c, 0, 58, 30
1, 86160, Note_on_c, 0, 53, 30
1, 86160, Note_on_c, 0, 62, 36
1, 86400, Tempo, 731707
1, 86400, Note_on_c, 0, 62, 0
1, 86400, Note_on_c, 0, 58, 0
1, 86400, Note_on_c, 0, 38, 0
1, 86400, Note_on_c, 0, 26, 0
1, 86400, Note_on_c, 0, 53, 0
1, 86400, Note_on_c, 0, 34, 31
1, 86400, Note_on_c, 0, 46, 37
1, 86640, Tempo, 701754
1, 86640, Note_on_c, 0, 48, 36
1, 86760, Note_on_c, 0, 48, 0
1, 86760, Note_on_c, 0, 50, 36
1, 86880, Tempo, 731707
1, 86880, Note_on_c, 0, 50, 0
1, 86880, Note_on_c, 0, 46, 0
1, 86880, Note_on_c, 0, 34, 0
1, 86880, Note_on_c, 0, 52, 38
1, 86880, Note_on_c, 0, 48, 32
1, 86880, Note_on_c, 0, 33, 28
1, 86880, Note_on_c, 0, 45, 34
1, 87360, Note_on_c, 0, 45, 0
1, 87360, Note_on_c, 0, 33, 0
1, 87360, Note_on_c, 0, 31, 30
1, 87360, Note_on_c, 0, 43, 36
1, 87600, Tempo, 697674
1, 87600, Note_on_c, 0, 52, 0
1, 87600, Note_on_c, 0, 53, 38
1, 87600, Note_on_c, 0, 50, 38
1, 87840, Tempo, 718563
1, 87840, Note_on_c, 0, 50, 0
1, 87840, Note_on_c, 0, 43, 0
1, 87840, Note_on_c, 0, 53, 0
1, 87840, Note_on_c, 0, 31, 0
1, 87840, Note_on_c, 0, 55, 38
1, 87840, Note_on_c, 0, 52, 38
1, 87840, Note_on_c, 0, 29, 28
1, 87840, Note_on_c, 0, 41, 34
1, 88080, Tempo, 685714
1, 88080, Note_on_c, 0, 52, 0
1, 88080, Note_on_c, 0, 55, 0
1, 88080, Note_on_c, 0, 57, 38
1, 88080, Note_on_c, 0, 53, 38
1, 88320, Tempo, 705882
1, 88320, Note_on_c, 0, 53, 0
1, 88320, Note_on_c, 0, 48, 0
1, 88320, Note_on_c, 0, 41, 0
1, 88320, Note_on_c, 0, 29, 0
1, 88320, Note_on_c, 0, 57, 0
1, 88320, Note_on_c, 0, 55, 30
1, 88320, Note_on_c, 0, 48, 36
1, 88320, Note_on_c, 0, 58, 36
1, 88320, Note_on_c, 0, 28, 26
1, 88320, Note_on_c, 0, 40, 31
1, 88560, Tempo, 685714
1, 88560, Note_on_c, 0, 58, 0
1, 88560, Note_on_c, 0, 55, 0
1, 88560, Note_on_c, 0, 57, 31
1, 88560, Note_on_c, 0, 60, 37
1, 88800, Tempo, 705882
1, 88800, Note_on_c, 0, 60, 0
1, 88800, Note_on_c, 0, 48, 0
1, 88800, Note_on_c, 0, 40, 0
1, 88800, Note_on_c, 0, 28, 0
1, 88800, Note_on_c, 0, 57, 0
1, 88800, Note_on_c, 0, 58, 34
1, 88800, Note_on_c, 0, 53, 34
1, 88800, Note_on_c, 0, 62, 40
1, 88800, Note_on_c, 0, 26, 29
1, 88800, Note_on_c, 0, 38, 35
1, 89040, Tempo, 689655
1, 89040, Note_on_c, 0, 62, 0
1, 89040, Note_on_c, 0, 58, 0
1, 89040, Note_on_c, 0, 53, 0
1, 89040, Note_on_c, 0, 60, 35
1, 89040, Note_on_c, 0, 57, 35
1, 89040, Note_on_c, 0, 65, 42
1, 89280, Tempo, 727273
1, 89280, Note_on_c, 0, 65, 0
1, 89280, Note_on_c, 0, 60, 0
1, 89280, Note_on_c, 0, 38, 0
1, 89280, Note_on_c, 0, 26, 0
1, 89280, Note_on_c, 0, 57, 0
1, 89280, Note_on_c, 0, 62, 36
1, 89280, Note_on_c, 0, 67, 44
1, 89280, Note_on_c, 0, 58, 36
1, 89280, Note_on_c, 0, 24, 32
1, 89280, Note_on_c, 0, 36, 38
1, 89510, Note_on_c, 0, 58, 0
1, 89510, Note_on_c, 0, 62, 0
1, 89510, Note_on_c, 0, 67, 0
1, 89520, Tempo, 705882
1, 89520, Note_on_c, 0, 65, 39
1, 89520, Note_on_c, 0, 57, 33
1, 89520, Note_on_c, 0, 60, 33
1, 89760, Note_on_c, 0, 24, 0
1, 89760, Note_on_c, 0, 36, 0
1, 89760, Note_on_c, 0, 48, 41
1, 90000, Note_on_c, 0, 57, 0
1, 90000, Note_on_c, 0, 60, 0
1, 90000, Note_on_c, 0, 65, 0
1, 90000, Note_on_c, 0, 62, 33
1, 90000, Note_on_c, 0, 67, 39
1, 90000, Note_on_c, 0, 58, 33
1, 90230, Note_on_c, 0, 58, 0
1, 90230, Note_on_c, 0, 67, 0
1, 90230, Note_on_c, 0, 62, 0
1, 90240, Tempo, 697674
1, 90240, Note_on_c, 0, 48, 0
1, 90240, Note_on_c, 0, 63, 46
1, 90480, Tempo, 681818
1, 90480, Note_on_c, 0, 65, 39
1, 90600, Note_on_c, 0, 65, 0
1, 90600, Note_on_c, 0, 67, 39
1, 90720, Tempo, 710059
1, 90720, Note_on_c, 0, 67, 0
1, 90720, Note_on_c, 0, 69, 42
1, 90720, Note_on_c, 0, 65, 35
1, 90720, Note_on_c, 0, 62, 45
1, 91180, Tempo, 714286
1, 91200, Tempo, 697674
1, 91200, Note_on_c, 0, 62, 0
1, 91200, Note_on_c, 0, 60, 42
1, 91440, Tempo, 666667
1, 91440, Note_on_c, 0, 69, 0
1, 91440, Note_on_c, 0, 70, 42
1, 91440, Note_on_c, 0, 67, 35
1, 91680, Tempo, 674157
1, 91680, Note_on_c, 0, 67, 0
1, 91680, Note_on_c, 0, 60, 0
1, 91680, Note_on_c, 0, 70, 0
1, 91680, Note_on_c, 0, 72, 42
1, 91680, Note_on_c, 0, 69, 35
1, 91680, Note_on_c, 0, 58, 42
1, 91920, Tempo, 655738
1, 91920, Note_on_c, 0, 69, 0
1, 91920, Note_on_c, 0, 72, 0
1, 91920, Note_on_c, 0, 74, 42
1, 91920, Note_on_c, 0, 70, 35
1, 92160, Tempo, 666667
1, 92160, Note_on_c, 0, 70, 0
1, 92160, Note_on_c, 0, 63, 0
1, 92160, Note_on_c, 0, 58, 0
1, 92160, Note_on_c, 0, 65, 0
1, 92160, Note_on_c, 0, 74, 0
1, 92160, Note_on_c, 0, 72, 33
1, 92160, Note_on_c, 0, 65, 30
1, 92160, Note_on_c, 0, 75, 39
1, 92160, Note_on_c, 0, 63, 36
1, 92160, Note_on_c, 0, 60, 30
1, 92160, Note_on_c, 0, 57, 30
1, 92263, Control_c, 0, 64, 127
1, 92400, Tempo, 652174
1, 92400, Note_on_c, 0, 75, 0
1, 92400, Note_on_c, 0, 72, 0
1, 92400, Note_on_c, 0, 74, 35
1, 92400, Note_on_c, 0, 77, 41
1, 92640, Tempo, 674157
1, 92640, Note_on_c, 0, 77, 0
1, 92640, Note_on_c, 0, 57, 0
1, 92640, Note_on_c, 0, 60, 0
1, 92640, Note_on_c, 0, 65, 0
1, 92640, Note_on_c, 0, 74, 0
1, 92640, Note_on_c, 0, 63, 0
1, 92640, Note_on_c, 0, 72, 30
1, 92640, Note_on_c, 0, 75, 35
1, 92640, Note_on_c, 0, 79, 42
1, 92640, Note_on_c, 0, 67, 36
1, 92640, Note_on_c, 0, 63, 30
1, 92640, Note_on_c, 0, 60, 30
1, 92640, Note_on_c, 0, 55, 30
1, 92645, Control_c, 0, 64, 0
1, 92777, Control_c, 0, 64, 127
1, 92880, Tempo, 677966
1, 92880, Note_on_c, 0, 79, 0
1, 92880, Note_on_c, 0, 75, 0
1, 92880, Note_on_c, 0, 79, 39
1, 92880, Note_on_c, 0, 82, 46
1, 93120, Tempo, 681818
1, 93120, Note_on_c, 0, 82, 0
1, 93120, Note_on_c, 0, 60, 0
1, 93120, Note_on_c, 0, 55, 0
1, 93120, Note_on_c, 0, 67, 0
1, 93120, Note_on_c, 0, 72, 0
1, 93120, Note_on_c, 0, 79, 0
1, 93120, Note_on_c, 0, 63, 0
1, 93120, Note_on_c, 0, 72, 32
1, 93120, Note_on_c, 0, 81, 49
1, 93120, Note_on_c, 0, 84, 49
1, 93120, Note_on_c, 0, 69, 38
1, 93120, Note_on_c, 0, 63, 32
1, 93120, Note_on_c, 0, 60, 32
1, 93120, Note_on_c, 0, 53, 32
1, 93139, Control_c, 0, 64, 0
1, 93292, Control_c, 0, 64, 127
1, 93360, Tempo, 670391
1, 93360, Note_on_c, 0, 84, 0
1, 93360, Note_on_c, 0, 81, 0
1, 93360, Note_on_c, 0, 81, 46
1, 93360, Note_on_c, 0, 77, 46
1, 93600, Tempo, 666667
1, 93600, Note_on_c, 0, 77, 0
1, 93600, Note_on_c, 0, 60, 0
1, 93600, Note_on_c, 0, 53, 0
1, 93600, Note_on_c, 0, 69, 0
1, 93600, Note_on_c, 0, 72, 0
1, 93600, Note_on_c, 0, 81, 0
1, 93600, Note_on_c, 0, 63, 0
1, 93600, Note_on_c, 0, 75, 43
1, 93600, Note_on_c, 0, 72, 27
1, 93600, Note_on_c, 0, 79, 43
1, 93600, Note_on_c, 0, 67, 33
1, 93600, Note_on_c, 0, 63, 27
1, 93600, Note_on_c, 0, 60, 27
1, 93600, Note_on_c, 0, 55, 27
1, 93609, Control_c, 0, 64, 0
1, 93726, Control_c, 0, 64, 127
1, 93840, Tempo, 666667
1, 93840, Note_on_c, 0, 79, 0
1, 93840, Note_on_c, 0, 75, 0
1, 93840, Note_on_c, 0, 72, 35
1, 93840, Note_on_c, 0, 75, 41
1, 94080, Tempo, 701754
1, 94080, Note_on_c, 0, 75, 0
1, 94080, Note_on_c, 0, 60, 0
1, 94080, Note_on_c, 0, 55, 0
1, 94080, Note_on_c, 0, 67, 0
1, 94080, Note_on_c, 0, 72, 0
1, 94080, Note_on_c, 0, 72, 0
1, 94080, Note_on_c, 0, 63, 0
1, 94080, Control_c, 0, 64, 0
1, 94080, Note_on_c, 0, 63, 46
1, 94320, Tempo, 677966
1, 94320, Note_on_c, 0, 65, 39
1, 94440, Note_on_c, 0, 65, 0
1, 94440, Note_on_c, 0, 67, 39
1, 94560, Tempo, 685714
1, 94560, Note_on_c, 0, 67, 0
1, 94560, Note_on_c, 0, 65, 35
1, 94560, Note_on_c, 0, 69, 42
1, 94560, Note_on_c, 0, 62, 45
1, 95020, Tempo, 714286
1, 95040, Tempo, 685714
1, 95040, Note_on_c, 0, 62, 0
1, 95040, Note_on_c, 0, 60, 42
1, 95118, Control_c, 0, 64, 127
1, 95260, Note_on_c, 0, 69, 0
1, 95280, Tempo, 655738
1, 95280, Note_on_c, 0, 70, 42
1, 95280, Note_on_c, 0, 67, 35
1, 95520, Tempo, 681818
1, 95520, Note_on_c, 0, 67, 0
1, 95520, Note_on_c, 0, 60, 0
1, 95520, Note_on_c, 0, 70, 0
1, 95520, Note_on_c, 0, 72, 42
1, 95520, Note_on_c, 0, 69, 35
1, 95520, Note_on_c, 0, 58, 42
1, 95530, Control_c, 0, 64, 0
1, 95626, Control_c, 0, 64, 127
1, 95760, Tempo, 652174
1, 95760, Note_on_c, 0, 69, 0
1, 95760, Note_on_c, 0, 72, 0
1, 95760, Note_on_c, 0, 70, 35
1, 95760, Note_on_c, 0, 74, 42
1, 96000, Tempo, 674157
1, 96000, Note_on_c, 0, 74, 0
1, 96000, Note_on_c, 0, 63, 0
1, 96000, Note_on_c, 0, 58, 0
1, 96000, Note_on_c, 0, 65, 0
1, 96000, Note_on_c, 0, 70, 0
1, 96000, Note_on_c, 0, 75, 39
1, 96000, Note_on_c, 0, 65, 30
1, 96000, Note_on_c, 0, 72, 33
1, 96000, Note_on_c, 0, 63, 36
1, 96000, Note_on_c, 0, 60, 30
1, 96000, Note_on_c, 0, 57, 30
1, 96007, Control_c, 0, 64, 0
1, 96126, Control_c, 0, 64, 127
1, 96240, Tempo, 655738
1, 96240, Note_on_c, 0, 72, 0
1, 96240, Note_on_c, 0, 75, 0
1, 96240, Note_on_c, 0, 77, 41
1, 96240, Note_on_c, 0, 74, 35
1, 96480, Tempo, 681818
1, 96480, Note_on_c, 0, 74, 0
1, 96480, Note_on_c, 0, 57, 0
1, 96480, Note_on_c, 0, 60, 0
1, 96480, Note_on_c, 0, 65, 0
1, 96480, Note_on_c, 0, 77, 0
1, 96480, Note_on_c, 0, 63, 0
1, 96480, Note_on_c, 0, 75, 42
1, 96480, Note_on_c, 0, 72, 30
1, 96480, Note_on_c, 0, 79, 42
1, 96480, Note_on_c, 0, 67, 36
1, 96480, Note_on_c, 0, 63, 30
1, 96480, Note_on_c, 0, 60, 30
1, 96480, Note_on_c, 0, 55, 30
1, 96500, Control_c, 0, 64, 0
1, 96606, Control_c, 0, 64, 127
1, 96720, Note_on_c, 0, 79, 0
1, 96720, Note_on_c, 0, 75, 0
1, 96720, Note_on_c, 0, 82, 47
1, 96720, Note_on_c, 0, 79, 47
1, 96960, Tempo, 693642
1, 96960, Note_on_c, 0, 79, 0
1, 96960, Note_on_c, 0, 60, 0
1, 96960, Note_on_c, 0, 55, 0
1, 96960, Note_on_c, 0, 67, 0
1, 96960, Note_on_c, 0, 72, 0
1, 96960, Note_on_c, 0, 82, 0
1, 96960, Note_on_c, 0, 63, 0
1, 96960, Note_on_c, 0, 76, 35
1, 96960, Note_on_c, 0, 72, 35
1, 96960, Note_on_c, 0, 84, 52
1, 96960, Note_on_c, 0, 69, 52
1, 96960, Note_on_c, 0, 63, 41
1, 96960, Note_on_c, 0, 60, 35
1, 96960, Note_on_c, 0, 53, 35
1, 96969, Control_c, 0, 64, 0
1, 97097, Control_c, 0, 64, 127
1, 97180, Note_on_c, 0, 69, 0
1, 97180, Note_on_c, 0, 84, 0
1, 97200, Tempo, 670391
1, 97200, Note_on_c, 0, 81, 56
1, 97200, Note_on_c, 0, 65, 54
1, 97440, Note_on_c, 0, 65, 0
1, 97440, Note_on_c, 0, 81, 0
1, 97440, Note_on_c, 0, 82, 58
1, 97440, Note_on_c, 0, 67, 56
1, 97680, Tempo, 693642
1, 97680, Note_on_c, 0, 67, 0
1, 97680, Note_on_c, 0, 82, 0
1, 97680, Note_on_c, 0, 84, 60
1, 97680, Note_on_c, 0, 69, 59
1, 97920, Tempo, 677966
1, 97920, Note_on_c, 0, 69, 0
1, 97920, Note_on_c, 0, 53, 0
1, 97920, Note_on_c, 0, 60, 0
1, 97920, Note_on_c, 0, 63, 0
1, 97920, Note_on_c, 0, 76, 0
1, 97920, Note_on_c, 0, 72, 0
1, 97920, Note_on_c, 0, 77, 63
1, 97920, Note_on_c, 0, 74, 54
1, 97920, Control_c, 0, 64, 0
1, 97920, Note_on_c, 0, 34, 54
1, 97920, Note_on_c, 0, 41, 64
1, 97966, Control_c, 0, 64, 127
1, 98140, Note_on_c, 0, 84, 0
1, 98160, Tempo, 655738
1, 98160, Note_on_c, 0, 81, 59
1, 98400, Note_on_c, 0, 81, 0
1, 98400, Note_on_c, 0, 82, 60
1, 98640, Note_on_c, 0, 82, 0
1, 98640, Note_on_c, 0, 84, 60
1, 98880, Tempo, 677966
1, 98880, Note_on_c, 0, 53, 54
1, 98926, Control_c, 0, 64, 0
1, 98965, Control_c, 0, 64, 127
1, 99060, Note_on_c, 0, 53, 0
1, 99100, Note_on_c, 0, 84, 0
1, 99120, Tempo, 655738
1, 99120, Note_on_c, 0, 81, 57
1, 99120, Note_on_c, 0, 65, 46
1, 99300, Note_on_c, 0, 65, 0
1, 99360, Note_on_c, 0, 81, 0
1, 99360, Note_on_c, 0, 82, 58
1, 99600, Tempo, 655738
1, 99600, Note_on_c, 0, 82, 0
1, 99600, Note_on_c, 0, 84, 60
1, 99840, Note_on_c, 0, 77, 0
1, 99840, Note_on_c, 0, 74, 0
1, 99840, Note_on_c, 0, 76, 46
1, 99840, Note_on_c, 0, 73, 39
1, 99840, Control_c, 0, 64, 0
1, 99840, Note_on_c, 0, 65, 53
1, 99883, Control_c, 0, 64, 127
1, 100020, Note_on_c, 0, 65, 0
1, 100080, Tempo, 628272
1, 100080, Note_on_c, 0, 84, 0
1, 100080, Note_on_c, 0, 82, 53
1, 100080, Note_on_c, 0, 77, 51
1, 100200, Note_on_c, 0, 82, 0
1, 100200, Note_on_c, 0, 81, 53
1, 100260, Note_on_c, 0, 77, 0
1, 100320, Tempo, 652174
1, 100320, Note_on_c, 0, 81, 0
1, 100320, Note_on_c, 0, 79, 56
1, 100326, Control_c, 0, 64, 0
1, 100359, Control_c, 0, 64, 127
1, 100560, Tempo, 625000
1, 100560, Note_on_c, 0, 79, 0
1, 100560, Note_on_c, 0, 81, 54
1, 100800, Tempo, 655738
1, 100800, Note_on_c, 0, 81, 0
1, 100800, Note_on_c, 0, 82, 53
1, 100800, Note_on_c, 0, 53, 51
1, 100814, Control_c, 0, 64, 0
1, 100846, Control_c, 0, 64, 127
1, 100980, Note_on_c, 0, 53, 0
1, 101020, Note_on_c, 0, 82, 0
1, 101040, Tempo, 628272
1, 101040, Note_on_c, 0, 79, 51
1, 101040, Note_on_c, 0, 65, 46
1, 101220, Note_on_c, 0, 65, 0
1, 101280, Note_on_c, 0, 79, 0
1, 101280, Note_on_c, 0, 81, 51
1, 101520, Tempo, 615385
1, 101520, Note_on_c, 0, 81, 0
1, 101520, Note_on_c, 0, 82, 51
1, 101760, Tempo, 666667
1, 101760, Note_on_c, 0, 82, 0
1, 101760, Note_on_c, 0, 73, 0
1, 101760, Note_on_c, 0, 34, 0
1, 101760, Note_on_c, 0, 41, 0
1, 101760, Note_on_c, 0, 76, 0
1, 101760, Note_on_c, 0, 77, 63
1, 101760, Note_on_c, 0, 84, 60
1, 101760, Note_on_c, 0, 74, 54
1, 101760, Control_c, 0, 64, 0
1, 101760, Note_on_c, 0, 34, 54
1, 101760, Note_on_c, 0, 41, 64
1, 101806, Control_c, 0, 64, 127
1, 101980, Note_on_c, 0, 84, 0
1, 102000, Tempo, 641711
1, 102000, Note_on_c, 0, 81, 57
1, 102240, Note_on_c, 0, 81, 0
1, 102240, Note_on_c, 0, 82, 58
1, 102480, Note_on_c, 0, 82, 0
1, 102480, Note_on_c, 0, 84, 60
1, 102720, Note_on_c, 0, 53, 54
1, 102727, Control_c, 0, 64, 0
1, 102770, Control_c, 0, 64, 127
1, 102900, Note_on_c, 0, 53, 0
1, 102940, Note_on_c, 0, 84, 0
1, 102960, Tempo, 641711
1, 102960, Note_on_c, 0, 81, 54
1, 102960, Note_on_c, 0, 65, 47
1, 103140, Note_on_c, 0, 65, 0
1, 103200, Tempo, 609137
1, 103200, Note_on_c, 0, 81, 0
1, 103200, Note_on_c, 0, 82, 54
1, 103440, Tempo, 618557
1, 103440, Note_on_c, 0, 82, 0
1, 103440, Note_on_c, 0, 84, 54
1, 103680, Tempo, 638298
1, 103680, Note_on_c, 0, 77, 0
1, 103680, Note_on_c, 0, 74, 0
1, 103680, Note_on_c, 0, 76, 46
1, 103680, Note_on_c, 0, 73, 39
1, 103680, Control_c, 0, 64, 0
1, 103680, Note_on_c, 0, 65, 53
1, 103860, Note_on_c, 0, 65, 0
1, 103900, Note_on_c, 0, 84, 0
1, 103920, Tempo, 615385
1, 103920, Note_on_c, 0, 82, 53
1, 103920, Note_on_c, 0, 77, 47
1, 104040, Note_on_c, 0, 82, 0
1, 104040, Note_on_c, 0, 81, 53
1, 104100, Note_on_c, 0, 77, 0
1, 104160, Tempo, 631579
1, 104160, Note_on_c, 0, 81, 0
1, 104160, Note_on_c, 0, 79, 56
1, 104400, Tempo, 612245
1, 104400, Note_on_c, 0, 79, 0
1, 104400, Note_on_c, 0, 81, 54
1, 104640, Tempo, 652174
1, 104640, Note_on_c, 0, 81, 0
1, 104640, Note_on_c, 0, 82, 54
1, 104820, Note_on_c, 0, 82, 0
1, 104880, Tempo, 638298
1, 104880, Note_on_c, 0, 67, 42
1, 105120, Tempo, 648649
1, 105120, Note_on_c, 0, 67, 0
1, 105120, Note_on_c, 0, 69, 38
1, 105360, Tempo, 677966
1, 105360, Note_on_c, 0, 69, 0
1, 105360, Note_on_c, 0, 70, 36
1, 105600, Tempo, 652174
1, 105600, Note_on_c, 0, 70, 0
1, 105600, Note_on_c, 0, 73, 0
1, 105600, Note_on_c, 0, 34, 0
1, 105600, Note_on_c, 0, 41, 0
1, 105600, Note_on_c, 0, 76, 0
1, 105600, Note_on_c, 0, 71, 35
1, 105600, Note_on_c, 0, 76, 38
1, 105600, Note_on_c, 0, 73, 32
1, 105600, Note_on_c, 0, 33, 33
1, 105600, Note_on_c, 0, 40, 39
1, 105657, Control_c, 0, 64, 127
1, 105840, Tempo, 618557
1, 105840, Note_on_c, 0, 71, 0
1, 105840, Note_on_c, 0, 68, 35
1, 106080, Tempo, 625000
1, 106080, Note_on_c, 0, 68, 0
1, 106080, Note_on_c, 0, 69, 35
1, 106093, Control_c, 0, 64, 0
1, 106172, Control_c, 0, 64, 127
1, 106320, Note_on_c, 0, 69, 0
1, 106320, Note_on_c, 0, 71, 36
1, 106560, Tempo, 638298
1, 106560, Note_on_c, 0, 52, 33
1, 106564, Control_c, 0, 64, 0
1, 106617, Control_c, 0, 64, 127
1, 106740, Note_on_c, 0, 52, 0
1, 106780, Note_on_c, 0, 71, 0
1, 106800, Tempo, 625000
1, 106800, Note_on_c, 0, 68, 35
1, 106800, Note_on_c, 0, 64, 27
1, 106980, Note_on_c, 0, 64, 0
1, 107040, Tempo, 609137
1, 107040, Note_on_c, 0, 68, 0
1, 107040, Note_on_c, 0, 69, 35
1, 107054, Control_c, 0, 64, 0
1, 107104, Control_c, 0, 64, 127
1, 107280, Tempo, 606061
1, 107280, Note_on_c, 0, 69, 0
1, 107280, Note_on_c, 0, 71, 36
1, 107520, Tempo, 618557
1, 107520, Note_on_c, 0, 40, 0
1, 107520, Note_on_c, 0, 33, 0
1, 107520, Note_on_c, 0, 76, 0
1, 107520, Note_on_c, 0, 73, 0
1, 107520, Note_on_c, 0, 75, 30
1, 107520, Note_on_c, 0, 72, 25
1, 107520, Control_c, 0, 64, 0
1, 107520, Note_on_c, 0, 90, 44
1, 107580, Control_c, 0, 64, 127
1, 107700, Note_on_c, 0, 90, 0
1, 107760, Tempo, 603015
1, 107760, Note_on_c, 0, 71, 0
1, 107760, Note_on_c, 0, 69, 35
1, 107880, Note_on_c, 0, 69, 0
1, 107880, Note_on_c, 0, 68, 35
1, 107982, Control_c, 0, 64, 0
1, 108000, Tempo, 618557
1, 108000, Note_on_c, 0, 68, 0
1, 108000, Note_on_c, 0, 66, 35
1, 108000, Note_on_c, 0, 87, 44
1, 108043, Control_c, 0, 64, 127
1, 108180, Note_on_c, 0, 87, 0
1, 108240, Tempo, 603015
1, 108240, Note_on_c, 0, 66, 0
1, 108240, Note_on_c, 0, 68, 36
1, 108480, Tempo, 618557
1, 108480, Note_on_c, 0, 68, 0
1, 108480, Note_on_c, 0, 69, 37
1, 108480, Note_on_c, 0, 84, 43
1, 108494, Control_c, 0, 64, 0
1, 108561, Control_c, 0, 64, 127
1, 108660, Note_on_c, 0, 84, 0
1, 108700, Note_on_c, 0, 69, 0
1, 108720, Tempo, 603015
1, 108720, Note_on_c, 0, 66, 36
1, 108960, Note_on_c, 0, 66, 0
1, 108960, Note_on_c, 0, 68, 36
1, 108960, Note_on_c, 0, 81, 39
1, 108981, Control_c, 0, 64, 0
1, 109052, Control_c, 0, 64, 127
1, 109140, Note_on_c, 0, 81, 0
1, 109200, Note_on_c, 0, 68, 0
1, 109200, Note_on_c, 0, 69, 37
1, 109440, Tempo, 638298
1, 109440, Note_on_c, 0, 69, 0
1, 109440, Note_on_c, 0, 72, 0
1, 109440, Note_on_c, 0, 75, 0
1, 109440, Note_on_c, 0, 71, 35
1, 109440, Note_on_c, 0, 76, 38
1, 109440, Note_on_c, 0, 73, 38
1, 109440, Note_on_c, 0, 33, 39
1, 109440, Note_on_c, 0, 40, 39
1, 109456, Control_c, 0, 64, 0
1, 109483, Control_c, 0, 64, 127
1, 109680, Tempo, 615385
1, 109680, Note_on_c, 0, 71, 0
1, 109680, Note_on_c, 0, 68, 35
1, 109920, Tempo, 621762
1, 109920, Note_on_c, 0, 68, 0
1, 109920, Note_on_c, 0, 69, 35
1, 109934, Control_c, 0, 64, 0
1, 109980, Control_c, 0, 64, 127
1, 110160, Note_on_c, 0, 69, 0
1, 110160, Note_on_c, 0, 71, 36
1, 110400, Tempo, 631579
1, 110400, Note_on_c, 0, 52, 33
1, 110422, Control_c, 0, 64, 0
1, 110467, Control_c, 0, 64, 127
1, 110580, Note_on_c, 0, 52, 0
1, 110620, Note_on_c, 0, 71, 0
1, 110640, Tempo, 615385
1, 110640, Note_on_c, 0, 68, 35
1, 110640, Note_on_c, 0, 64, 27
1, 110820, Note_on_c, 0, 64, 0
1, 110880, Tempo, 609137
1, 110880, Note_on_c, 0, 68, 0
1, 110880, Note_on_c, 0, 69, 35
1, 110891, Control_c, 0, 64, 0
1, 110937, Control_c, 0, 64, 127
1, 111120, Tempo, 606061
1, 111120, Note_on_c, 0, 69, 0
1, 111120, Note_on_c, 0, 71, 36
1, 111360, Tempo, 618557
1, 111360, Note_on_c, 0, 40, 0
1, 111360, Note_on_c, 0, 33, 0
1, 111360, Note_on_c, 0, 76, 0
1, 111360, Note_on_c, 0, 73, 0
1, 111360, Note_on_c, 0, 72, 30
1, 111360, Note_on_c, 0, 75, 30
1, 111360, Control_c, 0, 64, 0
1, 111360, Note_on_c, 0, 66, 37
1, 111380, Tempo, 635257
1, 111440, Control_c, 0, 64, 127
1, 111600, Tempo, 619323
1, 111600, Note_on_c, 0, 66, 0
1, 111600, Note_on_c, 0, 71, 0
1, 111600, Note_on_c, 0, 69, 35
1, 111720, Note_on_c, 0, 69, 0
1, 111720, Note_on_c, 0, 68, 35
1, 111840, Tempo, 635257
1, 111840, Note_on_c, 0, 68, 0
1, 111840, Note_on_c, 0, 66, 35
1, 111840, Note_on_c, 0, 63, 37
1, 111848, Control_c, 0, 64, 0
1, 111920, Control_c, 0, 64, 127
1, 112080, Tempo, 619323
1, 112080, Note_on_c, 0, 63, 0
1, 112080, Note_on_c, 0, 66, 0
1, 112080, Note_on_c, 0, 68, 36
1, 112320, Tempo, 635257
1, 112320, Note_on_c, 0, 68, 0
1, 112320, Note_on_c, 0, 69, 37
1, 112320, Note_on_c, 0, 60, 37
1, 112340, Control_c, 0, 64, 0
1, 112435, Control_c, 0, 64, 127
1, 112540, Note_on_c, 0, 69, 0
1, 112560, Tempo, 619323
1, 112560, Note_on_c, 0, 60, 0
1, 112560, Note_on_c, 0, 66, 36
1, 112800, Note_on_c, 0, 66, 0
1, 112800, Note_on_c, 0, 68, 36
1, 112800, Note_on_c, 0, 57, 35
1, 112820, Control_c, 0, 64, 0
1, 112903, Control_c, 0, 64, 127
1, 113040, Note_on_c, 0, 57, 0
1, 113040, Note_on_c, 0, 68, 0
1, 113040, Note_on_c, 0, 69, 37
1, 113280, Tempo, 622407
1, 113280, Note_on_c, 0, 69, 0
1, 113280, Note_on_c, 0, 75, 0
1, 113280, Note_on_c, 0, 72, 0
1, 113280, Note_on_c, 0, 82, 41
1, 113280, Note_on_c, 0, 74, 30
1, 113280, Note_on_c, 0, 76, 30
1, 113280, Note_on_c, 0, 70, 35
1, 113280, Note_on_c, 0, 31, 26
1, 113280, Note_on_c, 0, 43, 31
1, 113281, Tempo, 606061
1, 113284, Control_c, 0, 64, 0
1, 113450, Control_c, 0, 64, 127
1, 113520, Tempo, 615385
1, 113520, Note_on_c, 0, 70, 0
1, 113520, Note_on_c, 0, 82, 0
1, 113520, Note_on_c, 0, 67, 31
1, 113520, Note_on_c, 0, 79, 37
1, 113760, Tempo, 588235
1, 113760, Note_on_c, 0, 79, 0
1, 113760, Note_on_c, 0, 43, 0
1, 113760, Note_on_c, 0, 76, 0
1, 113760, Note_on_c, 0, 74, 0
1, 113760, Note_on_c, 0, 67, 0
1, 113760, Note_on_c, 0, 31, 0
1, 113760, Note_on_c, 0, 72, 25
1, 113760, Note_on_c, 0, 81, 37
1, 113760, Note_on_c, 0, 69, 31
1, 113760, Note_on_c, 0, 76, 30
1, 113760, Note_on_c, 0, 36, 26
1, 113760, Note_on_c, 0, 48, 31
1, 113776, Control_c, 0, 64, 0
1, 113944, Control_c, 0, 64, 127
1, 114000, Tempo, 597015
1, 114000, Note_on_c, 0, 69, 0
1, 114000, Note_on_c, 0, 81, 0
1, 114000, Note_on_c, 0, 82, 42
1, 114000, Note_on_c, 0, 70, 35
1, 114240, Note_on_c, 0, 76, 0
1, 114240, Note_on_c, 0, 36, 0
1, 114240, Note_on_c, 0, 72, 0
1, 114240, Note_on_c, 0, 48, 0
1, 114240, Note_on_c, 0, 76, 38
1, 114240, Note_on_c, 0, 74, 32
1, 114240, Note_on_c, 0, 43, 31
1, 114240, Note_on_c, 0, 55, 37
1, 114255, Control_c, 0, 64, 0
1, 114438, Control_c, 0, 64, 127
1, 114480, Tempo, 609137
1, 114480, Note_on_c, 0, 70, 0
1, 114480, Note_on_c, 0, 82, 0
1, 114480, Note_on_c, 0, 79, 39
1, 114480, Note_on_c, 0, 67, 33
1, 114720, Tempo, 597015
1, 114720, Note_on_c, 0, 67, 0
1, 114720, Note_on_c, 0, 55, 0
1, 114720, Note_on_c, 0, 76, 0
1, 114720, Note_on_c, 0, 74, 0
1, 114720, Note_on_c, 0, 79, 0
1, 114720, Note_on_c, 0, 43, 0
1, 114720, Note_on_c, 0, 81, 39
1, 114720, Note_on_c, 0, 72, 27
1, 114720, Note_on_c, 0, 76, 32
1, 114720, Note_on_c, 0, 69, 33
1, 114720, Note_on_c, 0, 48, 27
1, 114720, Note_on_c, 0, 60, 33
1, 114734, Control_c, 0, 64, 0
1, 114890, Control_c, 0, 64, 127
1, 114960, Tempo, 638298
1, 114960, Note_on_c, 0, 69, 0
1, 114960, Note_on_c, 0, 81, 0
1, 114960, Note_on_c, 0, 82, 39
1, 114960, Note_on_c, 0, 70, 33
1, 115180, Tempo, 594177
1, 115200, Tempo, 627615
1, 115200, Note_on_c, 0, 70, 0
1, 115200, Note_on_c, 0, 60, 0
1, 115200, Note_on_c, 0, 76, 0
1, 115200, Note_on_c, 0, 72, 0
1, 115200, Note_on_c, 0, 82, 0
1, 115200, Note_on_c, 0, 48, 0
1, 115200, Note_on_c, 0, 70, 35
1, 115200, Note_on_c, 0, 74, 45
1, 115200, Note_on_c, 0, 82, 42
1, 115200, Control_c, 0, 64, 0
1, 115200, Note_on_c, 0, 62, 45
1, 115200, Note_on_c, 0, 58, 35
1, 115200, Note_on_c, 0, 55, 35
1, 115249, Control_c, 0, 64, 127
1, 115420, Note_on_c, 0, 62, 0
1, 115420, Note_on_c, 0, 74, 0
1, 115440, Tempo, 594177
1, 115440, Note_on_c, 0, 77, 47
1, 115440, Note_on_c, 0, 65, 47
1, 115920, Tempo, 572847
1, 115920, Note_on_c, 0, 65, 0
1, 115920, Note_on_c, 0, 77, 0
1, 115920, Note_on_c, 0, 76, 46
1, 115920, Note_on_c, 0, 64, 45
1, 115934, Control_c, 0, 64, 0
1, 116040, Note_on_c, 0, 64, 0
1, 116040, Note_on_c, 0, 76, 0
1, 116040, Note_on_c, 0, 77, 46
1, 116040, Note_on_c, 0, 65, 45
1, 116160, Tempo, 597431
1, 116160, Note_on_c, 0, 65, 0
1, 116160, Note_on_c, 0, 77, 0
1, 116160, Note_on_c, 0, 74, 52
1, 116160, Note_on_c, 0, 62, 49
1, 116400, Tempo, 578815
1, 116400, Note_on_c, 0, 62, 0
1, 116400, Note_on_c, 0, 74, 0
1, 116400, Note_on_c, 0, 72, 48
1, 116400, Note_on_c, 0, 60, 46
1, 116520, Note_on_c, 0, 60, 0
1, 116520, Note_on_c, 0, 72, 0
1, 116520, Note_on_c, 0, 74, 48
1, 116520, Note_on_c, 0, 62, 46
1, 116640, Tempo, 597431
1, 116640, Note_on_c, 0, 62, 0
1, 116640, Note_on_c, 0, 74, 0
1, 116640, Note_on_c, 0, 70, 54
1, 116640, Note_on_c, 0, 58, 52
1, 116732, Control_c, 0, 64, 127
1, 116880, Note_on_c, 0, 58, 0
1, 116880, Note_on_c, 0, 70, 0
1, 116880, Note_on_c, 0, 74, 52
1, 116880, Note_on_c, 0, 62, 49
1, 117101, Tempo, 602107
1, 117120, Tempo, 592827
1, 117120, Note_on_c, 0, 62, 0
1, 117120, Note_on_c, 0, 55, 0
1, 117120, Note_on_c, 0, 58, 0
1, 117120, Note_on_c, 0, 70, 0
1, 117120, Note_on_c, 0, 74, 0
1, 117120, Note_on_c, 0, 82, 0
1, 117120, Note_on_c, 0, 70, 40
1, 117120, Note_on_c, 0, 74, 36
1, 117120, Note_on_c, 0, 76, 36
1, 117120, Note_on_c, 0, 82, 48
1, 117120, Control_c, 0, 64, 0
1, 117120, Note_on_c, 0, 31, 31
1, 117120, Note_on_c, 0, 43, 37
1, 117290, Control_c, 0, 64, 127
1, 117360, Tempo, 608088
1, 117360, Note_on_c, 0, 82, 0
1, 117360, Note_on_c, 0, 70, 0
1, 117360, Note_on_c, 0, 79, 45
1, 117360, Note_on_c, 0, 67, 37
1, 117600, Tempo, 582524
1, 117600, Note_on_c, 0, 67, 0
1, 117600, Note_on_c, 0, 43, 0
1, 117600, Note_on_c, 0, 76, 0
1, 117600, Note_on_c, 0, 74, 0
1, 117600, Note_on_c, 0, 79, 0
1, 117600, Note_on_c, 0, 31, 0
1, 117600, Note_on_c, 0, 76, 36
1, 117600, Note_on_c, 0, 72, 30
1, 117600, Note_on_c, 0, 81, 45
1, 117600, Note_on_c, 0, 69, 37
1, 117600, Note_on_c, 0, 36, 31
1, 117600, Note_on_c, 0, 48, 37
1, 117616, Control_c, 0, 64, 0
1, 117769, Control_c, 0, 64, 127
1, 117840, Tempo, 588235
1, 117840, Note_on_c, 0, 69, 0
1, 117840, Note_on_c, 0, 81, 0
1, 117840, Note_on_c, 0, 82, 49
1, 117840, Note_on_c, 0, 70, 41
1, 118080, Note_on_c, 0, 36, 0
1, 118080, Note_on_c, 0, 72, 0
1, 118080, Note_on_c, 0, 76, 0
1, 118080, Note_on_c, 0, 48, 0
1, 118080, Note_on_c, 0, 76, 48
1, 118080, Note_on_c, 0, 74, 40
1, 118080, Note_on_c, 0, 43, 36
1, 118080, Note_on_c, 0, 55, 44
1, 118098, Control_c, 0, 64, 0
1, 118235, Control_c, 0, 64, 127
1, 118320, Tempo, 601866
1, 118320, Note_on_c, 0, 70, 0
1, 118320, Note_on_c, 0, 82, 0
1, 118320, Note_on_c, 0, 79, 46
1, 118320, Note_on_c, 0, 67, 39
1, 118560, Tempo, 589912
1, 118560, Note_on_c, 0, 67, 0
1, 118560, Note_on_c, 0, 55, 0
1, 118560, Note_on_c, 0, 76, 0
1, 118560, Note_on_c, 0, 74, 0
1, 118560, Note_on_c, 0, 79, 0
1, 118560, Note_on_c, 0, 43, 0
1, 118560, Note_on_c, 0, 76, 38
1, 118560, Note_on_c, 0, 72, 32
1, 118560, Note_on_c, 0, 81, 46
1, 118560, Note_on_c, 0, 69, 39
1, 118560, Note_on_c, 0, 48, 33
1, 118560, Note_on_c, 0, 60, 39
1, 118573, Control_c, 0, 64, 0
1, 118730, Control_c, 0, 64, 127
1, 118800, Tempo, 630716
1, 118800, Note_on_c, 0, 69, 0
1, 118800, Note_on_c, 0, 81, 0
1, 118800, Note_on_c, 0, 82, 46
1, 118800, Note_on_c, 0, 70, 39
1, 119000, Tempo, 611185
1, 119020, Tempo, 573394
1, 119021, Tempo, 591075
1, 119040, Tempo, 624350
1, 119040, Note_on_c, 0, 70, 0
1, 119040, Note_on_c, 0, 60, 0
1, 119040, Note_on_c, 0, 72, 0
1, 119040, Note_on_c, 0, 76, 0
1, 119040, Note_on_c, 0, 82, 0
1, 119040, Note_on_c, 0, 48, 0
1, 119040, Note_on_c, 0, 70, 41
1, 119040, Note_on_c, 0, 74, 54
1, 119040, Note_on_c, 0, 82, 49
1, 119040, Control_c, 0, 64, 0
1, 119040, Note_on_c, 0, 62, 54
1, 119040, Note_on_c, 0, 58, 41
1, 119040, Note_on_c, 0, 55, 41
1, 119061, Tempo, 612933
1, 119104, Control_c, 0, 64, 127
1, 119260, Note_on_c, 0, 62, 0
1, 119260, Note_on_c, 0, 74, 0
1, 119280, Tempo, 580271
1, 119280, Note_on_c, 0, 77, 58
1, 119280, Note_on_c, 0, 65, 58
1, 119760, Tempo, 559441
1, 119760, Note_on_c, 0, 65, 0
1, 119760, Note_on_c, 0, 77, 0
1, 119760, Note_on_c, 0, 76, 57
1, 119760, Note_on_c, 0, 64, 54
1, 119774, Control_c, 0, 64, 0
1, 119880, Note_on_c, 0, 64, 0
1, 119880, Note_on_c, 0, 76, 0
1, 119880, Note_on_c, 0, 77, 57
1, 119880, Note_on_c, 0, 65, 54
1, 120000, Tempo, 583487
1, 120000, Note_on_c, 0, 65, 0
1, 120000, Note_on_c, 0, 77, 0
1, 120000, Note_on_c, 0, 74, 63
1, 120000, Note_on_c, 0, 62, 60
1, 120240, Tempo, 565238
1, 120240, Note_on_c, 0, 62, 0
1, 120240, Note_on_c, 0, 74, 0
1, 120240, Note_on_c, 0, 72, 59
1, 120240, Note_on_c, 0, 60, 57
1, 120360, Note_on_c, 0, 60, 0
1, 120360, Note_on_c, 0, 72, 0
1, 120360, Note_on_c, 0, 74, 59
1, 120360, Note_on_c, 0, 62, 57
1, 120480, Tempo, 583487
1, 120480, Note_on_c, 0, 62, 0
1, 120480, Note_on_c, 0, 74, 0
1, 120480, Note_on_c, 0, 70, 64
1, 120480, Note_on_c, 0, 58, 63
1, 120551, Control_c, 0, 64, 127
1, 120720, Tempo, 618557
1, 120720, Note_on_c, 0, 58, 0
1, 120720, Note_on_c, 0, 70, 0
1, 120720, Note_on_c, 0, 74, 63
1, 120720, Note_on_c, 0, 62, 60
1, 120940, Note_on_c, 0, 62, 0
1, 120940, Note_on_c, 0, 74, 0
1, 120960, Tempo, 612933
1, 120960, Note_on_c, 0, 58, 0
1, 120960, Note_on_c, 0, 70, 0
1, 120960, Note_on_c, 0, 55, 0
1, 120960, Note_on_c, 0, 82, 0
1, 120960, Note_on_c, 0, 70, 45
1, 120960, Note_on_c, 0, 77, 58
1, 120960, Note_on_c, 0, 74, 53
1, 120960, Note_on_c, 0, 65, 58
1, 120960, Note_on_c, 0, 58, 45
1, 120960, Note_on_c, 0, 62, 53
1, 120968, Control_c, 0, 64, 0
1, 121101, Control_c, 0, 64, 127
1, 121180, Note_on_c, 0, 65, 0
1, 121180, Note_on_c, 0, 77, 0
1, 121200, Tempo, 580271
1, 121200, Note_on_c, 0, 81, 62
1, 121200, Note_on_c, 0, 69, 62
1, 121680, Tempo, 559441
1, 121680, Note_on_c, 0, 69, 0
1, 121680, Note_on_c, 0, 81, 0
1, 121680, Note_on_c, 0, 79, 60
1, 121680, Note_on_c, 0, 67, 58
1, 121690, Control_c, 0, 64, 0
1, 121800, Note_on_c, 0, 67, 0
1, 121800, Note_on_c, 0, 79, 0
1, 121800, Note_on_c, 0, 81, 60
1, 121800, Note_on_c, 0, 69, 58
1, 121920, Tempo, 583487
1, 121920, Note_on_c, 0, 69, 0
1, 121920, Note_on_c, 0, 81, 0
1, 121920, Note_on_c, 0, 77, 67
1, 121920, Note_on_c, 0, 65, 63
1, 122160, Tempo, 565238
1, 122160, Note_on_c, 0, 65, 0
1, 122160, Note_on_c, 0, 77, 0
1, 122160, Note_on_c, 0, 76, 63
1, 122160, Note_on_c, 0, 64, 60
1, 122280, Note_on_c, 0, 64, 0
1, 122280, Note_on_c, 0, 76, 0
1, 122280, Note_on_c, 0, 77, 63
1, 122280, Note_on_c, 0, 65, 60
1, 122400, Tempo, 583487
1, 122400, Note_on_c, 0, 65, 0
1, 122400, Note_on_c, 0, 77, 0
1, 122400, Note_on_c, 0, 74, 69
1, 122400, Note_on_c, 0, 62, 67
1, 122485, Control_c, 0, 64, 127
1, 122640, Tempo, 609137
1, 122640, Note_on_c, 0, 62, 0
1, 122640, Note_on_c, 0, 74, 0
1, 122640, Note_on_c, 0, 77, 67
1, 122640, Note_on_c, 0, 65, 63
1, 122880, Note_on_c, 0, 65, 0
1, 122880, Note_on_c, 0, 62, 0
1, 122880, Note_on_c, 0, 58, 0
1, 122880, Note_on_c, 0, 70, 0
1, 122880, Note_on_c, 0, 77, 0
1, 122880, Note_on_c, 0, 74, 0
1, 122880, Note_on_c, 0, 84, 54
1, 122880, Note_on_c, 0, 60, 55
1, 122880, Note_on_c, 0, 62, 55
1, 122880, Note_on_c, 0, 67, 55
1, 122880, Note_on_c, 0, 65, 55
1, 122880, Note_on_c, 0, 70, 66
1, 122889, Control_c, 0, 64, 0
1, 122900, Tempo, 606061
1, 122915, Control_c, 0, 64, 127
1, 122920, Tempo, 603015
1, 122940, Note_on_c, 0, 86, 48
1, 122944, Note_on_c, 0, 84, 0
1, 122960, Tempo, 600000
1, 122980, Tempo, 597015
1, 123000, Tempo, 594059
1, 123000, Note_on_c, 0, 84, 54
1, 123004, Note_on_c, 0, 86, 0
1, 123020, Tempo, 591133
1, 123060, Note_on_c, 0, 86, 49
1, 123064, Note_on_c, 0, 84, 0
1, 123080, Tempo, 612245
1, 123100, Tempo, 618557
1, 123120, Tempo, 621762
1, 123120, Note_on_c, 0, 84, 54
1, 123124, Note_on_c, 0, 86, 0
1, 123180, Note_on_c, 0, 86, 49
1, 123184, Note_on_c, 0, 84, 0
1, 123200, Tempo, 597015
1, 123240, Tempo, 594059
1, 123240, Note_on_c, 0, 84, 54
1, 123244, Note_on_c, 0, 86, 0
1, 123260, Tempo, 591133
1, 123280, Tempo, 588235
1, 123300, Note_on_c, 0, 86, 49
1, 123304, Note_on_c, 0, 84, 0
1, 123360, Tempo, 597015
1, 123360, Note_on_c, 0, 65, 0
1, 123360, Note_on_c, 0, 62, 0
1, 123360, Note_on_c, 0, 67, 0
1, 123360, Note_on_c, 0, 60, 0
1, 123360, Note_on_c, 0, 70, 0
1, 123360, Note_on_c, 0, 84, 54
1, 123360, Note_on_c, 0, 55, 62
1, 123364, Note_on_c, 0, 86, 0
1, 123380, Tempo, 606061
1, 123400, Tempo, 609137
1, 123420, Tempo, 612245
1, 123420, Note_on_c, 0, 84, 0
1, 123420, Note_on_c, 0, 86, 52
1, 123440, Tempo, 615385
1, 123480, Note_on_c, 0, 84, 47
1, 123484, Note_on_c, 0, 86, 0
1, 123540, Note_on_c, 0, 86, 52
1, 123544, Note_on_c, 0, 84, 0
1, 123560, Tempo, 609137
1, 123580, Tempo, 600000
1, 123600, Tempo, 594059
1, 123600, Note_on_c, 0, 84, 48
1, 123604, Note_on_c, 0, 86, 0
1, 123660, Note_on_c, 0, 86, 53
1, 123664, Note_on_c, 0, 84, 0
1, 123720, Note_on_c, 0, 84, 49
1, 123724, Note_on_c, 0, 86, 0
1, 123780, Note_on_c, 0, 86, 51
1, 123784, Note_on_c, 0, 84, 0
1, 123800, Tempo, 618557
1, 123840, Tempo, 625000
1, 123840, Note_on_c, 0, 55, 0
1, 123840, Note_on_c, 0, 84, 54
1, 123840, Note_on_c, 0, 60, 80
1, 123844, Note_on_c, 0, 86, 0
1, 123880, Tempo, 628272
1, 123900, Note_on_c, 0, 84, 0
1, 123900, Note_on_c, 0, 86, 51
1, 123920, Tempo, 625000
1, 123940, Tempo, 618557
1, 123960, Tempo, 615385
1, 123960, Note_on_c, 0, 86, 0
1, 123960, Note_on_c, 0, 84, 56
1, 123980, Tempo, 612245
1, 124020, Note_on_c, 0, 84, 0
1, 124020, Note_on_c, 0, 86, 53
1, 124040, Tempo, 615385
1, 124060, Tempo, 621762
1, 124080, Tempo, 625000
1, 124080, Note_on_c, 0, 86, 0
1, 124080, Note_on_c, 0, 84, 58
1, 124100, Tempo, 628272
1, 124140, Tempo, 631579
1, 124140, Note_on_c, 0, 84, 0
1, 124140, Note_on_c, 0, 86, 56
1, 124200, Note_on_c, 0, 86, 0
1, 124200, Note_on_c, 0, 84, 64
1, 124220, Tempo, 618557
1, 124240, Tempo, 609137
1, 124260, Note_on_c, 0, 84, 0
1, 124260, Note_on_c, 0, 86, 60
1, 124320, Note_on_c, 0, 86, 0
1, 124320, Note_on_c, 0, 60, 0
1, 124320, Note_on_c, 0, 84, 68
1, 124320, Note_on_c, 0, 48, 77
1, 124380, Tempo, 618557
1, 124380, Note_on_c, 0, 84, 0
1, 124380, Note_on_c, 0, 86, 65
1, 124400, Tempo, 621762
1, 124420, Tempo, 618557
1, 124440, Tempo, 615385
1, 124440, Note_on_c, 0, 86, 0
1, 124440, Note_on_c, 0, 84, 77
1, 124480, Tempo, 612245
1, 124500, Note_on_c, 0, 84, 0
1, 124500, Note_on_c, 0, 86, 71
1, 124548, Tempo, 705882
1, 124560, Note_on_c, 0, 86, 0
1, 124560, Note_on_c, 0, 84, 86
1, 124568, Tempo, 710059
1, 124580, Tempo, 714286
1, 124588, Tempo, 718563
1, 124600, Tempo, 722892
1, 124608, Tempo, 727273
1, 124620, Tempo, 731707
1, 124620, Note_on_c, 0, 84, 0
1, 124620, Note_on_c, 0, 86, 90
1, 124628, Tempo, 736196
1, 124648, Tempo, 740741
1, 124660, Tempo, 745342
1, 124668, Tempo, 750000
1, 124680, Tempo, 754717
1, 124680, Note_on_c, 0, 86, 0
1, 124680, Note_on_c, 0, 88, 96
1, 124688, Tempo, 759494
1, 124700, Tempo, 764331
1, 124708, Tempo, 769231
1, 124728, Tempo, 774194
1, 124740, Tempo, 779221
1, 124740, Note_on_c, 0, 88, 0
1, 124740, Note_on_c, 0, 89, 100
1, 124748, Tempo, 784314
1, 124760, Tempo, 789474
1, 124768, Tempo, 794702
1, 124780, Tempo, 800000
1, 124788, Tempo, 805369
1, 124800, Tempo, 655738
1, 124800, Note_on_c, 0, 89, 0
1, 124800, Note_on_c, 0, 48, 0
1, 124800, Control_c, 0, 91, 127
1, 124800, Note_on_c, 0, 91, 108
1, 124800, Control_c, 0, 64, 0
1, 124800, Control_c, 0, 91, 127
1, 124801, Note_on_c, 0, 29, 97
1, 124969, Control_c, 0, 64, 127
1, 125040, Note_on_c, 0, 41, 78
1, 125041, Note_on_c, 0, 29, 0
1, 125280, Tempo, 621762
1, 125280, Note_on_c, 0, 41, 0
1, 125280, Note_on_c, 0, 91, 0
1, 125280, Note_on_c, 0, 48, 81
1, 125500, Note_on_c, 0, 48, 0
1, 125520, Tempo, 764331
1, 125520, Note_on_c, 0, 48, 81
1, 125760, Tempo, 839161
1, 125760, Note_on_c, 0, 67, 70
1, 125760, Note_on_c, 0, 70, 70
1, 125760, Note_on_c, 0, 74, 70
1, 125760, Note_on_c, 0, 79, 83
1, 125760, Note_on_c, 0, 62, 75
1, 125760, Note_on_c, 0, 58, 62
1, 125760, Note_on_c, 0, 55, 62
1, 125767, Control_c, 0, 64, 0
1, 125930, Control_c, 0, 64, 127
1, 126720, Tempo, 606061
1, 126720, Control_c, 0, 64, 0
1, 126840, Note_on_c, 0, 79, 0
1, 126840, Note_on_c, 0, 81, 53
1, 126960, Note_on_c, 0, 81, 0
1, 126960, Note_on_c, 0, 82, 53
1, 127080, Tempo, 579710
1, 127080, Note_on_c, 0, 82, 0
1, 127080, Note_on_c, 0, 81, 53
1, 127200, Tempo, 558140
1, 127200, Note_on_c, 0, 81, 0
1, 127200, Note_on_c, 0, 48, 0
1, 127200, Note_on_c, 0, 62, 0
1, 127200, Note_on_c, 0, 67, 0
1, 127200, Note_on_c, 0, 70, 0
1, 127200, Note_on_c, 0, 74, 0
1, 127200, Note_on_c, 0, 58, 0
1, 127200, Note_on_c, 0, 55, 0
1, 127200, Note_on_c, 0, 79, 56
1, 127320, Tempo, 540541
1, 127320, Note_on_c, 0, 79, 0
1, 127320, Note_on_c, 0, 81, 54
1, 127440, Note_on_c, 0, 81, 0
1, 127440, Note_on_c, 0, 79, 54
1, 127560, Note_on_c, 0, 79, 0
1, 127560, Note_on_c, 0, 77, 54
1, 127680, Tempo, 550459
1, 127680, Note_on_c, 0, 77, 0
1, 127680, Note_on_c, 0, 74, 57
1, 127800, Tempo, 538117
1, 127800, Note_on_c, 0, 74, 0
1, 127800, Note_on_c, 0, 77, 54
1, 127920, Note_on_c, 0, 77, 0
1, 127920, Note_on_c, 0, 74, 54
1, 128040, Note_on_c, 0, 74, 0
1, 128040, Note_on_c, 0, 72, 54
1, 128160, Tempo, 550459
1, 128160, Note_on_c, 0, 72, 0
1, 128160, Note_on_c, 0, 70, 58
1, 128280, Tempo, 538117
1, 128280, Note_on_c, 0, 70, 0
1, 128280, Note_on_c, 0, 67, 54
1, 128400, Note_on_c, 0, 67, 0
1, 128400, Note_on_c, 0, 62, 53
1, 128520, Note_on_c, 0, 62, 0
1, 128520, Note_on_c, 0, 64, 53
1, 128640, Tempo, 566038
1, 128640, Note_on_c, 0, 64, 0
1, 128640, Note_on_c, 0, 61, 42
1, 128640, Note_on_c, 0, 67, 52
1, 128640, Note_on_c, 0, 41, 37
1, 128640, Note_on_c, 0, 49, 39
1, 128640, Note_on_c, 0, 57, 42
1, 128760, Tempo, 574163
1, 128760, Note_on_c, 0, 67, 0
1, 128760, Note_on_c, 0, 65, 48
1, 128880, Tempo, 568720
1, 128880, Note_on_c, 0, 65, 0
1, 128880, Note_on_c, 0, 67, 48
1, 129000, Tempo, 560748
1, 129000, Note_on_c, 0, 67, 0
1, 129000, Note_on_c, 0, 69, 47
1, 129120, Tempo, 576923
1, 129120, Note_on_c, 0, 69, 0
1, 129120, Note_on_c, 0, 67, 47
1, 129600, Note_on_c, 0, 57, 0
1, 129600, Note_on_c, 0, 49, 0
1, 129600, Note_on_c, 0, 61, 0
1, 129600, Note_on_c, 0, 41, 0
1, 129600, Note_on_c, 0, 62, 44
1, 129600, Note_on_c, 0, 53, 45
1, 129600, Note_on_c, 0, 46, 40
1, 129720, Tempo, 568720
1, 129720, Note_on_c, 0, 67, 0
1, 129720, Note_on_c, 0, 65, 48
1, 129840, Tempo, 574163
1, 129840, Note_on_c, 0, 65, 0
1, 129840, Note_on_c, 0, 67, 49
1, 129960, Tempo, 560748
1, 129960, Note_on_c, 0, 67, 0
1, 129960, Note_on_c, 0, 69, 52
1, 130080, Tempo, 574163
1, 130080, Note_on_c, 0, 69, 0
1, 130080, Note_on_c, 0, 72, 53
1, 130200, Tempo, 566038
1, 130200, Note_on_c, 0, 72, 0
1, 130200, Note_on_c, 0, 69, 53
1, 130320, Tempo, 566038
1, 130320, Note_on_c, 0, 69, 0
1, 130320, Note_on_c, 0, 67, 53
1, 130440, Tempo, 555556
1, 130440, Note_on_c, 0, 67, 0
1, 130440, Note_on_c, 0, 65, 53
1, 130560, Tempo, 585366
1, 130560, Note_on_c, 0, 65, 0
1, 130560, Note_on_c, 0, 46, 0
1, 130560, Note_on_c, 0, 53, 0
1, 130560, Note_on_c, 0, 62, 0
1, 130560, Note_on_c, 0, 67, 54
1, 130560, Note_on_c, 0, 63, 43
1, 130560, Note_on_c, 0, 57, 45
1, 130560, Note_on_c, 0, 48, 40
1, 130680, Tempo, 594059
1, 130680, Note_on_c, 0, 67, 0
1, 130680, Note_on_c, 0, 65, 49
1, 130800, Tempo, 585366
1, 130800, Note_on_c, 0, 65, 0
1, 130800, Note_on_c, 0, 67, 51
1, 130920, Tempo, 571429
1, 130920, Note_on_c, 0, 67, 0
1, 130920, Note_on_c, 0, 69, 49
1, 131040, Tempo, 594059
1, 131040, Note_on_c, 0, 69, 0
1, 131040, Note_on_c, 0, 67, 48
1, 131520, Note_on_c, 0, 48, 0
1, 131520, Note_on_c, 0, 63, 0
1, 131520, Note_on_c, 0, 62, 45
1, 131520, Note_on_c, 0, 50, 40
1, 131640, Tempo, 585366
1, 131640, Note_on_c, 0, 67, 0
1, 131640, Note_on_c, 0, 65, 49
1, 131760, Note_on_c, 0, 65, 0
1, 131760, Note_on_c, 0, 67, 51
1, 131880, Tempo, 571429
1, 131880, Note_on_c, 0, 67, 0
1, 131880, Note_on_c, 0, 69, 52
1, 132000, Tempo, 609137
1, 132000, Note_on_c, 0, 69, 0
1, 132000, Note_on_c, 0, 74, 56
1, 132120, Tempo, 597015
1, 132120, Note_on_c, 0, 74, 0
1, 132120, Note_on_c, 0, 69, 54
1, 132240, Note_on_c, 0, 69, 0
1, 132240, Note_on_c, 0, 67, 54
1, 132360, Note_on_c, 0, 67, 0
1, 132360, Note_on_c, 0, 65, 54
1, 132480, Tempo, 638298
1, 132480, Note_on_c, 0, 57, 0
1, 132480, Note_on_c, 0, 50, 0
1, 132480, Note_on_c, 0, 62, 0
1, 132480, Note_on_c, 0, 62, 49
1, 132480, Note_on_c, 0, 46, 41
1, 132480, Note_on_c, 0, 53, 41
1, 132480, Note_on_c, 0, 58, 49
1, 132500, Tempo, 590784
1, 132537, Control_c, 0, 64, 127
1, 132600, Tempo, 624025
1, 132600, Note_on_c, 0, 65, 0
1, 132600, Note_on_c, 0, 70, 52
1, 132720, Tempo, 606919
1, 132720, Note_on_c, 0, 70, 0
1, 132720, Note_on_c, 0, 74, 54
1, 132840, Tempo, 661157
1, 132840, Note_on_c, 0, 74, 0
1, 132840, Note_on_c, 0, 77, 57
1, 132960, Tempo, 648649
1, 132960, Note_on_c, 0, 77, 0
1, 132960, Note_on_c, 0, 58, 0
1, 132960, Note_on_c, 0, 62, 0
1, 132960, Note_on_c, 0, 46, 0
1, 132960, Note_on_c, 0, 53, 0
1, 132960, Note_on_c, 0, 74, 40
1, 132960, Note_on_c, 0, 81, 60
1, 132960, Note_on_c, 0, 58, 39
1, 132960, Note_on_c, 0, 65, 47
1, 133200, Tempo, 612245
1, 133440, Tempo, 652174
1, 133440, Note_on_c, 0, 65, 0
1, 133440, Note_on_c, 0, 74, 0
1, 133440, Note_on_c, 0, 72, 44
1, 133440, Note_on_c, 0, 64, 47
1, 133468, Control_c, 0, 64, 0
1, 133680, Tempo, 638298
1, 133680, Note_on_c, 0, 81, 0
1, 133680, Note_on_c, 0, 79, 54
1, 133920, Tempo, 625000
1, 133920, Note_on_c, 0, 79, 0
1, 133920, Note_on_c, 0, 64, 0
1, 133920, Note_on_c, 0, 77, 52
1, 133920, Note_on_c, 0, 62, 51
1, 134160, Note_on_c, 0, 62, 0
1, 134160, Note_on_c, 0, 77, 0
1, 134160, Note_on_c, 0, 79, 54
1, 134160, Note_on_c, 0, 64, 53
1, 134400, Tempo, 638366
1, 134400, Note_on_c, 0, 58, 0
1, 134400, Note_on_c, 0, 57, 53
1, 134441, Tempo, 689655
1, 134520, Tempo, 648649
1, 134520, Note_on_c, 0, 64, 0
1, 134520, Note_on_c, 0, 79, 0
1, 134520, Note_on_c, 0, 77, 49
1, 134520, Note_on_c, 0, 65, 53
1, 134640, Tempo, 631579
1, 134640, Note_on_c, 0, 65, 0
1, 134640, Note_on_c, 0, 77, 0
1, 134640, Note_on_c, 0, 76, 51
1, 134640, Note_on_c, 0, 67, 53
1, 134760, Note_on_c, 0, 67, 0
1, 134760, Note_on_c, 0, 76, 0
1, 134760, Note_on_c, 0, 79, 51
1, 134760, Note_on_c, 0, 69, 53
1, 134880, Tempo, 685714
1, 134880, Note_on_c, 0, 69, 0
1, 134880, Note_on_c, 0, 79, 0
1, 134880, Note_on_c, 0, 77, 54
1, 134880, Note_on_c, 0, 62, 54
1, 135120, Tempo, 645161
1, 135120, Note_on_c, 0, 72, 0
1, 135120, Note_on_c, 0, 70, 49
1, 135240, Tempo, 634921
1, 135240, Note_on_c, 0, 70, 0
1, 135240, Note_on_c, 0, 69, 49
1, 135360, Tempo, 666667
1, 135360, Note_on_c, 0, 69, 0
1, 135360, Note_on_c, 0, 57, 0
1, 135360, Note_on_c, 0, 70, 51
1, 135360, Note_on_c, 0, 55, 46
1, 135600, Tempo, 697674
1, 135600, Note_on_c, 0, 77, 0
1, 135600, Note_on_c, 0, 62, 0
1, 135600, Note_on_c, 0, 76, 46
1, 135600, Note_on_c, 0, 64, 45
1, 135840, Tempo, 714286
1, 135840, Note_on_c, 0, 64, 0
1, 135840, Note_on_c, 0, 76, 0
1, 135840, Note_on_c, 0, 55, 0
1, 135840, Note_on_c, 0, 74, 45
1, 135840, Note_on_c, 0, 65, 45
1, 135840, Note_on_c, 0, 48, 41
1, 136080, Note_on_c, 0, 65, 0
1, 136080, Note_on_c, 0, 74, 0
1, 136080, Note_on_c, 0, 72, 43
1, 136080, Note_on_c, 0, 64, 43
1, 136320, Tempo, 677966
1, 136320, Note_on_c, 0, 64, 0
1, 136320, Note_on_c, 0, 48, 0
1, 136320, Note_on_c, 0, 70, 0
1, 136320, Note_on_c, 0, 72, 0
1, 136320, Control_c, 0, 91, 127
1, 136320, Control_c, 0, 91, 127
1, 136321, Note_on_c, 0, 29, 89
1, 136447, Control_c, 0, 64, 127
1, 136560, Note_on_c, 0, 41, 77
1, 136561, Note_on_c, 0, 29, 0
1, 136800, Tempo, 621762
1, 136800, Note_on_c, 0, 41, 0
1, 136800, Note_on_c, 0, 48, 81
1, 137020, Note_on_c, 0, 48, 0
1, 137040, Tempo, 764331
1, 137040, Note_on_c, 0, 48, 81
1, 137280, Tempo, 839161
1, 137280, Note_on_c, 0, 79, 83
1, 137280, Note_on_c, 0, 67, 70
1, 137280, Note_on_c, 0, 74, 70
1, 137280, Note_on_c, 0, 70, 70
1, 137280, Note_on_c, 0, 62, 76
1, 137280, Note_on_c, 0, 58, 63
1, 137280, Note_on_c, 0, 55, 63
1, 137301, Control_c, 0, 64, 0
1, 137464, Control_c, 0, 64, 127
1, 138240, Tempo, 606061
1, 138240, Control_c, 0, 64, 0
1, 138360, Note_on_c, 0, 79, 0
1, 138360, Note_on_c, 0, 81, 53
1, 138480, Note_on_c, 0, 81, 0
1, 138480, Note_on_c, 0, 82, 53
1, 138600, Tempo, 579710
1, 138600, Note_on_c, 0, 82, 0
1, 138600, Note_on_c, 0, 81, 53
1, 138720, Tempo, 558140
1, 138720, Note_on_c, 0, 81, 0
1, 138720, Note_on_c, 0, 48, 0
1, 138720, Note_on_c, 0, 62, 0
1, 138720, Note_on_c, 0, 67, 0
1, 138720, Note_on_c, 0, 74, 0
1, 138720, Note_on_c, 0, 70, 0
1, 138720, Note_on_c, 0, 58, 0
1, 138720, Note_on_c, 0, 55, 0
1, 138720, Note_on_c, 0, 79, 56
1, 138840, Tempo, 540541
1, 138840, Note_on_c, 0, 79, 0
1, 138840, Note_on_c, 0, 81, 54
1, 138960, Note_on_c, 0, 81, 0
1, 138960, Note_on_c, 0, 79, 54
1, 139080, Note_on_c, 0, 79, 0
1, 139080, Note_on_c, 0, 77, 54
1, 139200, Tempo, 550459
1, 139200, Note_on_c, 0, 77, 0
1, 139200, Note_on_c, 0, 74, 57
1, 139320, Tempo, 538117
1, 139320, Note_on_c, 0, 74, 0
1, 139320, Note_on_c, 0, 77, 54
1, 139440, Note_on_c, 0, 77, 0
1, 139440, Note_on_c, 0, 74, 54
1, 139560, Note_on_c, 0, 74, 0
1, 139560, Note_on_c, 0, 72, 54
1, 139680, Tempo, 550459
1, 139680, Note_on_c, 0, 72, 0
1, 139680, Note_on_c, 0, 70, 58
1, 139800, Tempo, 538117
1, 139800, Note_on_c, 0, 70, 0
1, 139800, Note_on_c, 0, 67, 54
1, 139920, Note_on_c, 0, 67, 0
1, 139920, Note_on_c, 0, 62, 53
1, 140040, Note_on_c, 0, 62, 0
1, 140040, Note_on_c, 0, 64, 53
1, 140160, Tempo, 585366
1, 140160, Note_on_c, 0, 64, 0
1, 140160, Note_on_c, 0, 62, 43
1, 140160, Note_on_c, 0, 67, 51
1, 140160, Note_on_c, 0, 50, 36
1, 140160, Note_on_c, 0, 57, 43
1, 140280, Tempo, 579710
1, 140280, Note_on_c, 0, 67, 0
1, 140280, Note_on_c, 0, 65, 47
1, 140400, Tempo, 576923
1, 140400, Note_on_c, 0, 65, 0
1, 140400, Note_on_c, 0, 67, 48
1, 140520, Tempo, 571429
1, 140520, Note_on_c, 0, 67, 0
1, 140520, Note_on_c, 0, 69, 47
1, 140640, Tempo, 576923
1, 140640, Note_on_c, 0, 69, 0
1, 140640, Note_on_c, 0, 67, 46
1, 141000, Note_on_c, 0, 57, 0
1, 141000, Note_on_c, 0, 50, 0
1, 141000, Note_on_c, 0, 43, 28
1, 141060, Note_on_c, 0, 50, 33
1, 141120, Tempo, 597015
1, 141120, Note_on_c, 0, 58, 38
1, 141240, Tempo, 582524
1, 141240, Note_on_c, 0, 67, 0
1, 141240, Note_on_c, 0, 65, 45
1, 141360, Tempo, 582524
1, 141360, Note_on_c, 0, 65, 0
1, 141360, Note_on_c, 0, 67, 46
1, 141480, Tempo, 574163
1, 141480, Note_on_c, 0, 67, 0
1, 141480, Note_on_c, 0, 69, 48
1, 141600, Tempo, 585366
1, 141600, Note_on_c, 0, 69, 0
1, 141600, Note_on_c, 0, 72, 49
1, 141720, Tempo, 576923
1, 141720, Note_on_c, 0, 72, 0
1, 141720, Note_on_c, 0, 69, 49
1, 141840, Tempo, 574163
1, 141840, Note_on_c, 0, 69, 0
1, 141840, Note_on_c, 0, 67, 49
1, 141960, Tempo, 568720
1, 141960, Note_on_c, 0, 67, 0
1, 141960, Note_on_c, 0, 65, 49
1, 142080, Tempo, 585366
1, 142080, Note_on_c, 0, 65, 0
1, 142080, Note_on_c, 0, 58, 0
1, 142080, Note_on_c, 0, 62, 0
1, 142080, Note_on_c, 0, 43, 0
1, 142080, Note_on_c, 0, 50, 0
1, 142080, Note_on_c, 0, 67, 48
1, 142080, Note_on_c, 0, 62, 43
1, 142080, Note_on_c, 0, 57, 41
1, 142080, Note_on_c, 0, 50, 35
1, 142200, Tempo, 594059
1, 142200, Note_on_c, 0, 67, 0
1, 142200, Note_on_c, 0, 65, 46
1, 142320, Tempo, 585366
1, 142320, Note_on_c, 0, 65, 0
1, 142320, Note_on_c, 0, 67, 47
1, 142440, Tempo, 579710
1, 142440, Note_on_c, 0, 67, 0
1, 142440, Note_on_c, 0, 69, 46
1, 142560, Tempo, 594059
1, 142560, Note_on_c, 0, 69, 0
1, 142560, Note_on_c, 0, 67, 45
1, 142920, Note_on_c, 0, 50, 0
1, 142920, Note_on_c, 0, 57, 0
1, 142920, Note_on_c, 0, 43, 32
1, 142980, Note_on_c, 0, 50, 35
1, 143040, Tempo, 612245
1, 143040, Note_on_c, 0, 59, 38
1, 143160, Tempo, 600000
1, 143160, Note_on_c, 0, 67, 0
1, 143160, Note_on_c, 0, 65, 46
1, 143280, Tempo, 588235
1, 143280, Note_on_c, 0, 65, 0
1, 143280, Note_on_c, 0, 67, 47
1, 143400, Tempo, 615385
1, 143400, Note_on_c, 0, 67, 0
1, 143400, Note_on_c, 0, 69, 48
1, 143520, Tempo, 609137
1, 143520, Note_on_c, 0, 69, 0
1, 143520, Note_on_c, 0, 74, 52
1, 143640, Tempo, 597015
1, 143640, Note_on_c, 0, 74, 0
1, 143640, Note_on_c, 0, 69, 51
1, 143760, Note_on_c, 0, 69, 0
1, 143760, Note_on_c, 0, 67, 51
1, 143880, Note_on_c, 0, 67, 0
1, 143880, Note_on_c, 0, 65, 51
1, 144000, Tempo, 596066
1, 144000, Note_on_c, 0, 65, 0
1, 144000, Note_on_c, 0, 59, 0
1, 144000, Note_on_c, 0, 62, 0
1, 144000, Note_on_c, 0, 43, 0
1, 144000, Note_on_c, 0, 50, 0
1, 144000, Note_on_c, 0, 76, 51
1, 144000, Note_on_c, 0, 36, 43
1, 144000, Note_on_c, 0, 48, 51
1, 144049, Control_c, 0, 64, 127
1, 144120, Tempo, 572464
1, 144120, Note_on_c, 0, 76, 0
1, 144120, Note_on_c, 0, 70, 49
1, 144240, Note_on_c, 0, 70, 0
1, 144240, Note_on_c, 0, 69, 49
1, 144360, Note_on_c, 0, 69, 0
1, 144360, Note_on_c, 0, 67, 49
1, 144470, Note_on_c, 0, 67, 0
1, 144480, Tempo, 555967
1, 144480, Note_on_c, 0, 77, 52
1, 144480, Note_on_c, 0, 57, 39
1, 144480, Note_on_c, 0, 60, 46
1, 144496, Control_c, 0, 64, 0
1, 144586, Control_c, 0, 64, 127
1, 144600, Tempo, 548045
1, 144600, Note_on_c, 0, 77, 0
1, 144600, Note_on_c, 0, 72, 51
1, 144720, Note_on_c, 0, 72, 0
1, 144720, Note_on_c, 0, 60, 0
1, 144720, Note_on_c, 0, 57, 0
1, 144720, Note_on_c, 0, 70, 51
1, 144720, Note_on_c, 0, 62, 32
1, 144720, Note_on_c, 0, 65, 38
1, 144840, Note_on_c, 0, 70, 0
1, 144840, Note_on_c, 0, 69, 51
1, 144940, Note_on_c, 0, 62, 0
1, 144940, Note_on_c, 0, 65, 0
1, 144950, Note_on_c, 0, 69, 0
1, 144960, Tempo, 537875
1, 144960, Note_on_c, 0, 79, 53
1, 144960, Note_on_c, 0, 58, 40
1, 144960, Note_on_c, 0, 62, 47
1, 144970, Control_c, 0, 64, 0
1, 145052, Control_c, 0, 64, 127
1, 145080, Tempo, 528030
1, 145080, Note_on_c, 0, 79, 0
1, 145080, Note_on_c, 0, 74, 51
1, 145200, Note_on_c, 0, 74, 0
1, 145200, Note_on_c, 0, 62, 0
1, 145200, Note_on_c, 0, 58, 0
1, 145200, Note_on_c, 0, 72, 51
1, 145200, Note_on_c, 0, 67, 38
1, 145200, Note_on_c, 0, 64, 32
1, 145320, Tempo, 520879
1, 145320, Note_on_c, 0, 72, 0
1, 145320, Note_on_c, 0, 70, 51
1, 145420, Note_on_c, 0, 67, 0
1, 145420, Note_on_c, 0, 64, 0
1, 145430, Note_on_c, 0, 70, 0
1, 145440, Tempo, 537875
1, 145440, Note_on_c, 0, 81, 54
1, 145440, Note_on_c, 0, 60, 41
1, 145440, Note_on_c, 0, 64, 49
1, 145457, Control_c, 0, 64, 0
1, 145546, Control_c, 0, 64, 127
1, 145560, Tempo, 525624
1, 145560, Note_on_c, 0, 81, 0
1, 145560, Note_on_c, 0, 76, 52
1, 145680, Note_on_c, 0, 76, 0
1, 145680, Note_on_c, 0, 64, 0
1, 145680, Note_on_c, 0, 60, 0
1, 145680, Note_on_c, 0, 74, 52
1, 145680, Note_on_c, 0, 65, 35
1, 145680, Note_on_c, 0, 69, 41
1, 145800, Tempo, 518538
1, 145800, Note_on_c, 0, 74, 0
1, 145800, Note_on_c, 0, 72, 52
1, 145900, Note_on_c, 0, 65, 0
1, 145900, Note_on_c, 0, 69, 0
1, 145910, Note_on_c, 0, 72, 0
1, 145920, Tempo, 537875
1, 145920, Note_on_c, 0, 48, 0
1, 145920, Note_on_c, 0, 36, 0
1, 145920, Note_on_c, 0, 82, 56
1, 145920, Note_on_c, 0, 62, 43
1, 145920, Note_on_c, 0, 65, 51
1, 145929, Control_c, 0, 64, 0
1, 145962, Control_c, 0, 64, 127
1, 146040, Tempo, 525624
1, 146040, Note_on_c, 0, 82, 0
1, 146040, Note_on_c, 0, 77, 54
1, 146160, Note_on_c, 0, 77, 0
1, 146160, Note_on_c, 0, 65, 0
1, 146160, Note_on_c, 0, 62, 0
1, 146160, Note_on_c, 0, 76, 54
1, 146160, Note_on_c, 0, 67, 35
1, 146160, Note_on_c, 0, 70, 41
1, 146280, Tempo, 516262
1, 146280, Note_on_c, 0, 76, 0
1, 146280, Note_on_c, 0, 74, 54
1, 146380, Note_on_c, 0, 70, 0
1, 146380, Note_on_c, 0, 67, 0
1, 146390, Note_on_c, 0, 74, 0
1, 146400, Tempo, 535380
1, 146400, Note_on_c, 0, 84, 58
1, 146400, Note_on_c, 0, 64, 45
1, 146400, Note_on_c, 0, 67, 53
1, 146405, Control_c, 0, 64, 0
1, 146457, Control_c, 0, 64, 127
1, 146520, Tempo, 525624
1, 146520, Note_on_c, 0, 84, 0
1, 146520, Note_on_c, 0, 79, 56
1, 146640, Note_on_c, 0, 79, 0
1, 146640, Note_on_c, 0, 67, 0
1, 146640, Note_on_c, 0, 64, 0
1, 146640, Note_on_c, 0, 77, 56
1, 146640, Note_on_c, 0, 72, 43
1, 146640, Note_on_c, 0, 69, 36
1, 146760, Tempo, 516262
1, 146760, Note_on_c, 0, 77, 0
1, 146760, Note_on_c, 0, 76, 57
1, 146860, Note_on_c, 0, 69, 0
1, 146860, Note_on_c, 0, 72, 0
1, 146870, Note_on_c, 0, 76, 0
1, 146880, Tempo, 537875
1, 146880, Note_on_c, 0, 86, 60
1, 146880, Note_on_c, 0, 69, 54
1, 146880, Note_on_c, 0, 65, 45
1, 146891, Control_c, 0, 64, 0
1, 146951, Control_c, 0, 64, 127
1, 147000, Tempo, 528030
1, 147000, Note_on_c, 0, 86, 0
1, 147000, Note_on_c, 0, 81, 58
1, 147120, Note_on_c, 0, 81, 0
1, 147120, Note_on_c, 0, 65, 0
1, 147120, Note_on_c, 0, 69, 0
1, 147120, Note_on_c, 0, 79, 59
1, 147120, Note_on_c, 0, 70, 37
1, 147120, Note_on_c, 0, 74, 45
1, 147240, Tempo, 520879
1, 147240, Note_on_c, 0, 79, 0
1, 147240, Note_on_c, 0, 77, 59
1, 147340, Note_on_c, 0, 74, 0
1, 147340, Note_on_c, 0, 70, 0
1, 147350, Note_on_c, 0, 77, 0
1, 147360, Tempo, 548045
1, 147360, Note_on_c, 0, 88, 63
1, 147360, Note_on_c, 0, 70, 57
1, 147360, Note_on_c, 0, 67, 48
1, 147370, Control_c, 0, 64, 0
1, 147413, Control_c, 0, 64, 127
1, 147480, Tempo, 535380
1, 147480, Note_on_c, 0, 88, 0
1, 147480, Note_on_c, 0, 82, 60
1, 147600, Tempo, 555967
1, 147600, Note_on_c, 0, 82, 0
1, 147600, Note_on_c, 0, 67, 0
1, 147600, Note_on_c, 0, 70, 0
1, 147600, Note_on_c, 0, 81, 60
1, 147600, Note_on_c, 0, 72, 40
1, 147600, Note_on_c, 0, 76, 47
1, 147720, Tempo, 615132
1, 147720, Note_on_c, 0, 81, 0
1, 147720, Note_on_c, 0, 79, 60
1, 147730, Note_on_c, 0, 76, 0
1, 147730, Note_on_c, 0, 72, 0
1, 147750, Note_on_c, 0, 58, 40
1, 147780, Note_on_c, 0, 65, 52
1, 147800, Tempo, 591191
1, 147810, Note_on_c, 0, 67, 54
1, 147821, Tempo, 613434
1, 147830, Note_on_c, 0, 79, 0
1, 147840, Tempo, 606980
1, 147840, Note_on_c, 0, 91, 87
1, 147840, Control_c, 0, 64, 0
1, 147840, Note_on_c, 0, 74, 58
1, 147925, Control_c, 0, 64, 127
1, 147950, Note_on_c, 0, 91, 0
1, 147960, Tempo, 541467
1, 147960, Note_on_c, 0, 86, 67
1, 148070, Note_on_c, 0, 86, 0
1, 148080, Note_on_c, 0, 84, 67
1, 148190, Note_on_c, 0, 84, 0
1, 148200, Note_on_c, 0, 82, 67
1, 148310, Note_on_c, 0, 82, 0
1, 148320, Tempo, 562588
1, 148320, Note_on_c, 0, 79, 60
1, 148430, Note_on_c, 0, 79, 0
1, 148440, Tempo, 531444
1, 148440, Note_on_c, 0, 74, 57
1, 148550, Note_on_c, 0, 74, 0
1, 148560, Note_on_c, 0, 72, 57
1, 148670, Note_on_c, 0, 72, 0
1, 148680, Note_on_c, 0, 70, 57
1, 148790, Note_on_c, 0, 70, 0
1, 148800, Tempo, 526593
1, 148800, Note_on_c, 0, 77, 63
1, 148813, Control_c, 0, 64, 0
1, 148910, Note_on_c, 0, 77, 0
1, 148920, Note_on_c, 0, 79, 65
1, 149030, Note_on_c, 0, 79, 0
1, 149040, Note_on_c, 0, 81, 67
1, 149150, Note_on_c, 0, 81, 0
1, 149160, Note_on_c, 0, 82, 69
1, 149270, Note_on_c, 0, 82, 0
1, 149280, Note_on_c, 0, 84, 72
1, 149390, Note_on_c, 0, 84, 0
1, 149400, Note_on_c, 0, 86, 72
1, 149510, Note_on_c, 0, 86, 0
1, 149520, Note_on_c, 0, 88, 75
1, 149630, Note_on_c, 0, 88, 0
1, 149640, Tempo, 538938
1, 149640, Note_on_c, 0, 89, 77
1, 149750, Note_on_c, 0, 89, 0
1, 149760, Tempo, 606980
1, 149760, Note_on_c, 0, 74, 0
1, 149760, Note_on_c, 0, 67, 0
1, 149760, Note_on_c, 0, 65, 0
1, 149760, Note_on_c, 0, 58, 0
1, 149760, Note_on_c, 0, 91, 87
1, 149760, Note_on_c, 0, 55, 49
1, 149760, Note_on_c, 0, 60, 49
1, 149760, Note_on_c, 0, 62, 58
1, 149760, Note_on_c, 0, 70, 58
1, 149796, Control_c, 0, 64, 127
1, 149870, Note_on_c, 0, 91, 0
1, 149880, Tempo, 541467
1, 149880, Note_on_c, 0, 86, 67
1, 149990, Note_on_c, 0, 86, 0
1, 150000, Note_on_c, 0, 84, 67
1, 150110, Note_on_c, 0, 84, 0
1, 150120, Note_on_c, 0, 82, 67
1, 150230, Note_on_c, 0, 82, 0
1, 150240, Tempo, 544020
1, 150240, Note_on_c, 0, 79, 60
1, 150350, Note_on_c, 0, 79, 0
1, 150360, Tempo, 531444
1, 150360, Note_on_c, 0, 74, 57
1, 150470, Note_on_c, 0, 74, 0
1, 150480, Note_on_c, 0, 72, 57
1, 150590, Note_on_c, 0, 72, 0
1, 150600, Note_on_c, 0, 70, 57
1, 150710, Note_on_c, 0, 70, 0
1, 150720, Tempo, 526593
1, 150720, Note_on_c, 0, 77, 64
1, 150728, Control_c, 0, 64, 0
1, 150830, Note_on_c, 0, 77, 0
1, 150840, Note_on_c, 0, 79, 66
1, 150950, Note_on_c, 0, 79, 0
1, 150960, Note_on_c, 0, 81, 69
1, 151070, Note_on_c, 0, 81, 0
1, 151080, Note_on_c, 0, 82, 72
1, 151190, Note_on_c, 0, 82, 0
1, 151200, Note_on_c, 0, 84, 73
1, 151310, Note_on_c, 0, 84, 0
1, 151320, Note_on_c, 0, 86, 76
1, 151430, Note_on_c, 0, 86, 0
1, 151440, Note_on_c, 0, 88, 78
1, 151550, Note_on_c, 0, 88, 0
1, 151560, Tempo, 544020
1, 151560, Note_on_c, 0, 89, 80
1, 151660, Tempo, 527241
1, 151670, Note_on_c, 0, 89, 0
1, 151680, Tempo, 588235
1, 151680, Note_on_c, 0, 70, 0
1, 151680, Note_on_c, 0, 55, 0
1, 151680, Note_on_c, 0, 60, 0
1, 151680, Note_on_c, 0, 62, 0
1, 151680, Note_on_c, 0, 91, 89
1, 151680, Note_on_c, 0, 48, 55
1, 151680, Note_on_c, 0, 55, 55
1, 151680, Note_on_c, 0, 58, 55
1, 151680, Note_on_c, 0, 64, 65
1, 151701, Tempo, 612058
1, 151737, Control_c, 0, 64, 127
1, 151790, Note_on_c, 0, 91, 0
1, 151800, Tempo, 538406
1, 151800, Note_on_c, 0, 86, 72
1, 151910, Note_on_c, 0, 86, 0
1, 151920, Note_on_c, 0, 84, 72
1, 152030, Note_on_c, 0, 84, 0
1, 152040, Note_on_c, 0, 82, 72
1, 152150, Note_on_c, 0, 82, 0
1, 152160, Tempo, 546001
1, 152160, Note_on_c, 0, 79, 64
1, 152270, Note_on_c, 0, 79, 0
1, 152280, Tempo, 535906
1, 152280, Note_on_c, 0, 74, 59
1, 152390, Note_on_c, 0, 74, 0
1, 152400, Note_on_c, 0, 72, 59
1, 152510, Note_on_c, 0, 72, 0
1, 152520, Note_on_c, 0, 70, 59
1, 152630, Note_on_c, 0, 70, 0
1, 152640, Tempo, 531020
1, 152640, Note_on_c, 0, 79, 72
1, 152649, Control_c, 0, 64, 0
1, 152750, Note_on_c, 0, 79, 0
1, 152760, Note_on_c, 0, 81, 73
1, 152870, Note_on_c, 0, 81, 0
1, 152880, Note_on_c, 0, 82, 76
1, 152990, Note_on_c, 0, 82, 0
1, 153000, Note_on_c, 0, 84, 78
1, 153110, Note_on_c, 0, 84, 0
1, 153120, Tempo, 531020
1, 153120, Note_on_c, 0, 86, 80
1, 153160, Tempo, 533476
1, 153180, Tempo, 535906
1, 153220, Tempo, 538406
1, 153230, Note_on_c, 0, 86, 0
1, 153240, Tempo, 540882
1, 153240, Note_on_c, 0, 88, 83
1, 153280, Tempo, 543429
1, 153300, Tempo, 546001
1, 153340, Tempo, 548546
1, 153350, Note_on_c, 0, 88, 0
1, 153360, Tempo, 551167
1, 153360, Note_on_c, 0, 89, 85
1, 153400, Tempo, 553761
1, 153420, Tempo, 556431
1, 153460, Tempo, 559128
1, 153470, Note_on_c, 0, 89, 0
1, 153480, Tempo, 692201
1, 153480, Note_on_c, 0, 91, 87
1, 153560, Tempo, 673023
1, 153590, Note_on_c, 0, 91, 0
1, 153600, Tempo, 702412
1, 153600, Note_on_c, 0, 64, 0
1, 153600, Note_on_c, 0, 48, 0
1, 153600, Note_on_c, 0, 55, 0
1, 153600, Note_on_c, 0, 58, 0
1, 153600, Note_on_c, 0, 89, 75
1, 153600, Note_on_c, 0, 81, 75
1, 153600, Note_on_c, 0, 93, 89
1, 153600, Note_on_c, 0, 29, 68
1, 153600, Note_on_c, 0, 41, 81
1, 153601, Tempo, 724725
1, 153685, Control_c, 0, 64, 127
1, 153840, Note_on_c, 0, 41, 0
1, 153840, Note_on_c, 0, 93, 0
1, 153840, Note_on_c, 0, 89, 0
1, 153840, Note_on_c, 0, 81, 0
1, 153840, Note_on_c, 0, 29, 0
1, 153840, Note_on_c, 0, 48, 81
1, 154080, Tempo, 592300
1, 154080, Note_on_c, 0, 63, 58
1, 154080, Note_on_c, 0, 67, 69
1, 154080, Note_on_c, 0, 60, 69
1, 154080, Note_on_c, 0, 57, 58
1, 154800, Tempo, 560957
1, 154800, Note_on_c, 0, 67, 0
1, 154800, Note_on_c, 0, 63, 0
1, 154800, Note_on_c, 0, 62, 53
1, 154800, Note_on_c, 0, 65, 63
1, 154810, Control_c, 0, 64, 0
1, 154920, Note_on_c, 0, 65, 0
1, 154920, Note_on_c, 0, 62, 0
1, 154920, Note_on_c, 0, 63, 53
1, 154920, Note_on_c, 0, 67, 63
1, 155040, Tempo, 601443
1, 155040, Note_on_c, 0, 67, 0
1, 155040, Note_on_c, 0, 63, 0
1, 155040, Note_on_c, 0, 62, 57
1, 155040, Note_on_c, 0, 65, 68
1, 155280, Tempo, 560957
1, 155280, Note_on_c, 0, 65, 0
1, 155280, Note_on_c, 0, 57, 0
1, 155280, Note_on_c, 0, 62, 0
1, 155280, Note_on_c, 0, 60, 0
1, 155280, Note_on_c, 0, 60, 55
1, 155280, Note_on_c, 0, 63, 65
1, 155280, Note_on_c, 0, 53, 42
1, 155280, Note_on_c, 0, 57, 50
1, 155400, Note_on_c, 0, 63, 0
1, 155400, Note_on_c, 0, 60, 0
1, 155400, Note_on_c, 0, 65, 65
1, 155400, Note_on_c, 0, 62, 55
1, 155520, Tempo, 592300
1, 155520, Note_on_c, 0, 62, 0
1, 155520, Note_on_c, 0, 65, 0
1, 155520, Note_on_c, 0, 63, 70
1, 155520, Note_on_c, 0, 60, 59
1, 155740, Note_on_c, 0, 60, 0
1, 155740, Note_on_c, 0, 63, 0
1, 155760, Tempo, 614125
1, 155760, Note_on_c, 0, 60, 79
1, 156000, Note_on_c, 0, 62, 79
1, 156240, Tempo, 595297
1, 156240, Note_on_c, 0, 62, 0
1, 156240, Note_on_c, 0, 63, 79
1, 156390, Note_on_c, 0, 48, 0
1, 156390, Note_on_c, 0, 48, 50
1, 156420, Note_on_c, 0, 55, 63
1, 156430, Note_on_c, 0, 53, 0
1, 156430, Note_on_c, 0, 57, 0
1, 156450, Note_on_c, 0, 58, 56
1, 156480, Tempo, 532765
1, 156480, Note_on_c, 0, 63, 0
1, 156480, Note_on_c, 0, 60, 0
1, 156480, Note_on_c, 0, 79, 72
1, 156480, Note_on_c, 0, 64, 72
1, 156590, Note_on_c, 0, 79, 0
1, 156600, Note_on_c, 0, 81, 73
1, 156710, Note_on_c, 0, 81, 0
1, 156720, Note_on_c, 0, 82, 76
1, 156830, Note_on_c, 0, 82, 0
1, 156840, Note_on_c, 0, 84, 78
1, 156950, Note_on_c, 0, 84, 0
1, 156960, Tempo, 532765
1, 156960, Note_on_c, 0, 64, 0
1, 156960, Note_on_c, 0, 86, 80
1, 156960, Note_on_c, 0, 62, 72
1, 157000, Tempo, 535236
1, 157020, Tempo, 537683
1, 157060, Tempo, 540200
1, 157070, Note_on_c, 0, 86, 0
1, 157080, Tempo, 542692
1, 157080, Note_on_c, 0, 88, 83
1, 157120, Tempo, 545207
1, 157140, Tempo, 547795
1, 157180, Tempo, 550358
1, 157190, Note_on_c, 0, 88, 0
1, 157200, Tempo, 552995
1, 157200, Note_on_c, 0, 89, 85
1, 157240, Tempo, 555607
1, 157260, Tempo, 558295
1, 157300, Tempo, 560957
1, 157310, Note_on_c, 0, 89, 0
1, 157320, Tempo, 694525
1, 157320, Note_on_c, 0, 91, 87
1, 157420, Tempo, 678503
1, 157421, Tempo, 697756
1, 157430, Note_on_c, 0, 91, 0
1, 157440, Note_on_c, 0, 62, 0
1, 157440, Note_on_c, 0, 48, 0
1, 157440, Note_on_c, 0, 55, 0
1, 157440, Note_on_c, 0, 58, 0
1, 157440, Note_on_c, 0, 93, 89
1, 157440, Note_on_c, 0, 81, 75
1, 157440, Note_on_c, 0, 89, 89
1, 157440, Note_on_c, 0, 29, 68
1, 157440, Note_on_c, 0, 41, 81
1, 157532, Control_c, 0, 64, 127
1, 157680, Note_on_c, 0, 41, 0
1, 157680, Note_on_c, 0, 89, 0
1, 157680, Note_on_c, 0, 93, 0
1, 157680, Note_on_c, 0, 81, 0
1, 157680, Note_on_c, 0, 29, 0
1, 157680, Note_on_c, 0, 48, 81
1, 157920, Tempo, 595061
1, 157920, Note_on_c, 0, 67, 69
1, 157920, Note_on_c, 0, 63, 58
1, 157920, Note_on_c, 0, 60, 69
1, 157920, Note_on_c, 0, 57, 58
1, 158640, Tempo, 563592
1, 158640, Note_on_c, 0, 63, 0
1, 158640, Note_on_c, 0, 67, 0
1, 158640, Note_on_c, 0, 65, 63
1, 158640, Note_on_c, 0, 62, 53
1, 158653, Control_c, 0, 64, 0
1, 158760, Note_on_c, 0, 62, 0
1, 158760, Note_on_c, 0, 65, 0
1, 158760, Note_on_c, 0, 67, 63
1, 158760, Note_on_c, 0, 63, 53
1, 158880, Tempo, 604230
1, 158880, Note_on_c, 0, 63, 0
1, 158880, Note_on_c, 0, 67, 0
1, 158880, Note_on_c, 0, 65, 68
1, 158880, Note_on_c, 0, 62, 57
1, 159120, Tempo, 563592
1, 159120, Note_on_c, 0, 62, 0
1, 159120, Note_on_c, 0, 57, 0
1, 159120, Note_on_c, 0, 65, 0
1, 159120, Note_on_c, 0, 60, 0
1, 159120, Note_on_c, 0, 63, 65
1, 159120, Note_on_c, 0, 60, 55
1, 159120, Note_on_c, 0, 53, 43
1, 159120, Note_on_c, 0, 57, 51
1, 159240, Note_on_c, 0, 60, 0
1, 159240, Note_on_c, 0, 63, 0
1, 159240, Note_on_c, 0, 65, 65
1, 159240, Note_on_c, 0, 62, 55
1, 159360, Tempo, 595061
1, 159360, Note_on_c, 0, 62, 0
1, 159360, Note_on_c, 0, 65, 0
1, 159360, Note_on_c, 0, 63, 70
1, 159360, Note_on_c, 0, 60, 70
1, 159580, Note_on_c, 0, 60, 0
1, 159580, Note_on_c, 0, 63, 0
1, 159600, Tempo, 616967
1, 159600, Note_on_c, 0, 60, 79
1, 159840, Note_on_c, 0, 62, 79
1, 160080, Tempo, 604230
1, 160080, Note_on_c, 0, 62, 0
1, 160080, Note_on_c, 0, 63, 79
1, 160230, Note_on_c, 0, 48, 59
1, 160260, Note_on_c, 0, 55, 54
1, 160290, Note_on_c, 0, 58, 67
1, 160320, Tempo, 566305
1, 160320, Note_on_c, 0, 63, 0
1, 160320, Note_on_c, 0, 48, 0
1, 160320, Note_on_c, 0, 57, 0
1, 160320, Note_on_c, 0, 60, 0
1, 160320, Note_on_c, 0, 53, 0
1, 160320, Note_on_c, 0, 79, 75
1, 160320, Note_on_c, 0, 64, 72
1, 160430, Note_on_c, 0, 79, 0
1, 160440, Note_on_c, 0, 81, 77
1, 160550, Note_on_c, 0, 81, 0
1, 160560, Note_on_c, 0, 82, 80
1, 160670, Note_on_c, 0, 82, 0
1, 160680, Note_on_c, 0, 84, 83
1, 160780, Tempo, 563592
1, 160790, Note_on_c, 0, 84, 0
1, 160800, Tempo, 566305
1, 160800, Note_on_c, 0, 64, 0
1, 160800, Note_on_c, 0, 86, 85
1, 160800, Note_on_c, 0, 62, 72
1, 160820, Tempo, 569044
1, 160840, Tempo, 571810
1, 160860, Tempo, 577478
1, 160880, Tempo, 580327
1, 160900, Tempo, 583204
1, 160910, Note_on_c, 0, 86, 0
1, 160920, Tempo, 586109
1, 160920, Note_on_c, 0, 88, 88
1, 160940, Tempo, 592066
1, 160960, Tempo, 595061
1, 160980, Tempo, 598086
1, 161000, Tempo, 604230
1, 161020, Tempo, 607410
1, 161030, Note_on_c, 0, 88, 0
1, 161040, Tempo, 610563
1, 161040, Note_on_c, 0, 89, 90
1, 161060, Tempo, 613748
1, 161080, Tempo, 620219
1, 161100, Tempo, 623506
1, 161120, Tempo, 626894
1, 161140, Tempo, 633647
1, 161150, Note_on_c, 0, 89, 0
1, 161160, Tempo, 843407
1, 161160, Note_on_c, 0, 91, 94
1, 161261, Tempo, 863309
1, 161270, Note_on_c, 0, 91, 0
1, 161280, Tempo, 794702
1, 161280, Note_on_c, 0, 62, 0
1, 161280, Note_on_c, 0, 58, 0
1, 161280, Note_on_c, 0, 55, 0
1, 161280, Note_on_c, 0, 48, 0
1, 161280, Note_on_c, 0, 86, 96
1, 161280, Note_on_c, 0, 82, 81
1, 161280, Note_on_c, 0, 94, 98
1, 161280, Note_on_c, 0, 34, 68
1, 161280, Note_on_c, 0, 46, 81
1, 161421, Control_c, 0, 64, 127
1, 161520, Note_on_c, 0, 46, 0
1, 161520, Note_on_c, 0, 94, 0
1, 161520, Note_on_c, 0, 86, 0
1, 161520, Note_on_c, 0, 82, 0
1, 161520, Note_on_c, 0, 34, 0
1, 161520, Note_on_c, 0, 53, 81
1, 161760, Tempo, 648649
1, 161760, Note_on_c, 0, 53, 0
1, 161760, Note_on_c, 0, 70, 81
1, 161760, Note_on_c, 0, 65, 68
1, 161760, Note_on_c, 0, 58, 57
1, 161760, Note_on_c, 0, 62, 68
1, 162480, Tempo, 574163
1, 162480, Note_on_c, 0, 58, 0
1, 162480, Note_on_c, 0, 70, 0
1, 162480, Note_on_c, 0, 69, 76
1, 162480, Note_on_c, 0, 57, 65
1, 162495, Control_c, 0, 64, 0
1, 162600, Note_on_c, 0, 57, 0
1, 162600, Note_on_c, 0, 69, 0
1, 162600, Note_on_c, 0, 70, 76
1, 162600, Note_on_c, 0, 58, 65
1, 162720, Tempo, 615385
1, 162720, Note_on_c, 0, 58, 0
1, 162720, Note_on_c, 0, 70, 0
1, 162720, Note_on_c, 0, 69, 81
1, 162720, Note_on_c, 0, 57, 68
1, 162960, Tempo, 574163
1, 162960, Note_on_c, 0, 57, 0
1, 162960, Note_on_c, 0, 62, 0
1, 162960, Note_on_c, 0, 65, 0
1, 162960, Note_on_c, 0, 69, 0
1, 162960, Note_on_c, 0, 62, 65
1, 162960, Note_on_c, 0, 67, 77
1, 162960, Note_on_c, 0, 55, 64
1, 162960, Note_on_c, 0, 58, 54
1, 163080, Note_on_c, 0, 55, 0
1, 163080, Note_on_c, 0, 67, 0
1, 163080, Note_on_c, 0, 69, 77
1, 163080, Note_on_c, 0, 57, 64
1, 163200, Tempo, 648649
1, 163200, Note_on_c, 0, 57, 0
1, 163200, Note_on_c, 0, 58, 0
1, 163200, Note_on_c, 0, 62, 0
1, 163200, Note_on_c, 0, 69, 0
1, 163200, Note_on_c, 0, 67, 81
1, 163200, Note_on_c, 0, 62, 64
1, 163200, Note_on_c, 0, 58, 54
1, 163200, Note_on_c, 0, 55, 68
1, 163440, Tempo, 609137
1, 163440, Note_on_c, 0, 55, 0
1, 163440, Note_on_c, 0, 67, 0
1, 163440, Note_on_c, 0, 65, 72
1, 163440, Note_on_c, 0, 53, 63
1, 163680, Note_on_c, 0, 53, 0
1, 163680, Note_on_c, 0, 62, 0
1, 163680, Note_on_c, 0, 58, 0
1, 163680, Note_on_c, 0, 65, 0
1, 163680, Note_on_c, 0, 67, 76
1, 163680, Note_on_c, 0, 55, 65
1, 163920, Tempo, 588235
1, 163920, Note_on_c, 0, 55, 0
1, 163920, Note_on_c, 0, 67, 0
1, 163920, Note_on_c, 0, 69, 79
1, 163920, Note_on_c, 0, 57, 68
1, 164160, Note_on_c, 0, 57, 0
1, 164160, Note_on_c, 0, 69, 0
1, 164160, Note_on_c, 0, 70, 83
1, 164160, Note_on_c, 0, 58, 71
1, 164400, Tempo, 603015
1, 164400, Note_on_c, 0, 58, 0
1, 164400, Note_on_c, 0, 70, 0
1, 164400, Note_on_c, 0, 72, 86
1, 164400, Note_on_c, 0, 60, 73
1, 164420, Tempo, 585366
1, 164500, Tempo, 582524
1, 164560, Tempo, 579710
1, 164620, Tempo, 576923
1, 164640, Note_on_c, 0, 60, 0
1, 164640, Note_on_c, 0, 72, 0
1, 164640, Note_on_c, 0, 74, 90
1, 164640, Note_on_c, 0, 62, 76
1, 164654, Control_c, 0, 64, 127
1, 164680, Tempo, 574163
1, 164740, Tempo, 571429
1, 164820, Tempo, 568720
1, 164880, Tempo, 638298
1, 164880, Note_on_c, 0, 62, 0
1, 164880, Note_on_c, 0, 74, 0
1, 164880, Note_on_c, 0, 77, 94
1, 164880, Note_on_c, 0, 65, 80
1, 165120, Note_on_c, 0, 65, 0
1, 165120, Note_on_c, 0, 77, 0
1, 165120, Note_on_c, 0, 84, 94
1, 165120, Note_on_c, 0, 77, 80
1, 165120, Note_on_c, 0, 82, 80
1, 165120, Control_c, 0, 64, 0
1, 165120, Note_on_c, 0, 62, 60
1, 165120, Note_on_c, 0, 65, 60
1, 165120, Note_on_c, 0, 72, 72
1, 165120, Note_on_c, 0, 70, 72
1, 165205, Control_c, 0, 64, 127
1, 166080, Note_on_c, 0, 70, 0
1, 166080, Note_on_c, 0, 65, 0
1, 166080, Note_on_c, 0, 77, 0
1, 166080, Note_on_c, 0, 82, 0
1, 166080, Note_on_c, 0, 62, 0
1, 166080, Note_on_c, 0, 72, 0
1, 166080, Note_on_c, 0, 81, 94
1, 166080, Note_on_c, 0, 77, 80
1, 166080, Note_on_c, 0, 60, 60
1, 166080, Note_on_c, 0, 65, 60
1, 166080, Note_on_c, 0, 69, 60
1, 166080, Note_on_c, 0, 72, 72
1, 166095, Control_c, 0, 64, 0
1, 166144, Control_c, 0, 64, 127
1, 166560, Tempo, 621762
1, 166560, Note_on_c, 0, 72, 0
1, 166560, Note_on_c, 0, 65, 0
1, 166560, Note_on_c, 0, 81, 0
1, 166560, Note_on_c, 0, 77, 0
1, 166560, Note_on_c, 0, 60, 0
1, 166560, Note_on_c, 0, 69, 0
1, 166560, Note_on_c, 0, 79, 80
1, 166560, Note_on_c, 0, 74, 80
1, 166560, Note_on_c, 0, 58, 55
1, 166560, Note_on_c, 0, 62, 55
1, 166560, Note_on_c, 0, 67, 65
1, 166560, Note_on_c, 0, 65, 55
1, 166574, Control_c, 0, 64, 0
1, 166640, Note_on_c, 0, 74, 0
1, 166640, Note_on_c, 0, 79, 0
1, 166640, Note_on_c, 0, 81, 76
1, 166641, Control_c, 0, 64, 127
1, 166720, Note_on_c, 0, 81, 0
1, 166720, Note_on_c, 0, 79, 76
1, 166800, Note_on_c, 0, 79, 0
1, 166800, Note_on_c, 0, 77, 80
1, 166880, Note_on_c, 0, 77, 0
1, 166880, Note_on_c, 0, 74, 76
1, 166960, Tempo, 693642
1, 166960, Note_on_c, 0, 74, 0
1, 166960, Note_on_c, 0, 77, 76
1, 167040, Tempo, 461538
1, 167040, Note_on_c, 0, 77, 0
1, 167040, Note_on_c, 0, 65, 0
1, 167040, Note_on_c, 0, 58, 0
1, 167040, Note_on_c, 0, 84, 0
1, 167040, Note_on_c, 0, 67, 0
1, 167040, Note_on_c, 0, 62, 0
1, 167040, Note_on_c, 0, 72, 73
1, 167040, Note_on_c, 0, 84, 87
1, 167040, Note_on_c, 0, 81, 73
1, 167040, Note_on_c, 0, 77, 73
1, 167040, Note_on_c, 0, 53, 63
1, 167040, Note_on_c, 0, 60, 63
1, 167040, Note_on_c, 0, 65, 63
1, 167040, Note_on_c, 0, 69, 75
1, 167051, Control_c, 0, 64, 0
1, 167307, Control_c, 0, 64, 127
1, 167520, Note_on_c, 0, 69, 0
1, 167520, Note_on_c, 0, 72, 0
1, 167520, Note_on_c, 0, 53, 0
1, 167520, Note_on_c, 0, 84, 0
1, 167520, Note_on_c, 0, 81, 0
1, 167520, Note_on_c, 0, 77, 0
1, 167520, Note_on_c, 0, 60, 0
1, 167520, Note_on_c, 0, 65, 0
1, 167573, Control_c, 0, 64, 0
1, 168960, Note_on_c, 0, 77, 83
1, 168960, Note_on_c, 0, 89, 99
1, 168960, Note_on_c, 0, 84, 83
1, 168960, Note_on_c, 0, 81, 83
1, 168960, Note_on_c, 0, 29, 57
1, 168960, Note_on_c, 0, 36, 57
1, 168960, Note_on_c, 0, 41, 68
1, 169147, Control_c, 0, 64, 127
1, 169440, Marker_t, "Fine"
1, 169440, Note_on_c, 0, 41, 0
1, 169440, Note_on_c, 0, 29, 0
1, 169440, Note_on_c, 0, 89, 0
1, 169440, Note_on_c, 0, 84, 0
1, 169440, Note_on_c, 0, 77, 0
1, 169440, Note_on_c, 0, 36, 0
1, 169440, Note_on_c, 0, 81, 0
1, 169707, Control_c, 0, 64, 0
1, 169707, End_track
0, 0, End_of_file
